STARTFONT 2.3
FONT -FontForge-Indie Flower-Book-R-Normal--36-360-72-72-P-166-ISO10646-1
SIZE 36 72 72  4
FONTBOUNDINGBOX 45 54 -5 -18
COMMENT "Generated by fontforge, http://fontforge.sourceforge.net"
COMMENT "Copyright (c) 2010, Kimberly Geswein (kimberlygeswein.com)"
STARTPROPERTIES 40
FOUNDRY "FontForge"
FAMILY_NAME "Indie Flower"
WEIGHT_NAME "Book"
SLANT "R"
SETWIDTH_NAME "Normal"
ADD_STYLE_NAME ""
PIXEL_SIZE 36
POINT_SIZE 360
RESOLUTION_X 72
RESOLUTION_Y 72
SPACING "P"
AVERAGE_WIDTH 166
CHARSET_REGISTRY "ISO10646"
CHARSET_ENCODING "1"
FONTNAME_REGISTRY ""
CHARSET_COLLECTIONS "ISO8859-2 ISO8859-9 ISO8859-4 ISO10646-1"
BITS_PER_PIXEL 4
FONT_NAME "IndieFlower"
FACE_NAME "Indie Flower"
COPYRIGHT "Copyright (c) 2010, Kimberly Geswein (kimberlygeswein.com)"
FONT_VERSION "1.001 2010"
FONT_ASCENT 29
FONT_DESCENT 7
UNDERLINE_POSITION -4
UNDERLINE_THICKNESS 2
X_HEIGHT 13
CAP_HEIGHT 18
RAW_ASCENT 799
RAW_DESCENT 200
NORM_SPACE 14
RELATIVE_WEIGHT 40
RELATIVE_SETWIDTH 50
SUPERSCRIPT_X 0
SUPERSCRIPT_Y 17
SUPERSCRIPT_SIZE 23
SUBSCRIPT_X 0
SUBSCRIPT_Y 5
SUBSCRIPT_SIZE 23
AVG_LOWERCASE_WIDTH 163
AVG_UPPERCASE_WIDTH 195
ENDPROPERTIES
CHARS 356
STARTCHAR space
ENCODING 32
SWIDTH 375 0
DWIDTH 14 0
BBX 1 1 0 0
BITMAP
00
ENDCHAR
STARTCHAR exclam
ENCODING 33
SWIDTH 149 0
DWIDTH 5 0
BBX 5 30 0 0
BITMAP
049100
09F100
09F200
09F200
09F200
09F200
09F300
09F300
09F300
09F300
09F300
09F400
09F400
09F400
09F500
09F500
09F500
08F600
08F600
07F600
03B200
000000
000000
000000
000000
000000
04A910
3FFF90
6FFFA0
2DFA10
ENDCHAR
STARTCHAR quotedbl
ENCODING 34
SWIDTH 234 0
DWIDTH 8 0
BBX 8 12 0 17
BITMAP
00000920
66000E90
9E100ED0
7F500DF0
6F900DF2
4FC00DF4
1FF10CF5
0DF40BF6
09F80AF7
03FD09F7
007904F6
00000051
ENDCHAR
STARTCHAR numbersign
ENCODING 35
SWIDTH 768 0
DWIDTH 28 0
BBX 27 18 0 0
BITMAP
0000000000081001800000000000
00000000003F3005F20000000000
00000000003F5005F50000000000
00000000003F7001E90000000000
00000000003FA000CE3333330000
00000000003FE97AFFFFFFFFA000
000000358BEFFFFFFFECA89DF400
0048CFFFFFFFFC88CF9000001000
3CFFFFC7433EF4006F9000000000
9FFC7200000DF4006FD8ABCCCA20
14100000000DFBADFFFFFFFFFFA0
000000258AEFFFFFFFFD96457840
0007BEFFFFEEFE626FE000000000
000ADB864204FD003FE000000000
000000000002FD001FF100000000
000000000000EC000EF200000000
00000000000021000CF300000000
0000000000000000096000000000
ENDCHAR
STARTCHAR dollar
ENCODING 36
SWIDTH 581 0
DWIDTH 21 0
BBX 21 34 0 0
BITMAP
0000000000011000000000
00000000000D5003000000
00000000005F705D000000
00000000009F30AD000000
0000000000AF20CD000000
0000000000CF50CD000000
0000000002DFFFFD000000
00000002AFFFFFFF810000
0000004EFFFE55FFF50000
000003EF8BFB02FA200000
000009F903F902F5000000
000008F703F803F3000000
000003FA15F704F1000000
0000005FDDF706E0000000
00000004EFF70BD0000000
000000003EFB5FD0000000
000000000DFFFFF4000000
000000000DF7BFFF400000
000000000DF3CFCDF50000
000000000EE0EF11CF5000
000000000FB2FB001DE200
000000001F74F80005FB00
020000003F46F50000EF20
9FB100005F18F40000CF40
5FFB10008E0AF30000CF30
05EFB100CC0CF20000EF20
002AFC45FB0EF20002FE00
00004DFFFE5FF20009F800
0000008FFFFFF3006FE100
00000006FFFFF97BFE4000
00000002FFBFFFFFA20000
00000002FF4FE861000000
00000000FC0FD000000000
00000000750E8000000000
ENDCHAR
STARTCHAR percent
ENCODING 37
SWIDTH 636 0
DWIDTH 23 0
BBX 22 22 0 0
BITMAP
000000000000000000A300
00000000000000000AE100
00058730000000008F5000
01CFFFF900000005F80000
0AFE78EF9000002EB00000
4FE2002DF30000CD100000
8F800006F70009E2000000
AF600005F6004F50000000
7F80001CF201E900000000
1DE527DF800AE100000000
02CFFFF8005F7000000000
0005873001EE10003AC700
000000000AF70007FFFFA0
000000005FE1005FE64DF5
00000001EF7001EE3005FC
00000008FE1007F60001FF
0000002FF6000CE10002FD
0000009FD0001F900008F9
000002FF50003F70005FE2
000008FB00001FC56BFF60
00000CE2000007FFFFE600
00000C6000000049A82000
ENDCHAR
STARTCHAR ampersand
ENCODING 38
SWIDTH 457 0
DWIDTH 16 0
BBX 16 26 0 -1
BITMAP
000002ED40000000
000008FFE0000000
000009FFF5000000
00000AFFF7000000
00000BFFF7000000
00000CFFF6000000
00000DFFF3000000
00000DFFD0000000
00000EFF70000000
00000EFE10000000
00000FF7001799A5
00004FF1003FFFFB
0000AFF3003FE541
0003FFF7005F9000
000BF8CD008F4000
004FB05F61DF1000
00CF300BEDFC0000
04FA0004FFF70000
0CF50000EFD00000
2FE00001EFE00000
7F90000AFFF60000
9F60008FA0AE1000
9FB01AFC001CA000
2EFCEFD20002D700
04EFFA1000003500
0001000000000000
ENDCHAR
STARTCHAR quotesingle
ENCODING 39
SWIDTH 102 0
DWIDTH 4 0
BBX 4 10 0 17
BITMAP
0100
3E10
4F70
4FA0
4FD0
2FE0
1FF0
0DF1
08F1
0160
ENDCHAR
STARTCHAR parenleft
ENCODING 40
SWIDTH 421 0
DWIDTH 15 0
BBX 15 23 0 -2
BITMAP
00000000017CE900
000000005EFFFF70
00000008FE832950
0000008FB1000000
000007F900000000
00005FA000000000
0002ED1000000000
000BF40000000000
006FB00000000000
00DF300000000000
06FB000000000000
0BF5000000000000
1FF1000000000000
3FC0000000000000
4FB0000000000000
3FB0000000000000
0FD0000000000000
0BF4000000000000
05FD200000000000
00CFE61000000000
002DFFFB96000000
0001AFFFFF100000
0000024652000000
ENDCHAR
STARTCHAR parenright
ENCODING 41
SWIDTH 290 0
DWIDTH 10 0
BBX 10 24 0 -2
BITMAP
0043000000
04FFD40000
006CFF5000
0001CFF300
00001DFC00
000004FF50
0000008FD0
0000001EF3
0000000AF7
00000006FA
00000004FC
00000003FC
00000005F9
00000009F4
0000001EE0
0000009F80
000003FE10
00002EF800
0001CFE100
001BFF6000
01BFFB0000
1BFFD10000
8FFD200000
6FA1000000
ENDCHAR
STARTCHAR asterisk
ENCODING 42
SWIDTH 412 0
DWIDTH 15 0
BBX 14 14 0 8
BITMAP
000000000002AA
00820031007FF9
03FF81E81AFF70
005FFDFFDFD300
0004FFFFFFA840
00127FFFFFFF90
0AFEBFFFFFE400
3CAEFFDFFFD000
000EFB0BFFF300
005FE105FFFC00
009F6001FFFF70
00890000DF9FA0
00000000AE0200
00000000550000
ENDCHAR
STARTCHAR plus
ENCODING 43
SWIDTH 459 0
DWIDTH 17 0
BBX 16 16 0 0
BITMAP
0000002000000000
000002F600000000
000002FB00000000
000000EF10000000
000000BF50000000
0000009F90000000
0000008FE6410000
00147AEFFFFFEDB7
7DFFFFFFFFFFFFF8
9EC9756FF9444440
0000000FF7000000
0000000CF7000000
0000000AF7000000
00000008F7000000
00000008F7000000
00000004E3000000
ENDCHAR
STARTCHAR comma
ENCODING 44
SWIDTH 130 0
DWIDTH 5 0
BBX 4 13 0 -7
BITMAP
0110
1EE1
4FF5
1BF7
09F7
0AF6
0CF4
0FF2
3FE0
7FB0
9F70
AF20
6800
ENDCHAR
STARTCHAR hyphen
ENCODING 45
SWIDTH 375 0
DWIDTH 14 0
BBX 13 4 0 8
BITMAP
00035566776100
07EFFFFFFFFE10
5FFFECA99ACD10
24310000000000
ENDCHAR
STARTCHAR period
ENCODING 46
SWIDTH 204 0
DWIDTH 7 0
BBX 6 7 1 0
BITMAP
01A800
08FF90
1EFFF1
6FFFF4
4FFFF3
0DFFB0
04EB10
ENDCHAR
STARTCHAR slash
ENCODING 47
SWIDTH 309 0
DWIDTH 11 0
BBX 11 27 0 0
BITMAP
000000000B50
000000003F70
000000007F50
00000000AF20
00000000DE00
00000002FA00
00000008F600
0000000DF100
0000004FC000
0000009F7000
000000EF2000
000005FD0000
00000AF80000
00001FF20000
00006FC00000
0000CF700000
0002FF200000
0008FB000000
000DF6000000
003FF1000000
009FA0000000
02FF40000000
09FD00000000
1EF700000000
6FE100000000
9F7000000000
5C1000000000
ENDCHAR
STARTCHAR zero
ENCODING 48
SWIDTH 430 0
DWIDTH 16 0
BBX 15 16 0 0
BITMAP
000004BEE9100000
00009FFFFFE30000
000BFC769EFE3000
009F700001BFD000
04FA0000000CF800
0BE200000003FE00
2FA000000000CF50
4F60000000009F80
4F60000000008F80
2F70000000009F60
0EC000000001EF30
08F500000008FD00
01EE4000001FF700
004EF93126DFC000
0003DFFFFFFD2000
000006BEFD810000
ENDCHAR
STARTCHAR one
ENCODING 49
SWIDTH 318 0
DWIDTH 11 0
BBX 11 22 0 0
BITMAP
000000000110
000000000D90
000000004FA0
000000007F80
00000000AF70
00000001EF50
0000000AFF30
0000009FFF10
000009FFFF00
00008FFFFD00
0007FE7FFB00
007FF31FF900
06FF501FF700
3FF6002FF500
5E50003FF300
0000004FF100
0000006FD000
0000007FB000
0000008F8000
0000009F5000
0000009F1000
0000006C0000
ENDCHAR
STARTCHAR two
ENCODING 50
SWIDTH 497 0
DWIDTH 18 0
BBX 17 20 0 0
BITMAP
000000000377300000
000000008FFFF60000
00000004FD35EF3000
00000008F4007FB000
00000008E0001FF200
0000000360000BF500
00000000000008F800
00000000000007F900
00000000000007F900
0000000000000AF700
0000000000000EF500
0000000000003FF100
0000000000008FA000
000000000001EF3000
036410000008F50000
7FFFFB50006FA00000
9FFFFFFECDFF400000
3FFFFFFFFFFFD85300
03CFFFFFFFFFFFFFB0
0002443210036ADEA0
ENDCHAR
STARTCHAR three
ENCODING 51
SWIDTH 430 0
DWIDTH 16 0
BBX 15 19 0 0
BITMAP
02AEEEEEEB200000
09FFEDCCEFE30000
06F3000005EB0000
00200000009F1000
0000000001DF2000
000000005DF80000
0000259DFE600000
004EFFFFF4000000
005DFFFFFA300000
000036AEFFF70000
000000003AFF9000
00000000004EF700
000000000003FE10
2E9000000000BF60
3FF9000000008F80
05EFA1000000AF70
003DFE731138FF30
00019FFFFFFFF700
0000039DEFDA3000
ENDCHAR
STARTCHAR four
ENCODING 52
SWIDTH 412 0
DWIDTH 15 0
BBX 15 22 0 0
BITMAP
0039300000000000
00CF600000000000
02FF200000000000
07FC000000000000
0BF7000000000000
0FF1000000001100
3FB0000000007F10
4F7000000000DF20
5F5000000006FF00
4F600000001DFC00
2F900000009FF900
0FE0000005FFF600
0BF900006FFFF400
04FFA67CFFFFF300
00AFFFFFFD5EF300
0009FFFE700CF400
00001340000BF600
00000000000BF800
00000000000BFB00
00000000000AFC00
000000000008FC00
000000000004F600
ENDCHAR
STARTCHAR five
ENCODING 53
SWIDTH 571 0
DWIDTH 21 0
BBX 20 24 0 0
BITMAP
00000000489AAAAAA720
0000001BFFFFFFFFFFF5
0000004DFC75555669A3
0000000AF30000000000
0000002FC00000000000
000000AF500000000000
000003FD000000000000
00000BF8000000000000
00004FFB510000000000
00009FFFFFC610000000
000039BEFFFFE6000000
00000000147BFFB10000
0000000000003BFB0000
00000000000000AF7000
000000000000001EE000
0000000000000009F400
0400000000000007F700
3F10000000000007F800
5F3000000000000AF800
4F3000000000003FF500
1ED61000000005EFD000
06FFFC975679DFFE3000
004CFFFFFFFFFFB20000
000048BDEFFD94000000
ENDCHAR
STARTCHAR six
ENCODING 54
SWIDTH 440 0
DWIDTH 16 0
BBX 15 22 0 0
BITMAP
0000000000378500
000000004CFFFFA0
00000009FFC89FC0
000001CFD5000330
00001CFB10000000
0000BFA000000000
0007FB0000000000
002FD10000000000
00AF500000000000
02FD002321000000
08FDBEFFFFD71000
0DFFFEB98AFFC100
1FFC4000003EFC00
4FC100000003FF50
5F60000000008FA0
4F70000000003FC0
2FC0000000004FC0
0EF400000000AFA0
08FE40000008FF40
01EFFB7579DFF900
004EFFFFFFFE7000
00029DFFDB710000
ENDCHAR
STARTCHAR seven
ENCODING 55
SWIDTH 412 0
DWIDTH 15 0
BBX 14 20 1 0
BITMAP
32100000000000
EFFFEEDDDB0000
5BCCCBBCFC0000
00000003FC0000
00000002FC0000
00000002FB0000
00000003FA0000
00000005F90000
00000008F80000
0035556DFB6400
04FFFFFFFFFFD1
017899BFF8AFF2
0000005FE00130
0000006FB00000
0000008F700000
000000BF400000
000000EF100000
000003FD000000
000007FA000000
000004F5000000
ENDCHAR
STARTCHAR eight
ENCODING 56
SWIDTH 375 0
DWIDTH 14 0
BBX 13 21 0 0
BITMAP
00004985000000
001AFFFFD30000
01DFEAAEFE2000
0BFC2001DF7000
4FE10000AF5000
6F700002FD1000
4FB0000AF40000
0AFB108F700000
01AFEBFC000000
0006FFF7000000
0004FFFC100000
002EE47FC10000
00CF7003DD2000
05FE10002DD200
07FB000004FB00
06FB000000AF40
02FF1000005F70
00AFA000003F70
001DFA1001BF40
0001BFEBAEFC00
000004AEFE9100
ENDCHAR
STARTCHAR nine
ENCODING 57
SWIDTH 300 0
DWIDTH 11 0
BBX 11 22 0 0
BITMAP
0019DFD81000
02DFDADFD200
0BF70006FC00
3FC00000EF40
7F700002FF70
9F600006FF60
9F80000AFF30
7FD0000EFF10
2FFA103FFE00
07FFEDEFFC00
004BFFFFFB00
0000136DF900
00000008F800
00000007F700
00000007F600
00000008F600
00000008F600
00000008F500
00000008F500
00000008F600
00000007F600
00000004F600
ENDCHAR
STARTCHAR colon
ENCODING 58
SWIDTH 84 0
DWIDTH 3 0
BBX 3 11 0 2
BITMAP
0100
4F40
2FA0
0630
0000
0000
0000
0000
0510
3F50
0410
ENDCHAR
STARTCHAR semicolon
ENCODING 59
SWIDTH 128 0
DWIDTH 5 0
BBX 5 21 -1 -7
BITMAP
04F900
04FE00
01DC00
000100
000000
000000
000000
000000
000000
000A40
001F90
003FB0
004FA0
006F80
00BF60
03FF20
0BFD00
3FF800
7FF200
8F9000
470000
ENDCHAR
STARTCHAR less
ENCODING 60
SWIDTH 487 0
DWIDTH 18 0
BBX 17 15 0 0
BITMAP
000000000000005A10
0000000000004CFD30
000000000019FF9100
0000000003DFE40000
000000008FFA100000
0000002CFE50000000
000006EFA100000000
0001BFD40000000000
004EFA100000000000
04EF80000000000000
4EFE51000000000000
CFFFFFDB8641000000
16BEFFFFFFFFD81000
000014689BDFFFE100
0000000000016CE200
ENDCHAR
STARTCHAR equal
ENCODING 61
SWIDTH 524 0
DWIDTH 19 0
BBX 18 10 0 4
BITMAP
049BCDDEEDDDDDDC81
3FFFFFFFFFFFEDDFFB
0245555544210004B8
000000000000000000
000000000000000000
000000000000000000
000000000000000000
1789ABBBCCCCDDC910
3FFFFFFFFFFFFFFF90
024444444444444300
ENDCHAR
STARTCHAR greater
ENCODING 62
SWIDTH 403 0
DWIDTH 15 0
BBX 14 17 1 0
BITMAP
77100000000000
EFD20000000000
3EFE8200000000
01AFFFB6100000
0003AFFFFC8520
0000017BFFFFF2
0000000002CFF4
0000000000DFE1
000000000AFF50
00000001BFE400
0000004EFD3000
000019FFA10000
0003DFE6000000
007FFC20000000
1BFF8000000000
CFE40000000000
DA100000000000
ENDCHAR
STARTCHAR question
ENCODING 63
SWIDTH 272 0
DWIDTH 10 0
BBX 10 32 0 0
BITMAP
0001000000
07DFFB4000
8FFFFFF600
A82028FF20
1000007F90
0000001FE0
0000000EF1
0000000EF2
0000003FF0
0000008FC0
000000EF70
000007FF20
00001EFA00
00009FF300
0002FFA000
0008FF2000
000EF80000
003FE10000
004FF84200
001DFFFF90
00018CDD90
0000000000
0000000000
0000000000
0000000000
0000000000
0000000000
0000000000
0000000000
0000002A40
0000008FB0
0000004E80
ENDCHAR
STARTCHAR at
ENCODING 64
SWIDTH 815 0
DWIDTH 29 0
BBX 29 34 0 -1
BITMAP
000000000000021000000000000000
00000000039DFFFEA5000000000000
00000003BFFFCACFFFE71000000000
0000007FFC5000015AFFE600000000
000009FE500000000018FFB2000000
00008FC10000000000002AFE400000
0005FB10000000000000005EF50000
002EC1000000000000000004EF5000
009E200000000000000000005FF300
02F70000000000000000000009FB00
08E00000000001689730000002FF10
0D90000000019FFFFFFC500000BF30
1F400000003EF83114AFFA00007F50
4F20000002ED20000004EF70006F50
5F0000000CE2000000004F80005F50
4F1000005F700000008D2610006F40
3F200000BE10000000FF7000009F30
2F500000FB00000002FFA00000DF00
0E900002F800000003FFB00003FC00
0AD00004F700000003FFA0000BF700
07F40003F800000005FFC1005FE200
02FB0000EC0000003EFFFC36EF7000
00AF30009F500005EFA3EFFFFB0000
003FC0001DFB77CFF90029CB600000
000AF70002CFFFFD50000000000000
0001EF400004785000000000000000
00005FE30000000000000000000000
000007FE3000000000000000000000
0000007FE500000000000000000000
00000006FFA2000000000000255000
000000003CFF9300000036AEFFD000
00000000007EFFEBAABEFFFFE91000
0000000000018EFFFFFEDA84100000
000000000000000111000000000000
ENDCHAR
STARTCHAR A
ENCODING 65
SWIDTH 562 0
DWIDTH 20 0
BBX 20 28 0 0
BITMAP
00000001454100000000
000002AFFFFE91000000
00003EF9669EFC100000
0001DE300002BFC00000
0008F40000001CF70000
000EB000000002EE1000
003F50000000007F7000
007F10000000001FD000
00AD00000000000AF300
00CA000000000004F800
00E8000000000001FC00
00F7000000000000CF00
01F60000000000009F30
02F50000000000007F70
03F50000000000006F90
04F62100000000008FB0
1BFFFFFEDCBBA987DFD0
2EFFB98889ACEFFFFFF0
05FB0000000000212FF1
00FA0000000000000EF2
00FB0000000000000CF3
00FD0000000000000CF4
00FF0000000000000CF4
00DF3000000000000DF4
00BF6000000000001FF3
009F8000000000004FF2
004FA000000000006FF0
000B9000000000006E60
ENDCHAR
STARTCHAR B
ENCODING 66
SWIDTH 741 0
DWIDTH 27 0
BBX 26 25 0 0
BITMAP
00000369BDEDA7200000000000
016BEFFFFFFFFFFA2000000000
3EFD78FFFE9767CFF700000000
3940008FE1000004EF50000000
0000001FF10000005FC0000000
0000000AF40000001FD0000000
00000006F80000003FA0000000
00000002FB000001CF20000000
00000000EF00038EF700000000
00000000BF34DFFFB000000000
000000008F75FFFFC400000000
000000006FA05CFFFFB3000000
000000004FD00039EFFF800000
000000001FF1000004AFFB1000
000000000EF400000002AFD200
000000000CF70000000006FE20
000000000AF900000000006FC0
0000000007FB00000000000CF6
0000000005FC000000000008FC
0000000003FC000000000006FE
0000000009F9000000000008FE
00000000BFFD10000000001DFB
000000006FFFE842000126DFF4
0000000003CFFFFFFFFFFFFE50
00000000000258BDEFFFEB7100
ENDCHAR
STARTCHAR C
ENCODING 67
SWIDTH 515 0
DWIDTH 19 0
BBX 18 24 0 0
BITMAP
000000000013410000
000000003AEFFC0000
00000008FFFFFF2000
000001BFFA319F1000
00001CFC3000AB0000
0000BF900001E20000
0007F8000001200000
002F90000000000000
00BD10000000000000
03F500000000000000
09D000000000000000
0E9000000000000000
2F6000000000000000
4F5000000000000000
5F6000000000000000
4F7000000000000000
2F9000000000000000
0ED000000000000000
0AF300000000000000
05FB00000000000000
00DF800000002589B5
004FFC7578BEFFFFD2
0006FFFFFFFFFC9510
00004BFFDA63000000
ENDCHAR
STARTCHAR D
ENCODING 68
SWIDTH 741 0
DWIDTH 27 0
BBX 26 24 0 -1
BITMAP
00014689986410000000000000
05CFFFFFFFFFFB710000000000
3FFEB97766FFFFFFA300000000
1A30000000AFA38EFFA2000000
00000000005FB0017EFE500000
00000000002FC00001AFF80000
00000000000EE0000006FF9000
00000000000CF10000004FF700
000000000008F300000006FF20
000000000006F600000000BFA0
000000000005F9000000002FF1
000000000004FB000000000BF6
000000000003FD0000000007F8
000000000002FF1000000006FA
000000000001FF3000000007F9
000000000001FF400000000AF8
000000000000FF400000002FF4
000000000000EF40000000CFD0
000000000000BF3000000AFF60
00000000000058000002CFFB00
000000003FC73000039FFFB100
000000001EFFFEBCEFFFF70000
00000000029EFFFFFFD8100000
00000000000035654100000000
ENDCHAR
STARTCHAR E
ENCODING 69
SWIDTH 524 0
DWIDTH 19 0
BBX 18 23 0 0
BITMAP
014432211110010000
0BFFFFFFFFFFFFF910
0CFFFEEDDCCBBBBE80
0CF300000000000120
0CF400000000000000
0CF400000000000000
0CF400000000000000
0CF400000000000000
0CF400000000133400
0CF4001358ADFFF800
3FFFEFFFFFFFDA4000
2FFECA976531000000
0FE100000000000000
0FB000000000000000
1FA000000000000000
2FA000000000000000
4FA000000000000000
5FA000000000000000
4FA000000000000000
3FA000000000000100
0DE8545678ABDEFFC1
05FFFFFFFFFFFFFFA0
003ADFFFFFEDB96200
ENDCHAR
STARTCHAR F
ENCODING 70
SWIDTH 514 0
DWIDTH 19 0
BBX 24 22 -2 0
BITMAP
000001356778887653100000
0059DFFFFFFFFFFFFFFC8200
2EFFFFFFFFEBBABBCFFFFF91
0410007FF60000000149DFFA
0000002FE000000000000268
0000001FE000000000000000
0000001FD000000000000000
0000000FD000000000000000
0000000DF000000000000000
0000000CF300000000000000
0000002FFC77899873000000
00048AEFFFFFFFFFFF300000
0005DDCFFFFFFFDB83000000
00000003FF21100000000000
00000000EF20000000000000
00000000CF30000000000000
00000000BF40000000000000
00000000BF70000000000000
00000000AFA0000000000000
000000008FD0000000000000
000000005FE0000000000000
000000001780000000000000
ENDCHAR
STARTCHAR G
ENCODING 71
SWIDTH 571 0
DWIDTH 21 0
BBX 20 22 1 -3
BITMAP
0000000000048BDB5000
0000000018DFFFFFF500
00000018FFD85346BB00
000004DFB40000000000
00008FE4000000000000
0009FB10000000000000
008FB000000000000000
05FC1000000000000000
0DF30000A72013454000
5FA00000EFFFFFFFF800
AF4000004AAAAAABFE00
CF00000000000000EE00
CE00000000000000EE00
AF10000000000002FE00
6F70000000000009FE00
1EF700000000019FFE00
05FFD7444567BFFFFE00
005EFFFFFFFEA868FE00
00017ABA96200003FE00
0000000000000001FF60
0000000000000000AFE1
00000000000000001630
ENDCHAR
STARTCHAR H
ENCODING 72
SWIDTH 524 0
DWIDTH 19 0
BBX 18 25 0 0
BITMAP
000000000000000130
023000000000000DC0
0AB000000000002F80
0AD000000000003F80
09E000000000003F80
09F100000000003F80
08F300000000004F80
07F500000000004F80
06F700000000004F90
04F800000000004F90
03FA0000000005DF90
02FC00000006DFFFA0
01FE000016DFFDAFA0
00FF1017EFFB404FB0
00FF9AFFFA30002FC0
04FFFFF92000001FC0
5FFFE8200000000FD0
13DFB0000000000EF0
007FB0000000000DF1
004FB0000000000CF3
002FB0000000000CF4
001FB0000000000BF6
000FC00000000009F8
000CC00000000005FB
0005500000000000D9
ENDCHAR
STARTCHAR I
ENCODING 73
SWIDTH 167 0
DWIDTH 6 0
BBX 6 20 0 0
BITMAP
6A0000
5F4000
3F9000
0FE000
0BF300
07F600
03FA00
00ED00
00CF10
00AF30
008F60
007F80
005FB0
003FD0
002FF0
000FF2
000DF4
000CF5
0009F6
0002D4
ENDCHAR
STARTCHAR J
ENCODING 74
SWIDTH 439 0
DWIDTH 16 0
BBX 16 26 0 0
BITMAP
0000000000011000
000000000009B000
000000000009F200
000000000007F600
000000000005F900
000000000003FC00
000000000001FF00
000000000000DF30
000000000000BF50
0000000000009F70
0000000000007F90
0000000000005FB0
0000000000003FD0
0670000000001FE0
2F80000000000DF1
2FA0000000000DF2
0EE1000000000CF3
06F8000000000CF3
00AF300000000CF2
001CD10000000DF1
0002EC1000000EF0
00003EC200001FD0
000004ED40005F90
0000003EFA31BF40
00000001BFFFFC00
0000000005BFB200
ENDCHAR
STARTCHAR K
ENCODING 75
SWIDTH 468 0
DWIDTH 17 0
BBX 16 21 0 0
BITMAP
3E10000001AF3000
4F5000003DF90000
3F800002EFA00000
2F90002DFB000000
0FB000CFC1000000
0DC009FD20000000
0BE06FE200000000
09F3EE3000000000
07FEF40000000000
06FF700000000000
04FF500000000000
04FFE30000000000
05FFFE2000000000
05FACFE400000000
04F91BFF60000000
04FA009FF9100000
03FC0004EFD40000
02FE00001AFF9100
00FF1000005EFD50
00CF20000001AFF8
006E1000000006DD
ENDCHAR
STARTCHAR L
ENCODING 76
SWIDTH 346 0
DWIDTH 12 0
BBX 12 21 0 -1
BITMAP
002100000000
00C900000000
02FB00000000
05FB00000000
08FA00000000
0AF800000000
0BF600000000
0DF400000000
0EF200000000
0FF000000000
1FE000000000
3FC000000000
3FB000000000
4FA000000000
5FA000000000
3FC000000000
1FF300000000
09FEA9765320
01BFFFFFFFFC
0005AEFFFFE8
000000011100
ENDCHAR
STARTCHAR M
ENCODING 77
SWIDTH 534 0
DWIDTH 19 0
BBX 19 23 0 -1
BITMAP
3EA100000000001D9000
3FFA00000000007FD000
0CFF4000000000DFD000
04FFC000000004FFC000
00CFF60000000CFFB000
009FFE4000007FFFA000
00AFEFF7324AFFFF9000
00BF4AFFFFFFFEFF8000
00BF307EFFFC719F9000
00CF30002210005FA000
00DF30000000003FB000
00DF30000000002FD000
00EF30000000001FF100
00EF30000000000EF300
00FF30000000000DF600
00FF30000000000BF800
00FF30000000000AFB00
00FF300000000008FE00
00FF300000000006FF10
00FF300000000005FF20
00AE100000000003FF30
0000000000000001EF20
00000000000000000100
ENDCHAR
STARTCHAR N
ENCODING 78
SWIDTH 609 0
DWIDTH 22 0
BBX 20 20 1 0
BITMAP
03000000000000000000
9F400000000000000000
7F7000000000005C3000
6FB000000000007FD100
4FF100000000004FF800
4FF500000000000EFE10
4FFA000000000006FF60
5FFE100000000000DFC0
6FFF7000000000005FF2
7FFFD000000000000CF6
8FFFF5000000000006FA
9F44FC000000000002FD
BF10AF600000000001FE
CF102EE20000000002FE
DF2006FD1000000005FC
EF3000BFC20000000CF7
EF50001CFE710001AFE1
FF600002DFFECABFFF40
EF50000019FFFFFFD400
8D100000002699840000
ENDCHAR
STARTCHAR O
ENCODING 79
SWIDTH 609 0
DWIDTH 22 0
BBX 21 18 0 0
BITMAP
0000014630000000000000
0002AFFFFFB61000000000
003EFDABDFFFE820000000
01EF7000015BFFF7000000
08F7000000003AFFB10000
0ED000000000004EFC1000
3F80000000000002DFB000
5F600000000000002EF700
4F6000000000000005FE10
3F7000000000000000CF60
1FC0000000000000006FB0
0CF4000000000000002FD0
06FD100000000000003FD0
00DFC2000000000000BF80
003FFE50000000004CFD10
0005EFFB5100137CFFD200
00002BFFFFDDFFFFD70000
00000038CEFEC963000000
ENDCHAR
STARTCHAR P
ENCODING 80
SWIDTH 627 0
DWIDTH 23 0
BBX 22 22 0 0
BITMAP
0001479986420000000000
04BFFFFFFFFFEA62000000
3FFB766679BEFFFFB50000
4FB00000000027BFFFB200
3F300000020000029EFE30
140000002F30000002BFD1
000000003F500000000CF8
000000003F6000000004FC
000000003F7000000001FE
000000003F8000000004FE
000000003FA00000001CFA
000000003FD0000002CFE2
000000002FF63235AFFD30
000000000FFFFFFFFE8100
000000000DFFFFFB610000
000000000BFA5310000000
0000000009F80000000000
0000000007F90000000000
0000000004FB0000000000
0000000001FC0000000000
0000000000CD0000000000
0000000000690000000000
ENDCHAR
STARTCHAR Q
ENCODING 81
SWIDTH 642 0
DWIDTH 23 0
BBX 24 24 0 -4
BITMAP
000000024420000000000000
000005CFFFFC600000000000
0001AFFDDEFFFD4000000000
000BFA200027FFF800000000
008F700000007FFFB1000000
01FC000000002FCDFD100000
07F6000000002F81BFD10000
0CF2000000006F301BFB0000
0FF000000000160001DF8000
1FE0000000000000002EF200
1FE00000000000000007FA00
0EE00000000400000001EE10
0BF20000001F90000000AF30
07F80000000BF60000009F20
01EE20000003FF300002ED00
006FD20000009FD1004EF600
000AFE7100005FFB7BFF9000
0000AFFEA766CFFFFFF70000
000006EFFFFFFFFFFF700000
00000006ADEEDB99DFA00000
000000000000000009F90000
0000000000000000007FD500
00000000000000000008FFB1
000000000000000000007EE4
ENDCHAR
STARTCHAR R
ENCODING 82
SWIDTH 579 0
DWIDTH 21 0
BBX 21 25 -1 -2
BITMAP
0000035677653000000000
006DFFFFFFFFFFB5000000
09FFDA9999ABEFFFD40000
3FE400000000016DFF7000
4F50000000000001AFF300
0C1003500000000009FA00
000009F10000000002FD00
000009F1000000001BFC00
000009F400000016DFF600
000008F700147BFFFF7000
000007FEBDFFFFFE820000
000004FFFFFEC840000000
000002FFD7300000000000
000000FFE2000000000000
000000CFFC000000000000
000000AFBFA00000000000
0000007F3BF90000000000
0000003F61BF9000000000
0000000F900AFA10000000
0000000BD000AFC2000000
00000007F10008FE500000
00000003F200006FFA2000
0000000080000003DFE700
000000000000000019FFB0
0000000000000000002740
ENDCHAR
STARTCHAR S
ENCODING 83
SWIDTH 627 0
DWIDTH 23 0
BBX 22 23 0 -1
BITMAP
0000000026799751000000
0000004CFFFFFFFFC50000
000006FE8531116DFFA000
00001ED1000000007EF600
00003F7000000000016300
00003F8000000000000000
00000DE200000000000000
000006FE40000000000000
0000007FF9100000000000
00000003CFE92000000000
0000000005DFFA30000000
000000000006EFFA300000
00000000000018EFFA2000
0250000000000019FFE400
0DA00000000000002AFF50
3FC0000000000000005FE2
1EF3000000000000000BF8
07FC000000000000000AF9
009FC20000000000000DF7
0006EFA52000000003BFD1
000029FFFFDCBBCDFFFD30
00000016ADFFFFFFFB6000
0000000000134432000000
ENDCHAR
STARTCHAR T
ENCODING 84
SWIDTH 581 0
DWIDTH 21 0
BBX 24 23 0 0
BITMAP
777777665543220000000000
9FFFFFFFFFFFFFFEDBA85200
002479BCDEFFFFEEFFFFFFC5
00000000000DF1001369DFFE
00000000000CF00000000133
00000000000BF10000000000
00000000000AF20000000000
000000000009F30000000000
000000000008F50000000000
000000000006F70000000000
000000000005F90000000000
000000000004FB0000000000
000000000002FD0000000000
000000000001FF0000000000
000000000000EF2000000000
000000000000DF5000000000
000000000000BF7000000000
0000000000009FA000000000
0000000000007FC000000000
0000000000005FF200000000
0000000000002FF900000000
0000000000000DFF10000000
00000000000005EE20000000
ENDCHAR
STARTCHAR U
ENCODING 85
SWIDTH 571 0
DWIDTH 21 0
BBX 19 20 1 0
BITMAP
04700000000000200000
3FF20000000001F30000
9F500000000005F80000
CC000000000007FB0000
EB000000000008FD0000
FA000000000007FE0000
FA000000000004FE0000
FB000000000002FF0000
EC000000000000DF1000
CE0000000000009F4000
9F1000000000006F9000
7F5000000000003FE000
3F9000000000003FF400
0EE100000000008FF900
0AF60000000003EFFE10
04FE100000004EFFFF60
00BFC1000018FF95EFB0
003EFE967AFFC3007FE0
0004EFFFFFF800000BD0
00002AEFD82000000000
ENDCHAR
STARTCHAR V
ENCODING 86
SWIDTH 421 0
DWIDTH 15 0
BBX 15 19 0 0
BITMAP
2920000000001800
4FD1000000007F30
1EF800000000CF30
0AFE00000001FF30
04FF50000005FF10
00DFB0000008FE00
007FF300000BFB00
001EFA00000EF900
0009FF20002FF600
0003FF80004FF200
0000BFE1007FD000
00004FF700AF9000
00000CFD00DF5000
000005FF52FE0000
000000CFC6F90000
0000005FFEF30000
0000000CFFB00000
00000005FF400000
00000000C8000000
ENDCHAR
STARTCHAR W
ENCODING 87
SWIDTH 703 0
DWIDTH 25 0
BBX 25 18 0 0
BITMAP
1C100000000000000000410000
6F300000000000000001FC0000
9F400000000000000000FF6000
AF600000000000000000CFD000
AF7000000000000000007FF300
9F8000000000000000002FF800
8F9000000021000000000BFC00
7FB0000000CA0000000005FF10
5FC0000000CE0000000000EF40
3FE0000000CF3000000000AF70
0FF1000000DF80000000007F90
0CF4000000FFE0000000006F90
08F8000006FFF7000000008F70
04FD00004FFFFE30000002EF30
00CF7005EFC18FE300002CFA00
004FFCCFFA1008FFA669FFD100
0007FFFF7000007FFFFFFB1000
000039A300000003BEEB500000
ENDCHAR
STARTCHAR X
ENCODING 88
SWIDTH 534 0
DWIDTH 19 0
BBX 19 22 0 -3
BITMAP
000C3000000000000000
000DD100000000005A80
0008F8000000002CFE50
0001EF20000003EFB100
00005FB000003EF70000
00000AF40004EE400000
000001ED107FD2000000
0000007FDDFC10000000
0000001FFFC100000000
0000002FFE1000000000
000001DFFF4000000000
00000AFDEFC000000000
00007FD13EF800000000
0003FE2003FF40000000
001DF600006FE2000000
009FB000000AFC000000
03FE20000001CF800000
0AF7000000002DF30000
1FE10000000002DA0000
3F800000000000000000
3E100000000000000000
01000000000000000000
ENDCHAR
STARTCHAR Y
ENCODING 89
SWIDTH 403 0
DWIDTH 15 0
BBX 14 25 0 -1
BITMAP
01000000000000
5E100000000000
5F70000000009A
2FE100000000FC
0BFA00000002FB
04FF60000007F9
009FF500000DF5
000AFF50005FF1
00009FFA30CFB0
000005EFFFFF60
00000019FFFF10
000000002EF900
000000000EF300
000000004FD000
000000009F7000
00000000DF2000
00000003FB0000
00000006F70000
00000009F40000
0000000BF20000
0000000DF00000
0000000DF00000
0000000DF00000
0000000DF10000
00000004600000
ENDCHAR
STARTCHAR Z
ENCODING 90
SWIDTH 571 0
DWIDTH 21 0
BBX 20 23 0 0
BITMAP
00014443100000000000
05CFFFFFFD9200000000
3FFFB868AEFF60000000
4A610000006EF5000000
000000000003EE000000
0000000000008F400000
0000000000004F600000
0000000000005F700000
0000000000008F400000
000000000000DE000000
00000000001AFE310000
000000468BEFFFFFEC40
00009FFFFFFFFFFEFB30
0001ECB98EFFC4012000
0000000009FB10000000
000000001DD100000000
000000009F5000000000
00000006FA0000000000
0000003FF20000000000
000000BF8000000269A9
000000EF70136AEFFFFD
000000BFFFFFFFFFFC82
0000003DFFFEDB952000
ENDCHAR
STARTCHAR bracketleft
ENCODING 91
SWIDTH 477 0
DWIDTH 17 0
BBX 20 30 0 -4
BITMAP
00000000000002451000
00000000148BEFFF7000
0000016BFFFFDA630000
0016BFFFEA6200000000
09FFFE94000000000000
4FFB5000000000000000
1FF30000000000000000
0CF60000000000000000
08F90000000000000000
04FE0000000000000000
00EF5000000000000000
00AF8000000000000000
006FA000000000000000
003FD000000000000000
000DF000000000000000
000BF200000000000000
0008F400000000000000
0006F600000000000000
0003F800000000000000
0001F900000000000000
0000EB00000000000000
0000BD00000000000000
00009F00000000000000
00008F20000000000000
00007F40000000000000
00006F70000000000000
00006FD5567889ABBA90
00005FFFFFFFFFFFFFF7
00002FFB876555555552
00000410000000000000
ENDCHAR
STARTCHAR backslash
ENCODING 92
SWIDTH 430 0
DWIDTH 16 0
BBX 15 20 0 0
BITMAP
4300000000000000
8E30000000000000
2FE2000000000000
09FD100000000000
01DFC10000000000
003FFB0000000000
0006FF9000000000
00009FF700000000
00001CFF50000000
000002EFE3000000
0000004FFD100000
00000008FFB00000
00000000BFF80000
000000001DFF4000
0000000003EFD100
00000000005FF900
000000000008FF30
000000000000EFA0
000000000000AFD0
0000000000004E60
ENDCHAR
STARTCHAR bracketright
ENCODING 93
SWIDTH 430 0
DWIDTH 16 0
BBX 15 34 0 -4
BITMAP
5BDCB97420000000
3BFFFFFFFFA20000
001479CEFFFE1000
0000000037EF9000
00000000008FD000
00000000002FF200
00000000000DF500
000000000009F800
000000000006F900
000000000003F900
000000000001FA00
000000000000EB00
000000000000DC00
000000000000BD00
000000000000AD00
0000000000009E00
0000000000008F00
0000000000008F10
0000000000008F20
0000000000007F30
0000000000007F30
0000000000007F40
0000000000007F50
0000000000007F60
0000000000007F70
0000000000007F80
0000000000007F90
0000000000007FA0
0000000000007FA0
0000000000007FB0
001444444444AFC0
00AFFFFFFFFFFFD0
008FFFFFFFFFFFB0
0015666666666510
ENDCHAR
STARTCHAR asciicircum
ENCODING 94
SWIDTH 375 0
DWIDTH 14 0
BBX 11 8 1 19
BITMAP
000004200000
00001FE10000
00006FFB0000
0000DFFF9000
0009FEFFF700
00AFE25EFF20
1BFE4005FF70
1DC300005E70
ENDCHAR
STARTCHAR underscore
ENCODING 95
SWIDTH 656 0
DWIDTH 24 0
BBX 22 4 1 0
BITMAP
9BA8631000000000000000
6CFFFFFFEDCCBAAAAAAA92
00258ACEFFFFFFFFFFFFFD
00000000135679ABCDEEFC
ENDCHAR
STARTCHAR grave
ENCODING 96
SWIDTH 172 0
DWIDTH 6 0
BBX 6 5 0 15
BITMAP
3D8100
0BFD20
01BFD2
000AF8
000031
ENDCHAR
STARTCHAR a
ENCODING 97
SWIDTH 505 0
DWIDTH 18 0
BBX 18 18 0 0
BITMAP
0000019ED920000000
00000AFFFFF8000000
00000A8249FFB00000
00000000003DFA0000
000000000002EF6000
0000000000006FE100
0000000110000EF800
00017CFFFEB83CFE00
004EFFFECBEFFFFF50
04FFD6200016DFFF90
0DF7000000001BFFC0
3FA00000000000CFF0
4F6000000000002EF1
2FA0000000000007F0
0BFA20000000000240
02DFFC96678ACEFFF2
001AFFFFFFFFFFEA40
000027ACDEEC841000
ENDCHAR
STARTCHAR b
ENCODING 98
SWIDTH 497 0
DWIDTH 18 0
BBX 18 23 0 0
BITMAP
2B6000000000000000
9F9000000000000000
8FA000000000000000
6FC000000000000000
3FD000000000000000
1FF000000000000000
0EF200000000000000
0BF300000000000000
09F500000000000000
06F700000000000000
04FA00210000000000
01FFCFFFFC84000000
00EFFFDEFFFFC50000
00DFE300148EFFB100
00CF800000007EFC00
00AF6000000002DF80
009F40000000004FE0
007F70000000000DF2
003FD1000000000DF3
000EFB100000009FF1
0007FFE730026CFF90
0000AFFFFFFFFFF900
000005AEFFEEC83000
ENDCHAR
STARTCHAR c
ENCODING 99
SWIDTH 449 0
DWIDTH 16 0
BBX 16 16 0 0
BITMAP
000006BEFD920000
0002CFECBDFE4000
002EF710006FB000
00DF5000000AB000
07F9000000057000
0DF2000000021000
2FD0000000000000
4FB0000000000000
4FB0000000000000
3FC0000000000000
1FF2000000000000
0BFA000000000000
03FF910000000000
007FFE8531000010
0006EFFFFFFFFFF2
000016ADEFFEDA40
ENDCHAR
STARTCHAR d
ENCODING 100
SWIDTH 524 0
DWIDTH 19 0
BBX 18 26 0 0
BITMAP
000000000001C30000
000000000003FE1000
000000000002FF8000
000000000000EFE100
000000000000AFF500
0000000000006FF900
0000000000001FFC00
0000000000000CFF10
00000000000009FF40
00000000000006FF60
00018DEDA40003FF80
001CFFFFFFC301FFA0
00BFFFCACFFF91FFC0
04FFD400028FFDFFE0
0BFE20000002CFFFF0
0FF8000000001BFFF1
3FF20000000002FFF2
4FE00000000004FFF4
4FD00000000008FFF5
3FF1000000002EFFF6
0EF500000001CFFFF7
0AFB0000001CFE6EF9
04FF400005DFE309FB
00AFF968DFFD3003FE
001DFFFFFFA1000066
00019EED9200000000
ENDCHAR
STARTCHAR e
ENCODING 101
SWIDTH 515 0
DWIDTH 19 0
BBX 18 19 0 0
BITMAP
000000489720000000
00005EFFFFF7000000
0008FE8427FF600000
007FC200005FD00000
02EE1000000CF10000
08F600000009F30000
0DE00000000CF20000
2FC00000009FC00000
4FA000005DFE300000
5FA5978DFFD3000000
4FB7FFFFC600000000
2FD034310000000000
0DF200000000000000
08F800000000000000
01EF50000000000000
004FF9200000000000
0005EFFC8644456793
00002BFFFFFFFFFE60
00000038CEFEC95000
ENDCHAR
STARTCHAR f
ENCODING 102
SWIDTH 376 0
DWIDTH 14 0
BBX 18 26 -1 0
BITMAP
000000000244100000
00000002BFFFFA2000
0000003EFFCAEFE500
000000DFA2001BFF40
000006FA000000AFE1
00000BE10000000AF4
00001F800000000010
00003F400000000000
00006F200000000000
00008F300000000000
00009F500000000000
0000AF700000000000
0000AF800000000000
00009FA00000000000
0046BFEA8754300000
2DFFFFFFFFFFF80000
3CA74EFFACDDA30000
000007FF1000000000
000001EF5000000000
0000008FC000000000
0000001EF600000000
00000008FE10000000
00000001FFB0000000
000000009FF5000000
000000001EFB000000
0000000003DC000000
ENDCHAR
STARTCHAR g
ENCODING 103
SWIDTH 366 0
DWIDTH 13 0
BBX 19 33 -5 -18
BITMAP
000000000016AC600000
0000000004EFFFF60000
000000006FE845EE1000
00000004FD20006F7000
0000000DF200003FC000
0000006F8000002FF100
000000CF2000002FF300
000002FC0000002FF500
000004FB0000003FF700
000004FC0000007FF800
000002FF300002EFF900
000000BFD4126DFFFA00
0000002DFFFFFFFFFB00
00000001AFFFC51EFC00
000000000142000BFC00
0000000000000008FD00
0000000000000005FD00
0000000000000003FE00
0000000000000001FE00
0000000000000000FF00
0000000000000000EF10
0000000000000000CF20
0000000000000000CF30
6F20000000000000DF20
BF10000000000000FF00
9F30000000000002FD00
5FC1000000000005FB00
0BFD40000000000AF700
01CFFC500000002FF300
0019FFFE941001CFC000
00003BFFFFFDCEFF4000
00000028DFFFFFF70000
00000000015787200000
ENDCHAR
STARTCHAR h
ENCODING 104
SWIDTH 427 0
DWIDTH 15 0
BBX 16 26 -1 0
BITMAP
0400000000000000
6F30000000000000
5F90000000000000
2FE0000000000000
0DF4000000000000
0AF9000000000000
06FD000000000000
02FF100000000000
00EF200000000000
00BF401442000000
009F79FFFFB20000
007FFFFFFFFE2000
005FFF9558DFC000
004FD200001BF600
002FB0000001ED00
000FC00000008F30
000ED00000004F70
000DF00000002FA0
000CF20000002FC0
000BF40000002FE0
000AF60000003FF1
000AF80000003FF1
0009FA0000004FF0
0007FB0000005FE0
0005FA0000006FB0
0002D60000004E40
ENDCHAR
STARTCHAR i
ENCODING 105
SWIDTH 174 0
DWIDTH 6 0
BBX 6 22 0 0
BITMAP
481000
8F9000
298000
000000
000000
000000
009900
00BE00
00CE00
00CF00
00CF20
00BF50
00AF70
00AFA0
008FD0
007FF1
005FF3
003FF6
001FF8
000DF9
0009F9
0003E4
ENDCHAR
STARTCHAR j
ENCODING 106
SWIDTH 200 0
DWIDTH 7 0
BBX 13 38 -4 -17
BITMAP
00000CC1000000
00000CF5000000
000003B4000000
00000000000000
00000000000000
00000000000000
00000002000000
0000001F500000
0000001FC00000
0000000EF20000
0000000DF60000
0000000BFA0000
00000008FE0000
00000006FF2000
00000003FF5000
00000000FF8000
00000000CFB000
000000009FD000
000000006FF100
000000003FF300
000000001FF500
000000000EF700
000000000BF900
0000000009FA00
0000000007FC00
D500000004FD00
ED10000002FE00
BF60000001FF00
7FD0000000FF00
2FF6000000EF10
09FD100000EF00
02EF800000EF00
005FF50000FE00
0008FF7104FC00
00008FFECFF900
000005EFFFF400
00000018DFA000
00000000020000
ENDCHAR
STARTCHAR k
ENCODING 107
SWIDTH 403 0
DWIDTH 15 0
BBX 15 22 0 0
BITMAP
E100000000000000
E700000000000000
CC00000000000000
AF10000000000000
7F50000000000000
5F90000000210000
2FC000001BF60000
0EF00000BFA00000
0CF30007FA000000
09F6002EA0000000
06F801CB00000000
04FC7DD100000000
02FFFF3000000000
01FFF80000000000
00EFF20000000000
00EFF20000000000
00EFFA0000000000
00EFFFB200000000
00EFCCFF94000000
01FF107FFFEB8610
03FD0002AFFFFF30
01D90000039BA600
ENDCHAR
STARTCHAR l
ENCODING 108
SWIDTH 120 0
DWIDTH 4 0
BBX 4 22 0 -1
BITMAP
0D70
0FE0
0FF1
0FF2
0FF2
0FF3
0FF3
1FF4
1FF4
1FF4
1FF5
1FF5
1FF5
1FF5
0FF5
0FF5
0EF5
0DF4
0CF3
0AF1
09D0
0010
ENDCHAR
STARTCHAR m
ENCODING 109
SWIDTH 750 0
DWIDTH 27 0
BBX 25 16 1 0
BITMAP
00000000000000000131000000
0000231000000003BFFFB20000
B54DFFFD7000008FFFFFFE2000
FDFFFEDFFB101BFFB524CFC000
FFFE5002CFA1CFE500001DF700
EFF400001EFEFF40000005FD00
EFC0000006FFF700000000DF40
CF70000001EFE1000000008F80
BF50000000AFD0000000005FC0
AF600000005FE0000000002FE0
9F700000001FF5000000001FF0
9F800000000BFA000000002FF0
9F9000000006FD000000004FE0
8FA000000000BA000000005FD0
3FA00000000000000000006F90
03200000000000000000005E30
ENDCHAR
STARTCHAR n
ENCODING 110
SWIDTH 459 0
DWIDTH 17 0
BBX 15 16 1 0
BITMAP
000005BEE9200000
3005DFFFFFE30000
FACFE7324DFD1000
FFFC100001DF9000
FFF20000004FF200
EFA00000000BF800
EF7000000005FD00
DF7000000001FF30
BF8000000000CF60
AFA0000000009F90
8FD0000000007FC0
5FF1000000006FD0
2FF4000000005FD0
0CF8000000005FC0
05F9000000006F90
007A000000006E30
ENDCHAR
STARTCHAR o
ENCODING 111
SWIDTH 487 0
DWIDTH 18 0
BBX 17 15 0 0
BITMAP
0000016ADEFC500000
00018FFFFFFFFA0000
001CFE95228EFF9000
00CFA10000019FF400
08F90000000008FC00
0ED00000000000CF30
3F8000000000008F60
4F6000000000008F80
4F800000000000CF60
2FC00000000005FF30
0DF4000000004EFD00
06FE30000007FFF400
00AFF93116CFFF6000
0009FFFFFFFFD40000
000039DEFDA5000000
ENDCHAR
STARTCHAR p
ENCODING 112
SWIDTH 520 0
DWIDTH 19 0
BBX 18 26 0 -13
BITMAP
000000146776200000
00005BFFFFFFFC5000
001BFFFEB98AEFFA00
00BFFA40000016EFA0
06FF40000000003EF4
0DFB000000000007FB
2FFC000000000002FE
4FFD000000000001FF
5FFE0C9200000009FD
3FFF0BFFA41137DFF8
1FFF22EFFFFFFFFFB0
0EFF4017BEEFEDA500
0BFF70000000000000
08FF90000000000000
05FFB0000000000000
02FFD0000000000000
00DFF1000000000000
00AFF3000000000000
006FF5000000000000
002FF8000000000000
000DFA000000000000
0009FD000000000000
0004FF100000000000
0000EF300000000000
00008F600000000000
00001A300000000000
ENDCHAR
STARTCHAR q
ENCODING 113
SWIDTH 412 0
DWIDTH 15 0
BBX 14 30 0 -12
BITMAP
0000038CEC9200
00008FFEDFFF50
000AFC30019FF3
007FB100000BF7
02FE10000009F7
08F60000000DF5
0DE00000001FF4
2FA00000004FF3
4F700000006FF1
5F500000007FF0
4F600000008FE0
2F900000009FD0
0EE1000000BFB0
09FB000000CFA0
02EFC51126EF90
005FFFFFFFFF70
0003CFFFFFFF70
0000024411CF80
00000000008F80
00000000006F90
00000000005FA0
00000000004FC0
00000000003FD0
00000000003FE0
00000000003FF1
00000000002FF2
00000000001FF2
00000000000EF3
000000000009F3
00000000000171
ENDCHAR
STARTCHAR r
ENCODING 114
SWIDTH 346 0
DWIDTH 12 0
BBX 13 17 0 0
BITMAP
00000013200000
00028DFFFEA100
3BAFFCCEFFFC00
6FFC300026AC10
5FF20000000000
4FD00000000000
2FD00000000000
0FF00000000000
0CF20000000000
09F60000000000
06FB0000000000
02FF1000000000
00DF6000000000
009FA000000000
003FE000000000
000CF100000000
0005B000000000
ENDCHAR
STARTCHAR s
ENCODING 115
SWIDTH 514 0
DWIDTH 19 0
BBX 18 17 0 0
BITMAP
000003565100000000
0018EFFFFFB2000000
01CFFC988CFD100000
08FC2000005F600000
0AF50000001F800000
08F70000003F400000
02FE40000001000000
005FFC864310000000
00029EFFFFFEC95000
00000014689CEFFC20
00000000000004DFD0
000000000000002FF5
283000000000000EF7
1EF810000000002FF6
04EFE931000126DFE1
002CFFFFFFFFFFFE30
000038ADEFFFEB7100
ENDCHAR
STARTCHAR t
ENCODING 116
SWIDTH 328 0
DWIDTH 12 0
BBX 12 23 0 -1
BITMAP
00006E400000
00008FA00000
00007FB00000
00007FC00000
00006FC00000
00006FD00000
00007FE00000
00009FE00000
6BDEFFFFEEC4
5EFFFFFFFFF6
00357FF31100
00004FF00000
00005FF00000
00005FF10000
00005FF10000
00005FF20000
00004FF20000
00003FF30000
00002FF30000
00000FF40000
00000CF40000
000007F40000
000001A30000
ENDCHAR
STARTCHAR u
ENCODING 117
SWIDTH 501 0
DWIDTH 18 0
BBX 18 18 0 -1
BITMAP
065000000000000000
2FB000000000000000
6F90000000001C6000
7F70000000003FD000
6F60000000003FF100
5F70000000003FF300
4FA0000000003FF400
2FD0000000003FF500
0DF2000000003FF600
09F7000000007FF600
04FD10000001EFF800
00DF7000000AFFFD00
004FF400009FE6EF30
000AFF722AFD207F80
0001BFFFFFD2002FE0
000006CEE910000DF4
0000000000000009F7
000000000000000020
ENDCHAR
STARTCHAR v
ENCODING 118
SWIDTH 389 0
DWIDTH 14 0
BBX 14 14 0 0
BITMAP
26000000000000
8F900000000010
2FF40000000BF6
0AFB0000006FC0
03FF200000DF30
00BF800005FC00
004FE0000CF700
000BF5003FF200
0004FD008FB000
0000BF70DF5000
00003FF8FE0000
00000AFFF80000
000001EFE10000
0000004E600000
ENDCHAR
STARTCHAR w
ENCODING 119
SWIDTH 656 0
DWIDTH 24 0
BBX 23 16 0 0
BITMAP
001000000000000000000000
03E100000000000000000000
0BF100000000000000000000
2FE0000000000000004B2000
6FA0000000034000001EC000
9F700000000DD0000007F700
AF500000000EF1000001FE00
9F600000000FF3000000BF40
7F800000000FF50000009F70
4FB00000001FF70000007F90
0EF10000004FFB0000008FA0
08F8000001CFFF200000DF80
01EF30003DFFDFC10019FF40
005FE75AFFF72DFEBBEFFC00
0006FFFFFF7002DFFFFFD200
00003AED9300000466651000
ENDCHAR
STARTCHAR x
ENCODING 120
SWIDTH 448 0
DWIDTH 16 0
BBX 16 16 0 -2
BITMAP
A6000000000005C9
AFB0000000009FF6
2EFB1000001BFE40
03EFB00003DFC200
004FFB106EF80000
0005FFDDFE400000
00004EFFD2000000
00000AFFC1000000
00003FFFFC100000
0001DB2AFFD20000
000AD1006FFD2000
005F400005FFC100
00CC0000006FFA00
00E300000007FF60
0010000000008FE1
00000000000008A0
ENDCHAR
STARTCHAR y
ENCODING 121
SWIDTH 487 0
DWIDTH 18 0
BBX 17 34 0 -18
BITMAP
06000000000000A000
3F000000000001F200
6F200000000001F600
5F500000000001F900
4F700000000001FC00
3FA00000000000FF00
1FD00000000000EF20
0CF30000000000EF40
08F80000000000DF60
02FD0000000000DF80
009F7000000006FF90
002EE20000007FFFA0
0006FD40002AFFFFC0
00006FFDBCFFC42EC0
000004CFFFD5000BC0
000000024300000AD0
000000000000000AD0
000000000000000AE0
000000000000000BE0
000000000000000CD0
000000000000000ED0
000000000000000FC0
000000000000002FB0
000000000000004F90
000000000000006F70
001000000000009F50
05E20000000000CF20
04FD2000000001FD00
00DFD200000006F900
004FFD4000001DF300
0004EFF91001AFB000
00002BFFFCBEFE2000
0000005CFFFFE40000
000000002687100000
ENDCHAR
STARTCHAR z
ENCODING 122
SWIDTH 459 0
DWIDTH 17 0
BBX 16 19 0 0
BITMAP
0002579984000000
04CFFFFFFFC10000
3FFD77777CFA0000
2FC1000001FF1000
0110000000DF2000
0000000000EF1000
0000000002FC0000
000000000AF70000
000000005FF52100
0378ACDFFFFFFC00
0AFFFFFFFCA87200
024456EFC0000000
000009FD20000000
00006FF300000000
0002FF7000000000
000AFF30000027D4
000EFFC7579DFFF6
0009FFFFFFFFFD60
00005BEFECA73000
ENDCHAR
STARTCHAR braceleft
ENCODING 123
SWIDTH 393 0
DWIDTH 14 0
BBX 15 37 0 -4
BITMAP
0000000001100000
0000005AEFFC3000
00004DFFDABFE100
0008FFA30006F300
008FF50000004000
05FF500000000000
0DF8000000000000
3FE1000000000000
4F90000000000000
4F60000000000000
2F70000000000000
0DD1000000000000
06FA100000000000
00CFD40000000000
002DFFC500000000
0002BFFFE7100000
000002CFFFB00000
000004FFFFD00000
00007FFFDEF60000
005DFD7103FE0000
09FD600003FF2000
0460000006FF1000
000000001DF90000
00000001CFD10000
0000003DFB100000
000006FF70000000
00009FD300000000
0009FC1000000000
003FD10000000000
008F600000000000
00AF200000000000
009F400000000000
005FC10000000000
001EFB1000000000
0006FFE9669BDE20
00008FFFFFFFC400
0000037665310000
ENDCHAR
STARTCHAR bar
ENCODING 124
SWIDTH 149 0
DWIDTH 5 0
BBX 5 24 0 0
BITMAP
120000
5D0000
4F3000
3F8000
0EC000
0BF100
07F400
03F600
01F900
00EB00
00DE00
00CF10
00BF20
00AF30
00AF40
00AF50
00AF60
009F60
009F60
009F60
008F60
007F60
006FA0
004E60
ENDCHAR
STARTCHAR braceright
ENCODING 125
SWIDTH 440 0
DWIDTH 16 0
BBX 15 43 0 -9
BITMAP
29CDDCCCB8100000
AFFFEDEFFFE40000
9F8300014AFF3000
2DFF1000009FB000
01440000004FF100
00000000003FF200
00000000005FF100
0000000002DF9000
000000002DFD1000
00000002DFD20000
0000002DFB100000
000002DF80000000
00002DF700000000
0000BF8000000000
0000EF2000000000
0000DF5000000000
00008FFEDDDD8000
00005FFFFFFFC000
00007FE865431000
00009F3000000000
00008F7000000000
00003FF500000000
000007FF40000000
0000007FE3000000
00000005FE200000
000000004FC00000
0000000008F80000
0000000000DF2000
00000000004FB000
00000000000AF400
000000000003FC00
000000000000AF20
0000000000005F80
0000000000000FB0
0000000000000DD0
0000000000000ED0
0000000000003FC0
B70000000000AF80
DF4000000006FF20
7FFB3000018FF700
09FFFB88AEFF8000
004AEFFFFD930000
0000012210000000
ENDCHAR
STARTCHAR asciitilde
ENCODING 126
SWIDTH 402 0
DWIDTH 14 0
BBX 14 6 0 14
BITMAP
00276100000161
04EFFE70002CF3
1ED219FD79EE40
3F70004DFFE300
1F500000562000
04200000000000
ENDCHAR
STARTCHAR nonbreakingspace
ENCODING 160
SWIDTH 375 0
DWIDTH 14 0
BBX 1 1 0 0
BITMAP
00
ENDCHAR
STARTCHAR exclamdown
ENCODING 161
SWIDTH 149 0
DWIDTH 5 0
BBX 5 25 0 -1
BITMAP
1DFB30
3FFFB0
08EE40
000000
000000
000000
000000
017200
04F700
06F700
06F700
07F600
07F600
07F500
07F500
07F500
07F400
07F400
07F400
07F400
07F300
07F300
07F300
07F200
001000
ENDCHAR
STARTCHAR cent
ENCODING 162
SWIDTH 449 0
DWIDTH 16 0
BBX 16 23 0 -3
BITMAP
0000000200000000
0000000E30000000
0000000EA0000000
0000000DD0000000
0000049EFB710000
0002BFFEFFFE3000
002DF926F78FB000
00CF7005F80AC000
06FA0005FA058000
0DF30004FC022000
2FD00004FC000000
4FB00004FD000000
5FA00004FD000000
4FC00004FD000000
2FF10004FD000000
0DF90003FD000000
07FF8003FC000000
01DFFD86FD000000
002CFFFFFFEEEFF3
00006BFFFFECB950
00000003FB000000
00000001F4000000
0000000010000000
ENDCHAR
STARTCHAR sterling
ENCODING 163
SWIDTH 758 0
DWIDTH 27 0
BBX 27 27 0 -1
BITMAP
000000000000000003ADFFC60000
00000000000000008FFFFFFFB100
0000000000000006FE83115EFA00
000000000000001ED2000002EF10
000000000000008F300000007F40
00000000000000EB000000001E40
00000000000005F5000000000100
0000000000000BE0000000000000
0000000000002FA0000000000000
000000000001CFA3333331000000
00000000025CFFFFFFFFF9000000
0000037AEFFFFFFFECCDF8000000
00002FFFEDCEFFC3000021000000
000007530004FE10000000000000
000000000004F600000000000000
000000000006F100000000000000
00000000000BB000000000000000
00000000001F7000000000000000
00000000007F3000000000000000
0000000001EE0000000000000000
0000000008F80000000000000000
17BBBA988FF96554200000000000
8FFFFFFFFFFFFFFFFC4000000000
8FFFFFFFFFFFFFFFFFE100000000
3EFFFFFF92002345541000000000
03AEFE9200000000000000000000
0000100000000000000000000000
ENDCHAR
STARTCHAR currency
ENCODING 164
SWIDTH 618 0
DWIDTH 22 0
BBX 20 20 1 0
BITMAP
10000000000000000000
CC300000000000000052
5FF6000169CEEB402CF6
08FF917EFFFFFFF9EF70
009FFEFFEB88BFFFF800
000AFFD60000018FF300
0008FC1000000004EB00
001EE100000000007F20
004F8000000000002F60
006F5000000000002F70
005F5000000000005F50
003F800000000000CF30
000DD10000000007FC00
0006F9000000007FF300
0004FFA200002AFF6000
001DFDFFCAACFFFA0000
008FD149CEEDA6EF5000
00EF40000000003EF500
02F6000000000003E900
00100000000000001000
ENDCHAR
STARTCHAR yen
ENCODING 165
SWIDTH 389 0
DWIDTH 14 0
BBX 15 28 0 -1
BITMAP
04C2000000000000
07FC000000002630
01EF40000001EF40
009F90000009FA00
002FD000003FF300
000BF20000BFA000
0004F60005FF3000
0000CB000CFA0000
00006F305FF30000
00000EB0AFA00000
000008FAFF300000
000001FFFA000000
000000AFF3000000
0000004FC0000000
0000004FA0000000
5DEEFFFFEC950000
04678ADFEEFF4000
0000009F70110000
000000BF60000000
06ACDDEFEDA30000
08FFFFFFFFFC0000
001123FF63300000
000002FF30000000
000003FF20000000
000005FF10000000
000006FF00000000
000008FE00000000
0000023200000000
ENDCHAR
STARTCHAR brokenbar
ENCODING 166
SWIDTH 117 0
DWIDTH 4 0
BBX 4 22 0 -1
BITMAP
0730
0FC0
0FF1
0EF1
0EF1
0EF0
0EE0
0ED0
0EC0
0760
1650
3FE0
3FF0
3FF0
2FF0
2FF1
1FF1
0EF1
0DF1
0BF1
08F0
0040
ENDCHAR
STARTCHAR section
ENCODING 167
SWIDTH 514 0
DWIDTH 19 0
BBX 18 24 1 0
BITMAP
00028BCCA730000000
009FFFFFFFFC400000
07FFB7667AEFF90000
0EF500000018FF8000
0EF1000000006EF300
0AF500000000027200
03FE71000000000000
004EFFDB9753100000
018EFFFFFFFFFC7100
1DFFEBA87667BFFD20
8FF50000000002DFB0
BFA000000000004FF1
9F8000000000003FF3
4FE500000000009FF1
09FFD96555567CFF70
006DFFFFFFFFFFE700
0000368AAACEFFC200
0000000000005DFD00
00000000000003FF50
5A200000000000EF70
2FE70000000002FF60
05FFD72000126DFE10
004DFFFFFFFFFFE300
000049CEEFFEB71000
ENDCHAR
STARTCHAR dieresis
ENCODING 168
SWIDTH 397 0
DWIDTH 14 0
BBX 10 4 2 15
BITMAP
09C4002CA1
6FFE00CFF8
5FFC00BFF7
0571001750
ENDCHAR
STARTCHAR copyright
ENCODING 169
SWIDTH 667 0
DWIDTH 24 0
BBX 23 22 1 -1
BITMAP
000000000100000000000000
0000029DFFFEB72000000000
00006EFEDEFFFFFA20000000
0006FD4000149EFFF7000000
004FC1000021006EFF900000
01DE10003BFFD701AFF80000
08F60007FE9AEFA007FF4000
0EE0006FA1002DF1008FD000
5F8001EB000005F1000BF500
9F3007F4000000B00003FB00
BF000BF2000000200000CF10
BE000DF10000000000008F40
AF100EF20000000000005F60
8F600CF50000000000005F70
4FC008FB0000000000005F70
0DF702EFA32234554000BF40
06FF603DFFFFFFFFE01AFC00
00AFF910479ABBA748EFE200
001BFFE72000148CFFFA1000
00007EFFFDCDFFFFD9200000
0000017CFFFEC96300000000
000000000110000000000000
ENDCHAR
STARTCHAR ordfeminine
ENCODING 170
SWIDTH 266 0
DWIDTH 10 0
BBX 9 10 0 8
BITMAP
0008A40000
00297E6000
000002E300
0000007B00
01AEFCAF20
0D9302BF60
4A00000B90
4A00000280
0CB6568A60
017CEEB610
ENDCHAR
STARTCHAR guillemotleft
ENCODING 171
SWIDTH 755 0
DWIDTH 27 0
BBX 25 17 0 0
BITMAP
00000000000000000000005DB0
000000000000000000003CFE60
000000000000005A1007FFB200
0000000000004CFD32CFE60000
000000000019FF916EFB200000
0000000003DFE41AFE60000000
000000008FFA15EFB200000000
0000002CFE519FE50000000000
000006EFA11CFC200000000000
0001BFD401CFB1000000000000
004EFA101CFFD8410000000000
04EF80002DFFFFFFEBA7410000
4EFE51000047ADFFFFFFFF9200
CFFFFFDB864100024579DFFB00
16BEFFFFFFFFD8100000049600
000014689BDFFFE10000000000
0000000000016CE20000000000
ENDCHAR
STARTCHAR logicalnot
ENCODING 172
SWIDTH 369 0
DWIDTH 13 0
BBX 12 6 1 9
BITMAP
366667777773
AFFFFFFFFFF6
798876666AF6
0000000006F5
0000000008F4
0000000007E2
ENDCHAR
STARTCHAR hyphen_
ENCODING 173
SWIDTH 375 0
DWIDTH 14 0
BBX 13 4 0 8
BITMAP
00035566776100
07EFFFFFFFFE10
5FFFECA99ACD10
24310000000000
ENDCHAR
STARTCHAR registered
ENCODING 174
SWIDTH 708 0
DWIDTH 25 0
BBX 23 21 1 0
BITMAP
000000379AA9620000000000
00001AFFFFFFFFC600000000
0002DFA54469DFFFC3000000
001DE400000004BFFE500000
009F600134431004DFF40000
03FB2AFFFFFFFD821BFE2000
0BF2AFC7554458EF50BFB000
2FB089037000006FE11DF400
7F601209F400006FF305FA00
AF200009F70002CFD000DF10
AF000008FECCDFFB20008F40
9F100007FECB962000005F70
8F400005FF91000000004F80
5FA00003FAED200000004F80
1EF40001F93DE50000007F70
08FE3000DC01BF910004FF20
01DFE4009C0007FC329FF700
002EFFA30000004EFFFE6000
0002CFFFC868ADFFFE810000
000006CFFFFFFFC940000000
000000025675300000000000
ENDCHAR
STARTCHAR macron
ENCODING 175
SWIDTH 287 0
DWIDTH 10 0
BBX 10 4 1 16
BITMAP
0134566520
4EFFFFFFF4
AFFDA9ACE5
4410000000
ENDCHAR
STARTCHAR degree
ENCODING 176
SWIDTH 254 0
DWIDTH 9 0
BBX 8 10 0 10
BITMAP
004BEB20
06F98EB0
2E2002E4
76000069
A200003B
A200005B
950000A9
5C1006F4
0CC6AFA0
01AED800
ENDCHAR
STARTCHAR plusminus
ENCODING 177
SWIDTH 459 0
DWIDTH 17 0
BBX 17 17 0 1
BITMAP
000000210000000000
000000EB0000000000
000000DF1000000000
000000BF5000000000
0000007F9000000000
0000005FD000000000
0000004FF953100000
00148BEFFFFFFEDA10
4DFFFFFFFFFFFFFB00
4CB9643DFC33333100
0000000BFC00000000
00000008FC00000000
00000006FC00000000
00000004FC00000000
0000357BFFEEDC9200
007EFFFFFFFFFFFA00
01DCB9753222233100
ENDCHAR
STARTCHAR twosuperior
ENCODING 178
SWIDTH 296 0
DWIDTH 11 0
BBX 10 12 0 8
BITMAP
00002AA100
0000B79B00
0000C01E20
0000200B60
0000000970
0000000B60
0000000E40
0000003E00
131000A600
AFFA58C000
6FFFFFE740
0588768CE1
ENDCHAR
STARTCHAR threesuperior
ENCODING 179
SWIDTH 204 0
DWIDTH 7 0
BBX 9 12 -1 10
BITMAP
04AAA70000
0B966B8000
010001D000
000019A000
0069EB1000
02CFFA1000
00027DC100
000000B900
0900001F10
1DA0000E20
01CC548E00
0018DFC300
ENDCHAR
STARTCHAR acute
ENCODING 180
SWIDTH 180 0
DWIDTH 7 0
BBX 6 6 0 14
BITMAP
000047
0008FA
02CFC1
2DFB10
9F9000
780000
ENDCHAR
STARTCHAR mu
ENCODING 181
SWIDTH 501 0
DWIDTH 18 0
BBX 18 20 0 -3
BITMAP
0A9000000000000000
4FB000000000021000
7F80000000002F9000
7F60000000003FE000
6F60000000003FF200
6F80000000003FF300
6FB0000000003FF400
6FE0000000003FF500
6FF4000000004FF600
6FF9000000009FF700
7FFF20000004FFF900
7FFFA000001DFFFE00
7FCFF80001DFE5FF50
7F7CFFC77EFF40CFA0
7F71AFFFFFE5006FF1
7F60028CC820001EF6
7F60000000000006C5
7F6000000000000000
7F6000000000000000
220000000000000000
ENDCHAR
STARTCHAR paragraph
ENCODING 182
SWIDTH 413 0
DWIDTH 15 0
BBX 14 20 0 -1
BITMAP
00002445555200
002BFFFFFFFF60
01DFFFFFFFFFC0
09FFFFFFFFFFF0
0EFFFFFFFF7EF2
3FFFFFFFFF1AF4
4FFFFFFFFF09F6
3FFFFFFFFD08F7
0DFFFFFFFD08F8
0168767AFC08F8
00000003FB09F9
00000002FB09F9
00000002FA09F9
00000002FA0AF9
00000002FA0AF9
00000002FA0AF8
00000002FB0AF7
00000002FC09F5
00000000FD08F2
000000006505C0
ENDCHAR
STARTCHAR periodcentered
ENCODING 183
SWIDTH 212 0
DWIDTH 8 0
BBX 6 5 1 6
BITMAP
006400
09FF90
2FFFF1
1DFFC0
029710
ENDCHAR
STARTCHAR cedilla
ENCODING 184
SWIDTH 445 0
DWIDTH 16 0
BBX 10 12 5 -11
BITMAP
0B30000000
0F90000000
0F90000000
0CD1000000
04FD852000
003AEFFD50
0000027EF4
00000004FA
4A300001FC
1DF80003FA
02EFC99DD2
002AFFD810
ENDCHAR
STARTCHAR onesuperior
ENCODING 185
SWIDTH 197 0
DWIDTH 7 0
BBX 8 14 -1 8
BITMAP
000000A6
000000E6
000003F4
00000AF2
00009FF1
0009FFE0
009E7FC0
08F51FA0
5F502F80
23004F50
00005F30
00006F00
00007C00
00005800
ENDCHAR
STARTCHAR ordmasculine
ENCODING 186
SWIDTH 254 0
DWIDTH 9 0
BBX 8 10 0 10
BITMAP
004BEB20
06F98EB0
2E2002E4
76000069
A200003B
A200005B
950000A9
5C1006F4
0CC6AFA0
01AED800
ENDCHAR
STARTCHAR guillemotright
ENCODING 187
SWIDTH 659 0
DWIDTH 24 0
BBX 22 18 1 0
BITMAP
0000000045000000000000
77100000EFC10000000000
EFD200005EFE6100000000
3EFE820002CFFEA5000000
01AFFFB61005CFFFEA6310
0003AFFFFC85239DFFFFE2
0000017BFFFFF20024CFF4
0000000002CFF40000CFF2
0000000000DFE10009FF60
000000000AFF5000AFF600
00000001BFE4002CFE5000
0000004EFD3006EFC20000
000019FFA102BFF8000000
0003DFE6005EFD40000000
007FFC2009FFA100000000
1BFF8000AFE60000000000
CFE40000EC200000000000
DA10000010000000000000
ENDCHAR
STARTCHAR onequarter
ENCODING 188
SWIDTH 626 0
DWIDTH 23 0
BBX 21 28 0 -1
BITMAP
0000000000041000000000
00000000000D4000000000
00000000002F3000000000
00000083004F1000000000
000000F4006E0000000000
000003F3008B0000000000
000009F100C80000000000
00007FE001F50000000000
0006FFD005F20000000000
005F9FB009E00000000000
05F62F900DB00000000000
3F803F601F700000000000
14004F405F400000000000
00005F209F002200000000
00006E00DB01E800000000
00007B02F806F400000000
00006706F40BD000000000
0000000AF10E6000000780
0000000EB01F3000001E90
0000003F700F300000AF60
0000006F300D800008FF20
000000BE0007F724BFFF00
000001FA0000AFFFF8AF00
000006F500000576106F20
00000BF100000000006F40
00000EB000000000005F60
00002F6000000000002F40
00000C1000000000000000
ENDCHAR
STARTCHAR onehalf
ENCODING 189
SWIDTH 566 0
DWIDTH 20 0
BBX 20 28 0 -2
BITMAP
00000000000120000000
0000006A000890000000
000000BA000C90000000
000000E9000E70000000
000002F7001F50000000
00000AF6004F20000000
00008FF4008E00000000
0006FFF300CA00000000
005FCFF101F700000000
03EB0FE005F400000000
2ED11FC009F000000000
AE302FA00EB000362000
32003F803F8005FDE200
00004F607F400B70CA00
00005F40BF000C205E00
00006F11FB0003002F30
00006D04F70000000F40
00004908F30000000F50
0000000DE00000003F30
0000002FA00000006F10
0000006F60000000AA00
000000AF10000001E300
000001FC2DEA400A8000
000006F73FFFFDDF4000
00000BF20BFFFFFFFB80
00001FC0005765459DE1
00003F60000000000000
00001C10000000000000
ENDCHAR
STARTCHAR threequarters
ENCODING 190
SWIDTH 566 0
DWIDTH 20 0
BBX 20 28 0 -3
BITMAP
00000000000250000000
000000000008A0000000
00000000000B90000000
01333000000D70000000
2FFEEB00000F50000000
18000A50003F20000000
00000970006E00000000
00029D2000AB00000000
05CFF20000E800000000
03AEF90003F422000000
00005DA007F1B8000000
000001D50BD1F5000000
570000790E94F1000000
4E60006B3F67A0000053
04EA56D77F29700000C6
003BEE90BE09600004F4
00000000EA0880000DF2
00000004F604E100AFE0
00000008F200DC9DFED0
0000000BD0003EFE65E0
0000001F9000013104F0
0000004F5000000004F3
000000AF1000000003F4
000000EC0000000001E2
000004F7000000000000
000008F3000000000000
00000AC0000000000000
00000760000000000000
ENDCHAR
STARTCHAR questiondown
ENCODING 191
SWIDTH 272 0
DWIDTH 10 0
BBX 11 27 0 0
BITMAP
08E700000000
0AFA00000000
014100000000
000000000000
000000000000
000000000000
000000000000
000000000000
000000000000
036653000000
0AFFFFC30000
01469EFB0000
00000AFA0000
00005FF50000
0002EFC00000
000BFF300000
006FF8000000
01EFC0000000
07FF30000000
0CFA00000000
0FF400000000
1FF100000000
0EF200000000
0AF700000000
02EF82003B40
004EFFFFFE20
00016ACB7100
ENDCHAR
STARTCHAR Agrave
ENCODING 192
SWIDTH 562 0
DWIDTH 20 0
BBX 20 33 0 0
BITMAP
00000005D70000000000
00000001DFB100000000
000000002DFC10000000
0000000001BF60000000
00000000000400000000
00000001454100000000
000002AFFFFE91000000
00003EF9669EFC100000
0001DE300002BFC00000
0008F40000001CF70000
000EB000000002EE1000
003F50000000007F7000
007F10000000001FD000
00AD00000000000AF300
00CA000000000004F800
00E8000000000001FC00
00F7000000000000CF00
01F60000000000009F30
02F50000000000007F70
03F50000000000006F90
04F62100000000008FB0
1BFFFFFEDCBBA987DFD0
2EFFB98889ACEFFFFFF0
05FB0000000000212FF1
00FA0000000000000EF2
00FB0000000000000CF3
00FD0000000000000CF4
00FF0000000000000CF4
00DF3000000000000DF4
00BF6000000000001FF3
009F8000000000004FF2
004FA000000000006FF0
000B9000000000006E60
ENDCHAR
STARTCHAR Aacute
ENCODING 193
SWIDTH 562 0
DWIDTH 20 0
BBX 20 34 0 0
BITMAP
00000000074000000000
00000002BF5000000000
0000004EF80000000000
000005FF700000000000
00000DF5000000000000
00000A40000000000000
00000001454100000000
000002AFFFFE91000000
00003EF9669EFC100000
0001DE300002BFC00000
0008F40000001CF70000
000EB000000002EE1000
003F50000000007F7000
007F10000000001FD000
00AD00000000000AF300
00CA000000000004F800
00E8000000000001FC00
00F7000000000000CF00
01F60000000000009F30
02F50000000000007F70
03F50000000000006F90
04F62100000000008FB0
1BFFFFFEDCBBA987DFD0
2EFFB98889ACEFFFFFF0
05FB0000000000212FF1
00FA0000000000000EF2
00FB0000000000000CF3
00FD0000000000000CF4
00FF0000000000000CF4
00DF3000000000000DF4
00BF6000000000001FF3
009F8000000000004FF2
004FA000000000006FF0
000B9000000000006E60
ENDCHAR
STARTCHAR Acircumflex
ENCODING 194
SWIDTH 562 0
DWIDTH 20 0
BBX 20 36 0 0
BITMAP
00000000330000000000
00000000EF3000000000
00000003FFD100000000
0000000BFFFB00000000
0000006FEEFF90000000
000007FF43DFF5000000
00009FF6002EFA000000
0000AD500003EA000000
00000001454100000000
000002AFFFFE91000000
00003EF9669EFC100000
0001DE300002BFC00000
0008F40000001CF70000
000EB000000002EE1000
003F50000000007F7000
007F10000000001FD000
00AD00000000000AF300
00CA000000000004F800
00E8000000000001FC00
00F7000000000000CF00
01F60000000000009F30
02F50000000000007F70
03F50000000000006F90
04F62100000000008FB0
1BFFFFFEDCBBA987DFD0
2EFFB98889ACEFFFFFF0
05FB0000000000212FF1
00FA0000000000000EF2
00FB0000000000000CF3
00FD0000000000000CF4
00FF0000000000000CF4
00DF3000000000000DF4
00BF6000000000001FF3
009F8000000000004FF2
004FA000000000006FF0
000B9000000000006E60
ENDCHAR
STARTCHAR Atilde
ENCODING 195
SWIDTH 562 0
DWIDTH 20 0
BBX 20 33 0 0
BITMAP
00001661000000610000
0004EFFE81001CF40000
000DE318FE78EE400000
002F80003DFFE4000000
000E6000004620000000
00033001454100000000
000002AFFFFE91000000
00003EF9669EFC100000
0001DE300002BFC00000
0008F40000001CF70000
000EB000000002EE1000
003F50000000007F7000
007F10000000001FD000
00AD00000000000AF300
00CA000000000004F800
00E8000000000001FC00
00F7000000000000CF00
01F60000000000009F30
02F50000000000007F70
03F50000000000006F90
04F62100000000008FB0
1BFFFFFEDCBBA987DFD0
2EFFB98889ACEFFFFFF0
05FB0000000000212FF1
00FA0000000000000EF2
00FB0000000000000CF3
00FD0000000000000CF4
00FF0000000000000CF4
00DF3000000000000DF4
00BF6000000000001FF3
009F8000000000004FF2
004FA000000000006FF0
000B9000000000006E60
ENDCHAR
STARTCHAR Adieresis
ENCODING 196
SWIDTH 562 0
DWIDTH 20 0
BBX 20 33 0 0
BITMAP
000003D90008C5000000
00000DFF604FFF100000
00000DFF503FFE100000
00000274000472000000
00000000000000000000
00000001454100000000
000002AFFFFE91000000
00003EF9669EFC100000
0001DE300002BFC00000
0008F40000001CF70000
000EB000000002EE1000
003F50000000007F7000
007F10000000001FD000
00AD00000000000AF300
00CA000000000004F800
00E8000000000001FC00
00F7000000000000CF00
01F60000000000009F30
02F50000000000007F70
03F50000000000006F90
04F62100000000008FB0
1BFFFFFEDCBBA987DFD0
2EFFB98889ACEFFFFFF0
05FB0000000000212FF1
00FA0000000000000EF2
00FB0000000000000CF3
00FD0000000000000CF4
00FF0000000000000CF4
00DF3000000000000DF4
00BF6000000000001FF3
009F8000000000004FF2
004FA000000000006FF0
000B9000000000006E60
ENDCHAR
STARTCHAR Aring
ENCODING 197
SWIDTH 562 0
DWIDTH 20 0
BBX 20 33 0 0
BITMAP
00000004ACA100000000
0000008D77EC00000000
000002F2002F40000000
000003E0001E50000000
000000D712BD10000000
0000003DFFE400000000
000002AFFFFF91000000
00003EF9669EFD100000
0001DE300002BFC00000
0008F40000001CF70000
000EB000000002EE1000
003F50000000007F7000
007F10000000001FD000
00AD00000000000AF300
00CA000000000004F800
00E8000000000001FC00
00F7000000000000CF00
01F60000000000009F30
02F50000000000007F70
03F50000000000006F90
04F62100000000008FB0
1BFFFFFEDCBBA987DFD0
2EFFB98889ACEFFFFFF0
05FB0000000000212FF1
00FA0000000000000EF2
00FB0000000000000CF3
00FD0000000000000CF4
00FF0000000000000CF4
00DF3000000000000DF4
00BF6000000000001FF3
009F8000000000004FF2
004FA000000000006FF0
000B9000000000006E60
ENDCHAR
STARTCHAR AE
ENCODING 198
SWIDTH 960 0
DWIDTH 35 0
BBX 34 28 0 0
BITMAP
0000000145410000000000000000000000
000002AFFFFE9100000000000000000000
00003EF9669EFC10000000000000000000
0001DE300002BFC0000000000000000000
0008F40000001CF7000000000000000000
000EB000000002EE104554433222222100
003F50000000007F72FFFFFFFFFFFFFE60
007F10000000001FD3FEDDCCBBBAA99BF2
00AD00000000000AF6FC00000000000010
00CA000000000004FBFC00000000000000
00E8000000000001FFFC00000000000000
00F7000000000000CFFC00000000000000
01F60000000000009FFC00000000000000
02F50000000000007FFC00000000134630
03F50000000000006FFD112368ADFFFE20
04F62100000000008FFFFFFFFFFFDA6100
1BFFFFFEDCBBA987DFFFB9765420000000
2EFFB98889ACEFFFFFF800000000000000
05FB0000000000212FF500000000000000
00FA0000000000000EF400000000000000
00FB0000000000000CF400000000000000
00FD0000000000000CF400000000000000
00FF0000000000000CF400000000000000
00DF3000000000000DF400000000000000
00BF6000000000001FF400000000001220
009F8000000000004FFD866789ACEFFFF9
004FA000000000006FFFFFFFFFFFFFFFD4
000B9000000000006E64ADEEEEDCB97300
ENDCHAR
STARTCHAR Ccedilla
ENCODING 199
SWIDTH 515 0
DWIDTH 19 0
BBX 18 35 0 -11
BITMAP
000000000013410000
000000003AEFFC0000
00000008FFFFFF2000
000001BFFA319F1000
00001CFC3000AB0000
0000BF900001E20000
0007F8000001200000
002F90000000000000
00BD10000000000000
03F500000000000000
09D000000000000000
0E9000000000000000
2F6000000000000000
4F5000000000000000
5F6000000000000000
4F7000000000000000
2F9000000000000000
0ED000000000000000
0AF300000000000000
05FB00000000000000
00DF800000002589B5
004FFC7578BEFFFFD2
0006FFFFFFFFFC9510
00003EFFDA63000000
00000CC00000000000
00000CC00000000000
000009F20000000000
000002EF9530000000
00000029DFFE700000
00000000026DF70000
000000000001FD0000
00002A500000DF0000
00000AFA1001FD0000
000001CFE99CE40000
00000019EFD9300000
ENDCHAR
STARTCHAR Egrave
ENCODING 200
SWIDTH 524 0
DWIDTH 19 0
BBX 18 29 0 0
BITMAP
0000003D8100000000
0000000BFC20000000
00000001BFD2000000
000000000AF8000000
000000000031000000
000000000000000000
014432211110010000
0BFFFFFFFFFFFFF910
0CFFFEEDDCCBBBBE80
0CF300000000000120
0CF400000000000000
0CF400000000000000
0CF400000000000000
0CF400000000000000
0CF400000000133400
0CF4001358ADFFF800
3FFFEFFFFFFFDA4000
2FFECA976531000000
0FE100000000000000
0FB000000000000000
1FA000000000000000
2FA000000000000000
4FA000000000000000
5FA000000000000000
4FA000000000000000
3FA000000000000100
0DE8545678ABDEFFC1
05FFFFFFFFFFFFFFA0
003ADFFFFFEDB96200
ENDCHAR
STARTCHAR Eacute
ENCODING 201
SWIDTH 524 0
DWIDTH 19 0
BBX 18 29 0 0
BITMAP
000000000182000000
000000004DF2000000
00000007FF50000000
0000008FE400000000
000002FE3000000000
000001B20000000000
014432211110010000
0BFFFFFFFFFFFFF910
0CFFFEEDDCCBBBBE80
0CF300000000000120
0CF400000000000000
0CF400000000000000
0CF400000000000000
0CF400000000000000
0CF400000000133400
0CF4001358ADFFF800
3FFFEFFFFFFFDA4000
2FFECA976531000000
0FE100000000000000
0FB000000000000000
1FA000000000000000
2FA000000000000000
4FA000000000000000
5FA000000000000000
4FA000000000000000
3FA000000000000100
0DE8545678ABDEFFC1
05FFFFFFFFFFFFFFA0
003ADFFFFFEDB96200
ENDCHAR
STARTCHAR Ecircumflex
ENCODING 202
SWIDTH 524 0
DWIDTH 19 0
BBX 18 32 0 0
BITMAP
000000000510000000
000000004FC0000000
000000009FF8000000
00000002EFFF600000
0000001BFEFFF40000
000001CFC17FFD1000
00002DFD2007FF4000
00002EB200008F4000
000000000000000000
014432211110010000
0BFFFFFFFFFFFFF910
0CFFFEEDDCCBBBBE80
0CF300000000000120
0CF400000000000000
0CF400000000000000
0CF400000000000000
0CF400000000000000
0CF400000000133400
0CF4001358ADFFF800
3FFFEFFFFFFFDA4000
2FFECA976531000000
0FE100000000000000
0FB000000000000000
1FA000000000000000
2FA000000000000000
4FA000000000000000
5FA000000000000000
4FA000000000000000
3FA000000000000100
0DE8545678ABDEFFC1
05FFFFFFFFFFFFFFA0
003ADFFFFFEDB96200
ENDCHAR
STARTCHAR Edieresis
ENCODING 203
SWIDTH 524 0
DWIDTH 19 0
BBX 18 28 0 0
BITMAP
000006D7001BB30000
00003FFF208FFC0000
00002FFE207FFB0000
000003720006610000
000000000000000000
014432211110010000
0BFFFFFFFFFFFFF910
0CFFFEEDDCCBBBBE80
0CF300000000000120
0CF400000000000000
0CF400000000000000
0CF400000000000000
0CF400000000000000
0CF400000000133400
0CF4001358ADFFF800
3FFFEFFFFFFFDA4000
2FFECA976531000000
0FE100000000000000
0FB000000000000000
1FA000000000000000
2FA000000000000000
4FA000000000000000
5FA000000000000000
4FA000000000000000
3FA000000000000100
0DE8545678ABDEFFC1
05FFFFFFFFFFFFFFA0
003ADFFFFFEDB96200
ENDCHAR
STARTCHAR Igrave
ENCODING 204
SWIDTH 167 0
DWIDTH 6 0
BBX 7 28 -1 0
BITMAP
9C500000
3FF80000
04EFA000
003DF200
00013000
00000000
00000000
00000000
06A00000
05F40000
03F90000
00FE0000
00BF3000
007F6000
003FA000
000ED000
000CF100
000AF300
0008F600
0007F800
0005FB00
0003FD00
0002FF00
0000FF20
0000DF40
0000CF50
00009F60
00002D40
ENDCHAR
STARTCHAR Iacute
ENCODING 205
SWIDTH 167 0
DWIDTH 6 0
BBX 7 27 -1 0
BITMAP
00006500
001AF700
03EF9000
4EF80000
CF600000
A5000000
00000000
06A00000
05F40000
03F90000
00FE0000
00BF3000
007F6000
003FA000
000ED000
000CF100
000AF300
0008F600
0007F800
0005FB00
0003FD00
0002FF00
0000FF20
0000DF40
0000CF50
00009F60
00002D40
ENDCHAR
STARTCHAR Icircumflex
ENCODING 206
SWIDTH 167 0
DWIDTH 6 0
BBX 10 32 -2 0
BITMAP
0000240000
00009F7000
0000DFF400
0006FFFE20
003EFEFFD1
04EF81BFF9
5FFA001BFE
6E800001BE
0000000000
0000000000
0000000000
0000000000
006A000000
005F400000
003F900000
000FE00000
000BF30000
0007F60000
0003FA0000
0000ED0000
0000CF1000
0000AF3000
00008F6000
00007F8000
00005FB000
00003FD000
00002FF000
00000FF200
00000DF400
00000CF500
000009F600
000002D400
ENDCHAR
STARTCHAR Idieresis
ENCODING 207
SWIDTH 167 0
DWIDTH 6 0
BBX 10 25 -4 0
BITMAP
1BB2004D80
9FFB01EFF5
8FFA00DFF4
0760002740
0000000000
00006A0000
00005F4000
00003F9000
00000FE000
00000BF300
000007F600
000003FA00
000000ED00
000000CF10
000000AF30
0000008F60
0000007F80
0000005FB0
0000003FD0
0000002FF0
0000000FF2
0000000DF4
0000000CF5
00000009F6
00000002D4
ENDCHAR
STARTCHAR Eth
ENCODING 208
SWIDTH 741 0
DWIDTH 27 0
BBX 26 24 0 -1
BITMAP
00014689986410000000000000
05CFFFFFFFFFFB710000000000
3FFEB97766FFFFFFA300000000
1A30000000CFA38EFFA2000000
00000000008FB0017EFE500000
00000000005FD00001AFF80000
00000000002FE0000006FF9000
00000000000EF10000004FF700
00000000000CF200000006FF20
00000000000AF412320000BFA0
0000000018CFFFFFFFD3002FF1
00000000BFFFFFEDEFF7000BF6
000000019976FA0001310007F8
000000000000ED0000000006FA
000000000000DF1000000007F9
000000000000DF400000000AF8
000000000000CF500000002FF4
000000000000CF40000000CFD0
000000000000CF3000000AFF60
00000000000078000002CFFB00
000000003FC73000039FFFB100
000000001EFFFEBCEFFFF70000
00000000029EFFFFFFD8100000
00000000000035654100000000
ENDCHAR
STARTCHAR Ntilde
ENCODING 209
SWIDTH 609 0
DWIDTH 22 0
BBX 20 25 1 0
BITMAP
00000166100000061000
00003EFFE81001BF5000
0000DE318FE88DF50000
0001F80003DFFF400000
0000E600000462000000
03003300000000000000
9F400000000000000000
7F7000000000005C3000
6FB000000000007FD100
4FF100000000004FF800
4FF500000000000EFE10
4FFA000000000006FF60
5FFE100000000000DFC0
6FFF7000000000005FF2
7FFFD000000000000CF6
8FFFF5000000000006FA
9F44FC000000000002FD
BF10AF600000000001FE
CF102EE20000000002FE
DF2006FD1000000005FC
EF3000BFC20000000CF7
EF50001CFE710001AFE1
FF600002DFFECABFFF40
EF50000019FFFFFFD400
8D100000002699840000
ENDCHAR
STARTCHAR Ograve
ENCODING 210
SWIDTH 609 0
DWIDTH 22 0
BBX 21 25 0 0
BITMAP
000000000DA30000000000
0000000007FE4000000000
00000000008FF500000000
000000000006FD00000000
0000000000002200000000
0000000000000000000000
0000000000000000000000
0000014630000000000000
0002AFFFFFB61000000000
003EFDABDFFFE820000000
01EF7000015BFFF7000000
08F7000000003AFFB10000
0ED000000000004EFC1000
3F80000000000002DFB000
5F600000000000002EF700
4F6000000000000005FE10
3F7000000000000000CF60
1FC0000000000000006FB0
0CF4000000000000002FD0
06FD100000000000003FD0
00DFC2000000000000BF80
003FFE50000000004CFD10
0005EFFB5100137CFFD200
00002BFFFFDDFFFFD70000
00000038CEFEC963000000
ENDCHAR
STARTCHAR Oacute
ENCODING 211
SWIDTH 609 0
DWIDTH 22 0
BBX 21 25 0 0
BITMAP
0000000000038000000000
00000000007FC000000000
000000001BFD2000000000
00000001CFC20000000000
00000006FB100000000000
00000005A0000000000000
0000000000000000000000
0000014630000000000000
0002AFFFFFB61000000000
003EFDABDFFFE820000000
01EF7000015BFFF7000000
08F7000000003AFFB10000
0ED000000000004EFC1000
3F80000000000002DFB000
5F600000000000002EF700
4F6000000000000005FE10
3F7000000000000000CF60
1FC0000000000000006FB0
0CF4000000000000002FD0
06FD100000000000003FD0
00DFC2000000000000BF80
003FFE50000000004CFD10
0005EFFB5100137CFFD200
00002BFFFFDDFFFFD70000
00000038CEFEC963000000
ENDCHAR
STARTCHAR Ocircumflex
ENCODING 212
SWIDTH 609 0
DWIDTH 22 0
BBX 21 28 0 0
BITMAP
0000000330000000000000
0000000DF3000000000000
0000003FFD100000000000
000000AFFFB00000000000
000006FEEFFA0000000000
00007FF43DFF5000000000
0009FF6002EFA000000000
000AD500003EA000000000
0000000000000000000000
0000000000000000000000
0000014630000000000000
0002AFFFFFB61000000000
003EFDABDFFFE820000000
01EF7000015BFFF7000000
08F7000000003AFFB10000
0ED000000000004EFC1000
3F80000000000002DFB000
5F600000000000002EF700
4F6000000000000005FE10
3F7000000000000000CF60
1FC0000000000000006FB0
0CF4000000000000002FD0
06FD100000000000003FD0
00DFC2000000000000BF80
003FFE50000000004CFD10
0005EFFB5100137CFFD200
00002BFFFFDDFFFFD70000
00000038CEFEC963000000
ENDCHAR
STARTCHAR Otilde
ENCODING 213
SWIDTH 609 0
DWIDTH 22 0
BBX 21 24 0 0
BITMAP
0000166100000062000000
0003DFFF91001AF6000000
000CE407EE88DF60000000
000F90003CFFF500000000
000D800000463000000000
0002400000000000000000
0000014630000000000000
0002AFFFFFB61000000000
003EFDABDFFFE820000000
01EF7000015BFFF7000000
08F7000000003AFFB10000
0ED000000000004EFC1000
3F80000000000002DFB000
5F600000000000002EF700
4F6000000000000005FE10
3F7000000000000000CF60
1FC0000000000000006FB0
0CF4000000000000002FD0
06FD100000000000003FD0
00DFC2000000000000BF80
003FFE50000000004CFD10
0005EFFB5100137CFFD200
00002BFFFFDDFFFFD70000
00000038CEFEC963000000
ENDCHAR
STARTCHAR Odieresis
ENCODING 214
SWIDTH 609 0
DWIDTH 22 0
BBX 21 24 0 0
BITMAP
0000000AC3003C91000000
0000008FFC00DFF7000000
0000007FFB00CFF5000000
0000000671002740000000
0000000000000000000000
0000000000000000000000
0000014630000000000000
0002AFFFFFB61000000000
003EFDABDFFFE820000000
01EF7000015BFFF7000000
08F7000000003AFFB10000
0ED000000000004EFC1000
3F80000000000002DFB000
5F600000000000002EF700
4F6000000000000005FE10
3F7000000000000000CF60
1FC0000000000000006FB0
0CF4000000000000002FD0
06FD100000000000003FD0
00DFC2000000000000BF80
003FFE50000000004CFD10
0005EFFB5100137CFFD200
00002BFFFFDDFFFFD70000
00000038CEFEC963000000
ENDCHAR
STARTCHAR multiply
ENCODING 215
SWIDTH 448 0
DWIDTH 16 0
BBX 12 10 1 2
BITMAP
048000000281
1EF900003EF5
03EF9006EF90
003EFDDFE500
0004EFFD2000
0000AFFC1000
0004FEDFB000
003EF42DFA00
00DF6003EF40
01B700005300
ENDCHAR
STARTCHAR Oslash
ENCODING 216
SWIDTH 609 0
DWIDTH 22 0
BBX 21 28 0 -4
BITMAP
0000000000000210000000
0000000000000D90000000
0000000000003F90000000
0000000000007F60000000
0000000000009F30000000
000000000000CE00000000
000001463102FA00000000
0002AFFFFFBBF600000000
003EFDABDFFFF910000000
01EF7000018FFFE7000000
08F70000009F9AFFB10000
0ED0000001EF204EFC1000
3F80000005FC0002DFB000
5F6000000BF700002EF700
4F6000001FF2000005FE10
3F7000007FC0000000CF60
1FC00000CF700000006FB0
0CF50003FF200000002FD0
07FD2008FB000000003FD0
00DFD20EF600000000BF80
004FFE8FF10000004CFD10
0005EFFFC100137CFFD200
00003CFFFFDDFFFFD70000
00000AFECEFEC963000000
00001FF600000000000000
00005FD000000000000000
00007F6000000000000000
0000280000000000000000
ENDCHAR
STARTCHAR Ugrave
ENCODING 217
SWIDTH 571 0
DWIDTH 21 0
BBX 19 25 1 0
BITMAP
00000008C60000000000
00000002EF9000000000
000000003EFB00000000
0000000002DF30000000
00000000001400000000
04700000000000200000
3FF20000000001F30000
9F500000000005F80000
CC000000000007FB0000
EB000000000008FD0000
FA000000000007FE0000
FA000000000004FE0000
FB000000000002FF0000
EC000000000000DF1000
CE0000000000009F4000
9F1000000000006F9000
7F5000000000003FE000
3F9000000000003FF400
0EE100000000008FF900
0AF60000000003EFFE10
04FE100000004EFFFF60
00BFC1000018FF95EFB0
003EFE967AFFC3007FE0
0004EFFFFFF800000BD0
00002AEFD82000000000
ENDCHAR
STARTCHAR Uacute
ENCODING 218
SWIDTH 571 0
DWIDTH 21 0
BBX 19 25 1 0
BITMAP
00000000018200000000
000000003DF200000000
00000007FF5000000000
0000008FE40000000000
000001FE300000000000
047001B2000000200000
3FF20000000001F30000
9F500000000005F80000
CC000000000007FB0000
EB000000000008FD0000
FA000000000007FE0000
FA000000000004FE0000
FB000000000002FF0000
EC000000000000DF1000
CE0000000000009F4000
9F1000000000006F9000
7F5000000000003FE000
3F9000000000003FF400
0EE100000000008FF900
0AF60000000003EFFE10
04FE100000004EFFFF60
00BFC1000018FF95EFB0
003EFE967AFFC3007FE0
0004EFFFFFF800000BD0
00002AEFD82000000000
ENDCHAR
STARTCHAR Ucircumflex
ENCODING 219
SWIDTH 571 0
DWIDTH 21 0
BBX 19 32 1 0
BITMAP
00000000140000000000
000000007FA000000000
00000000BFF600000000
00000004FFFF40000000
0000002DFEFFE2000000
000002DFB09FFC000000
00003EFC1009FF200000
00004E910000AF200000
00000000000000000000
00000000000000000000
00000000000000000000
00000000000000000000
04700000000000200000
3FF20000000001F30000
9F500000000005F80000
CC000000000007FB0000
EB000000000008FD0000
FA000000000007FE0000
FA000000000004FE0000
FB000000000002FF0000
EC000000000000DF1000
CE0000000000009F4000
9F1000000000006F9000
7F5000000000003FE000
3F9000000000003FF400
0EE100000000008FF900
0AF60000000003EFFE10
04FE100000004EFFFF60
00BFC1000018FF95EFB0
003EFE967AFFC3007FE0
0004EFFFFFF800000BD0
00002AEFD82000000000
ENDCHAR
STARTCHAR Udieresis
ENCODING 220
SWIDTH 571 0
DWIDTH 21 0
BBX 19 24 1 0
BITMAP
000006D6001BB3000000
00003FFF208FFC000000
00002FFE207FFA000000
00000472000661000000
04700000000000200000
3FF20000000001F30000
9F500000000005F80000
CC000000000007FB0000
EB000000000008FD0000
FA000000000007FE0000
FA000000000004FE0000
FB000000000002FF0000
EC000000000000DF1000
CE0000000000009F4000
9F1000000000006F9000
7F5000000000003FE000
3F9000000000003FF400
0EE100000000008FF900
0AF60000000003EFFE10
04FE100000004EFFFF60
00BFC1000018FF95EFB0
003EFE967AFFC3007FE0
0004EFFFFFF800000BD0
00002AEFD82000000000
ENDCHAR
STARTCHAR Yacute
ENCODING 221
SWIDTH 403 0
DWIDTH 15 0
BBX 14 31 0 -1
BITMAP
00000000004700
0000000008FA00
00000001CFC100
0000001DFB1000
0000008FA00000
00000068000000
01000000000000
5E100000000000
5F70000000009A
2FE100000000FC
0BFA00000002FB
04FF60000007F9
009FF500000DF5
000AFF50005FF1
00009FFA30CFB0
000005EFFFFF60
00000019FFFF10
000000002EF900
000000000EF300
000000004FD000
000000009F7000
00000000DF2000
00000003FB0000
00000006F70000
00000009F40000
0000000BF20000
0000000DF00000
0000000DF00000
0000000DF00000
0000000DF10000
00000004600000
ENDCHAR
STARTCHAR Thorn
ENCODING 222
SWIDTH 497 0
DWIDTH 18 0
BBX 17 28 1 -6
BITMAP
1C9100000000000000
3FF200000000000000
3FF200000000000000
3FF100000000000000
3FF000000000000000
3FF000000000000000
3FE000000000000000
2FD000000000000000
1FC000000000000000
1FC002100000000000
0FFCFFFFC840000000
0EFFFDEFFFFC500000
0DFE300148EFFB1000
0DF800000007EFC000
0CF6000000002DF800
0BF40000000004FE00
0AF70000000000DF20
0AFD1000000000DF30
09FFB100000009FF10
08FFFE730026CFF900
08FADFFFFFFFFF9000
07F604AEFEEC830000
06F700000000000000
05F800000000000000
05F900000000000000
04F900000000000000
03FA00000000000000
002500000000000000
ENDCHAR
STARTCHAR germandbls
ENCODING 223
SWIDTH 590 0
DWIDTH 21 0
BBX 20 31 1 -5
BITMAP
00100000000000000000
0AFFEC95000000000000
7FFFFFFFE70000000000
BFFC8769EFD200000000
DF80000009FD10000000
DF70000000BF60000000
CF800000007F70000000
BF900000009F40000000
9FA0000005FB00000000
7FC00015AFE200000000
5FD009FFFF5000000000
2FE00BFFFF9100000000
0FF0018EFFFE81000000
0DF100016BFFFD400000
0AF200000016CFF70000
08F40000000005DF9000
06F500000000001BF900
04F6000000000000CF60
02F70000000000003FE1
01F80000000000000EF6
00F90000000000000CF8
00DB0000000000003FF7
00DC000000000148EFD1
00DD000DEEDEEFFFE910
00DE000EFFFEDB850000
00EF0001110000000000
01FF1000000000000000
03FF2000000000000000
07FF4000000000000000
0AFF5000000000000000
016A4000000000000000
ENDCHAR
STARTCHAR agrave
ENCODING 224
SWIDTH 505 0
DWIDTH 18 0
BBX 18 23 0 0
BITMAP
000000CA3000000000
0000006FF500000000
00000007FF60000000
000000005ED0000000
000000000220000000
0000019ED920000000
00000AFFFFF8000000
00000A8249FFB00000
00000000003DFA0000
000000000002EF6000
0000000000006FE100
0000000110000EF800
00017CFFFEB83CFE00
004EFFFECBEFFFFF50
04FFD6200016DFFF90
0DF7000000001BFFC0
3FA00000000000CFF0
4F6000000000002EF1
2FA0000000000007F0
0BFA20000000000240
02DFFC96678ACEFFF2
001AFFFFFFFFFFEA40
000027ACDEEC841000
ENDCHAR
STARTCHAR aacute
ENCODING 225
SWIDTH 505 0
DWIDTH 18 0
BBX 18 25 0 0
BITMAP
000000000191000000
000000005EE1000000
00000009FE40000000
000000AFE300000000
000004FD2000000000
000003B10000000000
000000000000000000
0000019ED920000000
00000AFFFFF8000000
00000A8249FFB00000
00000000003DFA0000
000000000002EF6000
0000000000006FE100
0000000110000EF800
00017CFFFEB83CFE00
004EFFFECBEFFFFF50
04FFD6200016DFFF90
0DF7000000001BFFC0
3FA00000000000CFF0
4F6000000000002EF1
2FA0000000000007F0
0BFA20000000000240
02DFFC96678ACEFFF2
001AFFFFFFFFFFEA40
000027ACDEEC841000
ENDCHAR
STARTCHAR acircumflex
ENCODING 226
SWIDTH 505 0
DWIDTH 18 0
BBX 18 27 0 0
BITMAP
000000002400000000
000000009F70000000
00000000EFF4000000
00000006FFFE200000
0000003EFEFFD10000
000004EF81BFF90000
00005FFA001CFE0000
00006E800001CE0000
000000000000000000
0000019ED920000000
00000AFFFFF8000000
00000A8249FFB00000
00000000003DFA0000
000000000002EF6000
0000000000006FE100
0000000110000EF800
00017CFFFEB83CFE00
004EFFFECBEFFFFF50
04FFD6200016DFFF90
0DF7000000001BFFC0
3FA00000000000CFF0
4F6000000000002EF1
2FA0000000000007F0
0BFA20000000000240
02DFFC96678ACEFFF2
001AFFFFFFFFFFEA40
000027ACDEEC841000
ENDCHAR
STARTCHAR atilde
ENCODING 227
SWIDTH 505 0
DWIDTH 18 0
BBX 18 25 0 0
BITMAP
000037400000025000
0008FFFD50004ED000
004FA12BFB7AFC1000
007F20007EFFC10000
005F00000165100000
000600000000000000
000000000000000000
0000019ED920000000
00000AFFFFF8000000
00000A8249FFB00000
00000000003DFA0000
000000000002EF6000
0000000000006FE100
0000000110000EF800
00017CFFFEB83CFE00
004EFFFECBEFFFFF50
04FFD6200016DFFF90
0DF7000000001BFFC0
3FA00000000000CFF0
4F6000000000002EF1
2FA0000000000007F0
0BFA20000000000240
02DFFC96678ACEFFF2
001AFFFFFFFFFFEA40
000027ACDEEC841000
ENDCHAR
STARTCHAR adieresis
ENCODING 228
SWIDTH 505 0
DWIDTH 18 0
BBX 18 23 0 0
BITMAP
000007D6001BB20000
00003FFF209FFB0000
00003FFE108FFA0000
000004720007600000
000000000000000000
0000019ED920000000
00000AFFFFF8000000
00000A8249FFB00000
00000000003DFA0000
000000000002EF6000
0000000000006FE100
0000000110000EF800
00017CFFFEB83CFE00
004EFFFECBEFFFFF50
04FFD6200016DFFF90
0DF7000000001BFFC0
3FA00000000000CFF0
4F6000000000002EF1
2FA0000000000007F0
0BFA20000000000240
02DFFC96678ACEFFF2
001AFFFFFFFFFFEA40
000027ACDEEC841000
ENDCHAR
STARTCHAR aring
ENCODING 229
SWIDTH 505 0
DWIDTH 18 0
BBX 18 24 0 0
BITMAP
000000004740000000
0000004DDDF6000000
000001E5008E100000
000004D0000F400000
000002E1007F200000
0000009D9BF6000000
000001AFFF50000000
00000AFFFFF8000000
00000A8249FFB00000
00000000003DFA0000
000000000002EF6000
0000000000006FE100
0000000110000EF800
00017CFFFEB83CFE00
004EFFFECBEFFFFF50
04FFD6200016DFFF90
0DF7000000001BFFC0
3FA00000000000CFF0
4F6000000000002EF1
2FA0000000000007F0
0BFA20000000000240
02DFFC96678ACEFFF2
001AFFFFFFFFFFEA40
000027ACDEEC841000
ENDCHAR
STARTCHAR ae
ENCODING 230
SWIDTH 881 0
DWIDTH 32 0
BBX 32 19 0 -1
BITMAP
0000019ED920000000038AB930000000
00000AFFFFF8000001AFFFFFF7000000
00000A8249FFB0001DFB4006FF500000
00000000003DFA00CF8000006FB00000
000000000002EF66FA0000000EE00000
0000000000006FEDF20000000CF10000
0000000110000EFFB00000002EE00000
00017CFFFEB83CFF80000003DF800000
004EFFFECBEFFFFF7000039FFC100000
04FFD6200016DFFF99CACFFF91000000
0DF7000000001BFFC8FFFD8200000000
3FA00000000000BFE011000000000000
4F6000000000002FF000000000000000
2FA0000000000009F700000000000000
0BFA200000000003FF50000000000000
02DFFC96678ACEFFFFFA400000000000
001AFFFFFFFFFFFA45EFFEB87678ABA1
000027ACDEEC8410002AFFFFFFFFFA20
0000000000000000000026ABCB962000
ENDCHAR
STARTCHAR ccedilla
ENCODING 231
SWIDTH 449 0
DWIDTH 16 0
BBX 16 27 0 -11
BITMAP
0000049CDB710000
0002BFFDCEFD3000
002DF920008FB000
00CF7000000BC000
06FA000000058000
0DF3000000022000
2FD0000000000000
4FB0000000000000
4FA0000000000000
3FC0000000000000
1FF1000000000000
0BF9000000000000
04FF800000000000
008FFD8420000000
0007FFFFFFFEEFF2
00001EEDFFFFDA50
00000EB000000000
00000DB000000000
000008F400000000
000001CFC9630000
00000006ADFFB100
00000000002BF800
000000000001FD00
00003D810000EE00
000008FD3003FB00
000000AFFDDFC100
00000005AB950000
ENDCHAR
STARTCHAR egrave
ENCODING 232
SWIDTH 515 0
DWIDTH 19 0
BBX 18 24 0 0
BITMAP
000009C50000000000
000002EF8000000000
0000004EFA00000000
00000003DF20000000
000000001300000000
000000489720000000
00005EFFFFF7000000
0008FE8427FF600000
007FC200005FD00000
02EE1000000CF10000
08F600000009F30000
0DE00000000CF20000
2FC00000009FC00000
4FA000005DFE300000
5FA5978DFFD3000000
4FB7FFFFC600000000
2FD034310000000000
0DF200000000000000
08F800000000000000
01EF50000000000000
004FF9200000000000
0005EFFC8644456793
00002BFFFFFFFFFE60
00000038CEFEC95000
ENDCHAR
STARTCHAR eacute
ENCODING 233
SWIDTH 515 0
DWIDTH 19 0
BBX 18 26 0 0
BITMAP
000000000560000000
000000019F80000000
0000003DFB00000000
000003EF9000000000
00000AF80000000000
000008600000000000
000000000000000000
000000489720000000
00005EFFFFF7000000
0008FE8427FF600000
007FC200005FD00000
02EE1000000CF10000
08F600000009F30000
0DE00000000CF20000
2FC00000009FC00000
4FA000005DFE300000
5FA5978DFFD3000000
4FB7FFFFC600000000
2FD034310000000000
0DF200000000000000
08F800000000000000
01EF50000000000000
004FF9200000000000
0005EFFC8644456793
00002BFFFFFFFFFE60
00000038CEFEC95000
ENDCHAR
STARTCHAR ecircumflex
ENCODING 234
SWIDTH 515 0
DWIDTH 19 0
BBX 18 27 0 0
BITMAP
000000001400000000
000000007F90000000
00000000BFF6000000
00000004FFFF400000
0000002DFEFFE20000
000002DFB09FFB0000
00003EFC100AFF2000
00004E910000AF1000
000000489720000000
00005EFFFFF7000000
0008FE8427FF600000
007FC200005FD00000
02EE1000000CF10000
08F600000009F30000
0DE00000000CF20000
2FC00000009FC00000
4FA000005DFE300000
5FA5978DFFD3000000
4FB7FFFFC600000000
2FD034310000000000
0DF200000000000000
08F800000000000000
01EF50000000000000
004FF9200000000000
0005EFFC8644456793
00002BFFFFFFFFFE60
00000038CEFEC95000
ENDCHAR
STARTCHAR edieresis
ENCODING 235
SWIDTH 515 0
DWIDTH 19 0
BBX 18 23 0 0
BITMAP
00004D90008C500000
0000EFF605FFE10000
0000DFF504FFD10000
000027400047200000
000000489720000000
00005EFFFFF7000000
0008FE8427FF600000
007FC200005FD00000
02EE1000000CF10000
08F600000009F30000
0DE00000000CF20000
2FC00000009FC00000
4FA000005DFE300000
5FA5978DFFD3000000
4FB7FFFFC600000000
2FD034310000000000
0DF200000000000000
08F800000000000000
01EF50000000000000
004FF9200000000000
0005EFFC8644456793
00002BFFFFFFFFFE60
00000038CEFEC95000
ENDCHAR
STARTCHAR igrave
ENCODING 236
SWIDTH 174 0
DWIDTH 6 0
BBX 6 22 0 0
BITMAP
250000
3FE400
08FF50
007FF4
0005C3
000000
009900
00BE00
00CE00
00CF00
00CF20
00BF50
00AF70
00AFA0
008FD0
007FF1
005FF3
003FF6
001FF8
000DF9
0009F9
0003E4
ENDCHAR
STARTCHAR iacute
ENCODING 237
SWIDTH 174 0
DWIDTH 6 0
BBX 7 23 -1 0
BITMAP
00000500
0002CF10
006EF600
07FF5000
3FE40000
5E300000
01000000
00099000
000BE000
000CE000
000CF000
000CF200
000BF500
000AF700
000AFA00
0008FD00
0007FF10
0005FF30
0003FF60
0001FF80
0000DF90
00009F90
00003E40
ENDCHAR
STARTCHAR icircumflex
ENCODING 238
SWIDTH 174 0
DWIDTH 6 0
BBX 10 27 -2 0
BITMAP
0000140000
00008F8000
0000DFF400
0006FFFE30
003EFEFFD1
03EF91BFFA
5FFB000BFF
6E800001BE
0000000000
0000000000
0000000000
0000990000
0000BE0000
0000CE0000
0000CF0000
0000CF2000
0000BF5000
0000AF7000
0000AFA000
00008FD000
00007FF100
00005FF300
00003FF600
00001FF800
00000DF900
000009F900
000003E400
ENDCHAR
STARTCHAR idieresis
ENCODING 239
SWIDTH 174 0
DWIDTH 6 0
BBX 10 21 -2 0
BITMAP
1DD3005EA0
AFFB01EFF6
7FF800DFF3
0540001620
0000000000
0000990000
0000BE0000
0000CE0000
0000CF0000
0000CF2000
0000BF5000
0000AF7000
0000AFA000
00008FD000
00007FF100
00005FF300
00003FF600
00001FF800
00000DF900
000009F900
000003E400
ENDCHAR
STARTCHAR eth
ENCODING 240
SWIDTH 407 0
DWIDTH 15 0
BBX 15 20 0 -1
BITMAP
07EFD94000000000
2FFDFFFB10000100
094018FFD203CE20
0000002CFDCFFF50
0000005BFFFFE600
00005EFFFDFD1000
00005FF920CF7000
00000520003FE000
00002678752CF500
0019FFFFFFFFF900
01CFD40125AFFD00
08FC10000004FF10
0EF2000000009F20
1FB0000000008F20
2FC000000000CE00
0EF400000005FB00
07FE6000017FF500
009FFECACEFFA000
0005CFFFFFF90000
0000014675100000
ENDCHAR
STARTCHAR ntilde
ENCODING 241
SWIDTH 459 0
DWIDTH 17 0
BBX 15 23 1 0
BITMAP
0167200000052000
2CFFF920019F7000
AF506EE88DF70000
EB0002BFFF600000
B900000363000000
2500000000000000
0000000000000000
000005BEE9200000
3005DFFFFFE30000
FACFE7324DFD1000
FFFC100001DF9000
FFF20000004FF200
EFA00000000BF800
EF7000000005FD00
DF7000000001FF30
BF8000000000CF60
AFA0000000009F90
8FD0000000007FC0
5FF1000000006FD0
2FF4000000005FD0
0CF8000000005FC0
05F9000000006F90
007A000000006E30
ENDCHAR
STARTCHAR ograve
ENCODING 242
SWIDTH 487 0
DWIDTH 18 0
BBX 17 20 0 0
BITMAP
0000002E9100000000
0000000AFD20000000
00000000AFE3000000
0000000009F9000000
000000000031000000
0000016ADEFC500000
00018FFFFFFFFA0000
001CFE95228EFF9000
00CFA10000019FF400
08F90000000008FC00
0ED00000000000CF30
3F8000000000008F60
4F6000000000008F80
4F800000000000CF60
2FC00000000005FF30
0DF4000000004EFD00
06FE30000007FFF400
00AFF93116CFFF6000
0009FFFFFFFFD40000
000039DEFDA5000000
ENDCHAR
STARTCHAR oacute
ENCODING 243
SWIDTH 487 0
DWIDTH 18 0
BBX 17 22 0 0
BITMAP
000000000290000000
000000006ED0000000
0000001BFD20000000
000000CFC200000000
000006FB1000000000
000005A00000000000
000000000000000000
0000016ADEFC500000
00018FFFFFFFFA0000
001CFE95228EFF9000
00CFA10000019FF400
08F90000000008FC00
0ED00000000000CF30
3F8000000000008F60
4F6000000000008F80
4F800000000000CF60
2FC00000000005FF30
0DF4000000004EFD00
06FE30000007FFF400
00AFF93116CFFF6000
0009FFFFFFFFD40000
000039DEFDA5000000
ENDCHAR
STARTCHAR ocircumflex
ENCODING 244
SWIDTH 487 0
DWIDTH 18 0
BBX 17 24 0 0
BITMAP
000000005100000000
00000004FC00000000
00000009FF90000000
0000002EFFF6000000
000001BFEFFF400000
00001CFD17FFE10000
0002DFD2007FF50000
0002EB200007F40000
000000000000000000
0000016ADEFC500000
00018FFFFFFFFA0000
001CFE95228EFF9000
00CFA10000019FF400
08F90000000008FC00
0ED00000000000CF30
3F8000000000008F60
4F6000000000008F80
4F800000000000CF60
2FC00000000005FF30
0DF4000000004EFD00
06FE30000007FFF400
00AFF93116CFFF6000
0009FFFFFFFFD40000
000039DEFDA5000000
ENDCHAR
STARTCHAR otilde
ENCODING 245
SWIDTH 487 0
DWIDTH 18 0
BBX 17 20 0 0
BITMAP
000027610000016000
0005EFFE70002DE200
001FD219FD79EE3000
004F60005EFFE20000
002F40000056200000
0005216ADEFC500000
00018FFFFFFFFA0000
001CFE95228EFF9000
00CFA10000019FF400
08F90000000008FC00
0ED00000000000CF30
3F8000000000008F60
4F6000000000008F80
4F800000000000CF60
2FC00000000005FF30
0DF4000000004EFD00
06FE30000007FFF400
00AFF93116CFFF6000
0009FFFFFFFFD40000
000039DEFDA5000000
ENDCHAR
STARTCHAR odieresis
ENCODING 246
SWIDTH 487 0
DWIDTH 18 0
BBX 17 19 0 0
BITMAP
00001CB2005D800000
0000AFF902FFF40000
00009FF801EFF30000
000017500038300000
0000016ADEFC500000
00018FFFFFFFFA0000
001CFE95228EFF9000
00CFA10000019FF400
08F90000000008FC00
0ED00000000000CF30
3F8000000000008F60
4F6000000000008F80
4F800000000000CF60
2FC00000000005FF30
0DF4000000004EFD00
06FE30000007FFF400
00AFF93116CFFF6000
0009FFFFFFFFD40000
000039DEFDA5000000
ENDCHAR
STARTCHAR divide
ENCODING 247
SWIDTH 335 0
DWIDTH 12 0
BBX 10 11 1 2
BITMAP
0000100000
0000BB0000
00009F3000
0000170000
0367889850
5FFFFFFFF8
7A86322463
0000000000
0000240000
0000AD0000
0000230000
ENDCHAR
STARTCHAR oslash
ENCODING 248
SWIDTH 487 0
DWIDTH 18 0
BBX 17 17 0 0
BITMAP
000000000000650000
000000000005FB0000
00000059BDDEF60000
00006EFFFFFFF80000
001BFFA644EFFF8000
00CFB20008FCBFF300
07F900003FF409FC00
0DD00000DF9000DF30
3F800008FE10008F60
4F60003FF500008F80
4F7001DFB00000CF60
3FC009FE100005FF40
0DF44FF500003EFD00
07FEEF900006FFF400
00BFFE3015CFFF7000
00BFFFFFFFFFE50000
00BD59DFFEB6100000
ENDCHAR
STARTCHAR ugrave
ENCODING 249
SWIDTH 501 0
DWIDTH 18 0
BBX 18 25 0 -1
BITMAP
00003D810000000000
00000BFC1000000000
000001CFD200000000
0000001AF800000000
000000004100000000
000000000000000000
000000000000000000
065000000000000000
2FB000000000000000
6F90000000001C6000
7F70000000003FD000
6F60000000003FF100
5F70000000003FF300
4FA0000000003FF400
2FD0000000003FF500
0DF2000000003FF600
09F7000000007FF600
04FD10000001EFF800
00DF7000000AFFFD00
004FF400009FE6EF30
000AFF722AFD207F80
0001BFFFFFD2002FE0
000006CEE910000DF4
0000000000000009F7
000000000000000020
ENDCHAR
STARTCHAR uacute
ENCODING 250
SWIDTH 501 0
DWIDTH 18 0
BBX 18 26 0 -1
BITMAP
000000000191000000
000000004EE1000000
00000009FE40000000
0000009FE300000000
000003FD2000000000
000003B10000000000
000000000000000000
000000000000000000
065000000000000000
2FB000000000000000
6F90000000001C6000
7F70000000003FD000
6F60000000003FF100
5F70000000003FF300
4FA0000000003FF400
2FD0000000003FF500
0DF2000000003FF600
09F7000000007FF600
04FD10000001EFF800
00DF7000000AFFFD00
004FF400009FE6EF30
000AFF722AFD207F80
0001BFFFFFD2002FE0
000006CEE910000DF4
0000000000000009F7
000000000000000020
ENDCHAR
STARTCHAR ucircumflex
ENCODING 251
SWIDTH 501 0
DWIDTH 18 0
BBX 18 28 0 -1
BITMAP
000000002400000000
00000000BF60000000
00000001EFE3000000
00000008FFFD100000
0000004FFEFFC00000
000005FF71CFF80000
00006FF9001CFD0000
00007E700001CD0000
000000000000000000
000000000000000000
065000000000000000
2FB000000000000000
6F90000000001C6000
7F70000000003FD000
6F60000000003FF100
5F70000000003FF300
4FA0000000003FF400
2FD0000000003FF500
0DF2000000003FF600
09F7000000007FF600
04FD10000001EFF800
00DF7000000AFFFD00
004FF400009FE6EF30
000AFF722AFD207F80
0001BFFFFFD2002FE0
000006CEE910000DF4
0000000000000009F7
000000000000000020
ENDCHAR
STARTCHAR udieresis
ENCODING 252
SWIDTH 501 0
DWIDTH 18 0
BBX 18 23 0 -1
BITMAP
00008C5001BB200000
0004FFF10AFFA00000
0003FFE109FF900000
000047200076000000
000000000000000000
065000000000000000
2FB000000000000000
6F90000000001C6000
7F70000000003FD000
6F60000000003FF100
5F70000000003FF300
4FA0000000003FF400
2FD0000000003FF500
0DF2000000003FF600
09F7000000007FF600
04FD10000001EFF800
00DF7000000AFFFD00
004FF400009FE6EF30
000AFF722AFD207F80
0001BFFFFFD2002FE0
000006CEE910000DF4
0000000000000009F7
000000000000000020
ENDCHAR
STARTCHAR yacute
ENCODING 253
SWIDTH 487 0
DWIDTH 18 0
BBX 17 42 0 -18
BITMAP
000000000380000000
000000007FC0000000
0000001BFD20000000
000001CFC100000000
000007FB1000000000
000005900000000000
000000000000000000
000000000000000000
06000000000000A000
3F000000000001F200
6F200000000001F600
5F500000000001F900
4F700000000001FC00
3FA00000000000FF00
1FD00000000000EF20
0CF30000000000EF40
08F80000000000DF60
02FD0000000000DF80
009F7000000006FF90
002EE20000007FFFA0
0006FD40002AFFFFC0
00006FFDBCFFC42EC0
000004CFFFD5000BC0
000000024300000AD0
000000000000000AD0
000000000000000AE0
000000000000000BE0
000000000000000CD0
000000000000000ED0
000000000000000FC0
000000000000002FB0
000000000000004F90
000000000000006F70
001000000000009F50
05E20000000000CF20
04FD2000000001FD00
00DFD200000006F900
004FFD4000001DF300
0004EFF91001AFB000
00002BFFFCBEFE2000
0000005CFFFFE40000
000000002687100000
ENDCHAR
STARTCHAR thorn
ENCODING 254
SWIDTH 520 0
DWIDTH 19 0
BBX 17 26 1 -7
BITMAP
002000000000000000
2FA000000000000000
4F8000000000000000
6F6000000000000000
7F4000000000000000
8F2000134541000000
9F028DFFFFFFD60000
9E9FFFFCA9BEFFC100
AFFFB51000017EFB00
AFF50000000003EF60
AFB000000000007FB0
AFA000000000002FD0
BF9000000000001FF0
BF8000000000008FD0
CFFEB96420136CFF80
DFFFFFFFFFFFFFFC10
EF67ADFFFFFFEB6000
FF5000001100000000
FF4000000000000000
FF4000000000000000
FF4000000000000000
FF4000000000000000
EF4000000000000000
DF4000000000000000
BF5000000000000000
5A4000000000000000
ENDCHAR
STARTCHAR ydieresis
ENCODING 255
SWIDTH 487 0
DWIDTH 18 0
BBX 17 39 0 -18
BITMAP
00006D6001BB300000
0003FFF208FFC00000
0002FFE207FFA00000
000047200066100000
000000000000000000
06000000000000A000
3F000000000001F200
6F200000000001F600
5F500000000001F900
4F700000000001FC00
3FA00000000000FF00
1FD00000000000EF20
0CF30000000000EF40
08F80000000000DF60
02FD0000000000DF80
009F7000000006FF90
002EE20000007FFFA0
0006FD40002AFFFFC0
00006FFDBCFFC42EC0
000004CFFFD5000BC0
000000024300000AD0
000000000000000AD0
000000000000000AE0
000000000000000BE0
000000000000000CD0
000000000000000ED0
000000000000000FC0
000000000000002FB0
000000000000004F90
000000000000006F70
001000000000009F50
05E20000000000CF20
04FD2000000001FD00
00DFD200000006F900
004FFD4000001DF300
0004EFF91001AFB000
00002BFFFCBEFE2000
0000005CFFFFE40000
000000002687100000
ENDCHAR
STARTCHAR Amacron
ENCODING 256
SWIDTH 562 0
DWIDTH 20 0
BBX 20 33 0 0
BITMAP
00000134566620000000
00003EFFFFFFF5000000
00009FFEB9ACE7000000
00003420000000000000
00000000000000000000
00000001454100000000
000002AFFFFE91000000
00003EF9669EFC100000
0001DE300002BFC00000
0008F40000001CF70000
000EB000000002EE1000
003F50000000007F7000
007F10000000001FD000
00AD00000000000AF300
00CA000000000004F800
00E8000000000001FC00
00F7000000000000CF00
01F60000000000009F30
02F50000000000007F70
03F50000000000006F90
04F62100000000008FB0
1BFFFFFEDCBBA987DFD0
2EFFB98889ACEFFFFFF0
05FB0000000000212FF1
00FA0000000000000EF2
00FB0000000000000CF3
00FD0000000000000CF4
00FF0000000000000CF4
00DF3000000000000DF4
00BF6000000000001FF3
009F8000000000004FF2
004FA000000000006FF0
000B9000000000006E60
ENDCHAR
STARTCHAR amacron
ENCODING 257
SWIDTH 505 0
DWIDTH 18 0
BBX 18 24 0 0
BITMAP
000001355665100000
00006FFFFFFFE20000
0000DFFDA9ACE30000
000044100000000000
000000000000000000
000000000000000000
0000019ED920000000
00000AFFFFF8000000
00000A8249FFB00000
00000000003DFA0000
000000000002EF6000
0000000000006FE100
0000000110000EF800
00017CFFFEB83CFE00
004EFFFECBEFFFFF50
04FFD6200016DFFF90
0DF7000000001BFFC0
3FA00000000000CFF0
4F6000000000002EF1
2FA0000000000007F0
0BFA20000000000240
02DFFC96678ACEFFF2
001AFFFFFFFFFFEA40
000027ACDEEC841000
ENDCHAR
STARTCHAR Abreve
ENCODING 258
SWIDTH 562 0
DWIDTH 20 0
BBX 20 34 0 0
BITMAP
000000091000E7000000
0000000D8116F5000000
00000005FFFF90000000
00000000267300000000
00000000000000000000
00000000000000000000
00000001454100000000
000002AFFFFE91000000
00003EF9669EFC100000
0001DE300002BFC00000
0008F40000001CF70000
000EB000000002EE1000
003F50000000007F7000
007F10000000001FD000
00AD00000000000AF300
00CA000000000004F800
00E8000000000001FC00
00F7000000000000CF00
01F60000000000009F30
02F50000000000007F70
03F50000000000006F90
04F62100000000008FB0
1BFFFFFEDCBBA987DFD0
2EFFB98889ACEFFFFFF0
05FB0000000000212FF1
00FA0000000000000EF2
00FB0000000000000CF3
00FD0000000000000CF4
00FF0000000000000CF4
00DF3000000000000DF4
00BF6000000000001FF3
009F8000000000004FF2
004FA000000000006FF0
000B9000000000006E60
ENDCHAR
STARTCHAR abreve
ENCODING 259
SWIDTH 505 0
DWIDTH 18 0
BBX 18 23 0 0
BITMAP
0000072000AA000000
00000AB214E8000000
000002EFFFC1000000
000000167400000000
000000000000000000
0000019ED920000000
00000AFFFFF8000000
00000A8249FFB00000
00000000003DFA0000
000000000002EF6000
0000000000006FE100
0000000110000EF800
00017CFFFEB83CFE00
004EFFFECBEFFFFF50
04FFD6200016DFFF90
0DF7000000001BFFC0
3FA00000000000CFF0
4F6000000000002EF1
2FA0000000000007F0
0BFA20000000000240
02DFFC96678ACEFFF2
001AFFFFFFFFFFEA40
000027ACDEEC841000
ENDCHAR
STARTCHAR Aogonek
ENCODING 260
SWIDTH 562 0
DWIDTH 20 0
BBX 20 34 0 -6
BITMAP
00000001454100000000
000002AFFFFE91000000
00003EF9669EFC100000
0001DE300002BFC00000
0008F40000001CF70000
000EB000000002EE1000
003F50000000007F7000
007F10000000001FD000
00AD00000000000AF300
00CA000000000004F800
00E8000000000001FC00
00F7000000000000CF00
01F60000000000009F30
02F50000000000007F70
03F50000000000006F90
04F62100000000008FB0
1BFFFFFEDCBBA987DFD0
2EFFB98889ACEFFFFFF0
05FB0000000000212FF1
00FA0000000000000EF2
00FB0000000000000CF3
00FD0000000000000CF4
00FF0000000000000CF4
00DF3000000000000DF4
00BF6000000000001FF3
009F8000000000004FF2
004FA00000000002AFF0
000B90000000008FFE60
00000000000006FD3000
0000000000000BE20000
0000000000000EE10000
0000000000000AFD6311
000000000000008DFFFE
00000000000000000111
ENDCHAR
STARTCHAR aogonek
ENCODING 261
SWIDTH 505 0
DWIDTH 18 0
BBX 18 23 0 -5
BITMAP
0000019ED920000000
00000AFFFFF8000000
00000A8249FFB00000
00000000003DFA0000
000000000002EF6000
0000000000006FE100
0000000110000EF800
00017CFFFEB83CFE00
004EFFFECBEFFFFF50
04FFD6200016DFFF90
0DF7000000001BFFC0
3FA00000000000CFF0
4F6000000000002EF1
2FA0000000000007F0
0BFA20000000000240
02DFFC96678ACEFFF2
001AFFFFFFFFFFEA40
000027ACDEFFD51000
0000000000ED100000
0000000001FB000000
0000000000EFA41000
00000000003BFFFEC0
000000000000023320
ENDCHAR
STARTCHAR Cacute
ENCODING 262
SWIDTH 515 0
DWIDTH 19 0
BBX 18 30 0 0
BITMAP
000000000002900000
00000000006ED00000
000000000AFE300000
00000000BFD2000000
00000005FC10000000
00000004A100000000
000000000013410000
000000003AEFFC0000
00000008FFFFFF2000
000001BFFA319F1000
00001CFC3000AB0000
0000BF900001E20000
0007F8000001200000
002F90000000000000
00BD10000000000000
03F500000000000000
09D000000000000000
0E9000000000000000
2F6000000000000000
4F5000000000000000
5F6000000000000000
4F7000000000000000
2F9000000000000000
0ED000000000000000
0AF300000000000000
05FB00000000000000
00DF800000002589B5
004FFC7578BEFFFFD2
0006FFFFFFFFFC9510
00004BFFDA63000000
ENDCHAR
STARTCHAR cacute
ENCODING 263
SWIDTH 449 0
DWIDTH 16 0
BBX 16 24 0 0
BITMAP
0000000000740000
000000002BF60000
00000004EF900000
0000004FF7000000
000000DF50000000
000000A500000000
0000000000000000
0000000000000000
000006BEFD920000
0002CFECBDFE4000
002EF710006FB000
00DF5000000AB000
07F9000000057000
0DF2000000021000
2FD0000000000000
4FB0000000000000
4FB0000000000000
3FC0000000000000
1FF2000000000000
0BFA000000000000
03FF910000000000
007FFE8531000010
0006EFFFFFFFFFF2
000016ADEFFEDA40
ENDCHAR
STARTCHAR Ccircumflex
ENCODING 264
SWIDTH 515 0
DWIDTH 19 0
BBX 18 32 0 0
BITMAP
000000001400000000
000000007F90000000
00000000BFF6000000
00000004FFFF400000
0000002DFEFFE20000
000002DFB09FFB0000
00003EFC100AFF2000
00004E910000AF1000
000000000013410000
000000003AEFFC0000
00000008FFFFFF2000
000001BFFA319F1000
00001CFC3000AB0000
0000BF900001E20000
0007F8000001200000
002F90000000000000
00BD10000000000000
03F500000000000000
09D000000000000000
0E9000000000000000
2F6000000000000000
4F5000000000000000
5F6000000000000000
4F7000000000000000
2F9000000000000000
0ED000000000000000
0AF300000000000000
05FB00000000000000
00DF800000002589B5
004FFC7578BEFFFFD2
0006FFFFFFFFFC9510
00004BFFDA63000000
ENDCHAR
STARTCHAR ccircumflex
ENCODING 265
SWIDTH 449 0
DWIDTH 16 0
BBX 16 27 0 0
BITMAP
0000000240000000
0000000AF6000000
0000000EFF300000
0000007FFFE20000
000003EFEFFC1000
00004EF81BFF8000
0006FF9001CFE000
0007E700001CD000
0000000000000000
0000000000000000
0000000000000000
000006BEFD920000
0002CFECBDFE4000
002EF710006FB000
00DF5000000AB000
07F9000000057000
0DF2000000021000
2FD0000000000000
4FB0000000000000
4FB0000000000000
3FC0000000000000
1FF2000000000000
0BFA000000000000
03FF910000000000
007FFE8531000010
0006EFFFFFFFFFF2
000016ADEFFEDA40
ENDCHAR
STARTCHAR Cdotaccent
ENCODING 266
SWIDTH 515 0
DWIDTH 19 0
BBX 18 28 0 0
BITMAP
000000005B40000000
000000007FB0000000
000000004FC0000000
000000000420000000
000000000013410000
000000003AEFFC0000
00000008FFFFFF2000
000001BFFA319F1000
00001CFC3000AB0000
0000BF900001E20000
0007F8000001200000
002F90000000000000
00BD10000000000000
03F500000000000000
09D000000000000000
0E9000000000000000
2F6000000000000000
4F5000000000000000
5F6000000000000000
4F7000000000000000
2F9000000000000000
0ED000000000000000
0AF300000000000000
05FB00000000000000
00DF800000002589B5
004FFC7578BEFFFFD2
0006FFFFFFFFFC9510
00004BFFDA63000000
ENDCHAR
STARTCHAR cdotaccent
ENCODING 267
SWIDTH 449 0
DWIDTH 16 0
BBX 16 20 0 0
BITMAP
0000002B60000000
0000004FE0000000
0000001EF1000000
0000000340000000
000006BEFD920000
0002CFECBDFE4000
002EF710006FB000
00DF5000000AB000
07F9000000057000
0DF2000000021000
2FD0000000000000
4FB0000000000000
4FB0000000000000
3FC0000000000000
1FF2000000000000
0BFA000000000000
03FF910000000000
007FFE8531000010
0006EFFFFFFFFFF2
000016ADEFFEDA40
ENDCHAR
STARTCHAR Ccaron
ENCODING 268
SWIDTH 515 0
DWIDTH 19 0
BBX 18 29 0 0
BITMAP
0000009B500006C700
00000029FC33BFF500
000000003DFFFD4000
0000000002FF910000
000000000044000000
000000000013410000
000000003AEFFC0000
00000008FFFFFF2000
000001BFFA319F1000
00001CFC3000AB0000
0000BF900001E20000
0007F8000001200000
002F90000000000000
00BD10000000000000
03F500000000000000
09D000000000000000
0E9000000000000000
2F6000000000000000
4F5000000000000000
5F6000000000000000
4F7000000000000000
2F9000000000000000
0ED000000000000000
0AF300000000000000
05FB00000000000000
00DF800000002589B5
004FFC7578BEFFFFD2
0006FFFFFFFFFC9510
00004BFFDA63000000
ENDCHAR
STARTCHAR ccaron
ENCODING 269
SWIDTH 449 0
DWIDTH 16 0
BBX 16 22 0 0
BITMAP
0006B710003AB000
00017EE629FF9000
000001AFFFE70000
0000000CFC200000
0000000250000000
0000000000000000
000006BEFD920000
0002CFECBDFE4000
002EF710006FB000
00DF5000000AB000
07F9000000057000
0DF2000000021000
2FD0000000000000
4FB0000000000000
4FB0000000000000
3FC0000000000000
1FF2000000000000
0BFA000000000000
03FF910000000000
007FFE8531000010
0006EFFFFFFFFFF2
000016ADEFFEDA40
ENDCHAR
STARTCHAR Dcaron
ENCODING 270
SWIDTH 741 0
DWIDTH 27 0
BBX 26 28 0 -1
BITMAP
000000003B9200029C10000000
0000000005DF817EFC00000000
000000000008FFFF9100000000
0000000000009FE40000000000
00014689986425100000000000
05CFFFFFFFFFFB710000000000
3FFEB97766FFFFFFA300000000
1A30000000AFA38EFFA2000000
00000000005FB0017EFE500000
00000000002FC00001AFF80000
00000000000EE0000006FF9000
00000000000CF10000004FF700
000000000008F300000006FF20
000000000006F600000000BFA0
000000000005F9000000002FF1
000000000004FB000000000BF6
000000000003FD0000000007F8
000000000002FF1000000006FA
000000000001FF3000000007F9
000000000001FF400000000AF8
000000000000FF400000002FF4
000000000000EF40000000CFD0
000000000000BF3000000AFF60
00000000000058000002CFFB00
000000003FC73000039FFFB100
000000001EFFFEBCEFFFF70000
00000000029EFFFFFFD8100000
00000000000035654100000000
ENDCHAR
STARTCHAR dcaron
ENCODING 271
SWIDTH 582 0
DWIDTH 21 0
BBX 21 28 0 0
BITMAP
0000000000000000001000
000000000000000000E400
000000000001C30000FB00
000000000003FE1000FE00
000000000002FF8000FF20
000000000000EFE100EF30
000000000000AFF500CF40
0000000000006FF9009F50
0000000000001FFC004F50
0000000000000CFF100510
00000000000009FF400000
00000000000006FF600000
00018DEDA40003FF800000
001CFFFFFFC301FFA00000
00BFFFCACFFF91FFC00000
04FFD400028FFDFFE00000
0BFE20000002CFFFF00000
0FF8000000001BFFF10000
3FF20000000002FFF20000
4FE00000000004FFF40000
4FD00000000008FFF50000
3FF1000000002EFFF60000
0EF500000001CFFFF70000
0AFB0000001CFE6EF90000
04FF400005DFE309FB0000
00AFF968DFFD3003FE0000
001DFFFFFFA10000660000
00019EED92000000000000
ENDCHAR
STARTCHAR Dcroat
ENCODING 272
SWIDTH 741 0
DWIDTH 27 0
BBX 26 24 0 -1
BITMAP
00014689986410000000000000
05CFFFFFFFFFFB710000000000
3FFEB97766FFFFFFA300000000
1A30000000AFA38EFFA2000000
00000000005FB0017EFE500000
00000000002FC00001AFF80000
00000000000EE0000006FF9000
00000000000CF10000004FF700
000000000008F300000006FF20
000000000006F600000000BFA0
000000000137FA420000002FF1
00000001BFFFFFFF7000000BF6
00000006FFFDFFDFB0000007F8
000000036412FF1000000006FA
000000000001FF3000000007F9
000000000001FF400000000AF8
000000000000FF400000002FF4
000000000000EF40000000CFD0
000000000000BF3000000AFF60
00000000000058000002CFFB00
000000003FC73000039FFFB100
000000001EFFFEBCEFFFF70000
00000000029EFFFFFFD8100000
00000000000035654100000000
ENDCHAR
STARTCHAR dcroat
ENCODING 273
SWIDTH 524 0
DWIDTH 19 0
BBX 19 27 0 0
BITMAP
00000000000010000000
000000000002F6000000
000000000003FF200000
000000000002FFA00000
000000000000DFF10000
000000000012BFF95300
000000006DFFFFFFFFB0
00000006FFFFEFFFCFE0
0000000465310BFF2000
00000000000008FF4000
00000121000005FF7000
0002BFFFD71002FF9000
002EFFFFFFE600FFB000
00CFFE979DFFC3FFC000
06FFC100005DFFFFE000
0BFE10000001AFFFF000
1FF70000000008FFF100
3FF20000000002FFF300
4FE00000000004FFF400
4FD00000000009FFF500
3FF1000000003FFFF600
0EF600000001DFFFF800
0AFB0000002CFD5EF900
03FF400005EFE308FB00
00AFF968DFFD3003FE00
001CFFFFFFA100006600
00019EED820000000000
ENDCHAR
STARTCHAR Emacron
ENCODING 274
SWIDTH 524 0
DWIDTH 19 0
BBX 18 27 0 0
BITMAP
000000345666300000
00001DFFFFFFF70000
00006FFEB9ACE90000
000024200000000000
014432211110010000
0BFFFFFFFFFFFFF910
0CFFFEEDDCCBBBBE80
0CF300000000000120
0CF400000000000000
0CF400000000000000
0CF400000000000000
0CF400000000000000
0CF400000000133400
0CF4001358ADFFF800
3FFFEFFFFFFFDA4000
2FFECA976531000000
0FE100000000000000
0FB000000000000000
1FA000000000000000
2FA000000000000000
4FA000000000000000
5FA000000000000000
4FA000000000000000
3FA000000000000100
0DE8545678ABDEFFC1
05FFFFFFFFFFFFFFA0
003ADFFFFFEDB96200
ENDCHAR
STARTCHAR emacron
ENCODING 275
SWIDTH 515 0
DWIDTH 19 0
BBX 18 24 0 0
BITMAP
000000345666300000
00001DFFFFFFF70000
00007FFEB9ACE90000
000034200000000000
000000000000000000
000000489720000000
00005EFFFFF7000000
0008FE8427FF600000
007FC200005FD00000
02EE1000000CF10000
08F600000009F30000
0DE00000000CF20000
2FC00000009FC00000
4FA000005DFE300000
5FA5978DFFD3000000
4FB7FFFFC600000000
2FD034310000000000
0DF200000000000000
08F800000000000000
01EF50000000000000
004FF9200000000000
0005EFFC8644456793
00002BFFFFFFFFFE60
00000038CEFEC95000
ENDCHAR
STARTCHAR Ebreve
ENCODING 276
SWIDTH 524 0
DWIDTH 19 0
BBX 18 28 0 0
BITMAP
00000270002F400000
000001F6128F200000
0000008FFFF6000000
000000037620000000
000000000000000000
014432211110010000
0BFFFFFFFFFFFFF910
0CFFFEEDDCCBBBBE80
0CF300000000000120
0CF400000000000000
0CF400000000000000
0CF400000000000000
0CF400000000000000
0CF400000000133400
0CF4001358ADFFF800
3FFFEFFFFFFFDA4000
2FFECA976531000000
0FE100000000000000
0FB000000000000000
1FA000000000000000
2FA000000000000000
4FA000000000000000
5FA000000000000000
4FA000000000000000
3FA000000000000100
0DE8545678ABDEFFC1
05FFFFFFFFFFFFFFA0
003ADFFFFFEDB96200
ENDCHAR
STARTCHAR ebreve
ENCODING 277
SWIDTH 515 0
DWIDTH 19 0
BBX 18 24 0 0
BITMAP
000000280002F40000
0000001F6128F20000
00000008FFFF600000
000000003762000000
000000000000000000
000000489720000000
00005EFFFFF7000000
0008FE8427FF600000
007FC200005FD00000
02EE1000000CF10000
08F600000009F30000
0DE00000000CF20000
2FC00000009FC00000
4FA000005DFE300000
5FA5978DFFD3000000
4FB7FFFFC600000000
2FD034310000000000
0DF200000000000000
08F800000000000000
01EF50000000000000
004FF9200000000000
0005EFFC8644456793
00002BFFFFFFFFFE60
00000038CEFEC95000
ENDCHAR
STARTCHAR Edotaccent
ENCODING 278
SWIDTH 524 0
DWIDTH 19 0
BBX 18 27 0 0
BITMAP
00000003B600000000
00000005FE00000000
00000002FE00000000
000000003400000000
014432211110010000
0BFFFFFFFFFFFFF910
0CFFFEEDDCCBBBBE80
0CF300000000000120
0CF400000000000000
0CF400000000000000
0CF400000000000000
0CF400000000000000
0CF400000000133400
0CF4001358ADFFF800
3FFFEFFFFFFFDA4000
2FFECA976531000000
0FE100000000000000
0FB000000000000000
1FA000000000000000
2FA000000000000000
4FA000000000000000
5FA000000000000000
4FA000000000000000
3FA000000000000100
0DE8545678ABDEFFC1
05FFFFFFFFFFFFFFA0
003ADFFFFFEDB96200
ENDCHAR
STARTCHAR edotaccent
ENCODING 279
SWIDTH 515 0
DWIDTH 19 0
BBX 18 24 0 0
BITMAP
0000002B6000000000
0000004FE000000000
0000001EF100000000
000000034000000000
000000000000000000
000000489720000000
00005EFFFFF7000000
0008FE8427FF600000
007FC200005FD00000
02EE1000000CF10000
08F600000009F30000
0DE00000000CF20000
2FC00000009FC00000
4FA000005DFE300000
5FA5978DFFD3000000
4FB7FFFFC600000000
2FD034310000000000
0DF200000000000000
08F800000000000000
01EF50000000000000
004FF9200000000000
0005EFFC8644456793
00002BFFFFFFFFFE60
00000038CEFEC95000
ENDCHAR
STARTCHAR Eogonek
ENCODING 280
SWIDTH 524 0
DWIDTH 19 0
BBX 18 29 0 -6
BITMAP
014432211110010000
0BFFFFFFFFFFFFF910
0CFFFEEDDCCBBBBE80
0CF300000000000120
0CF400000000000000
0CF400000000000000
0CF400000000000000
0CF400000000000000
0CF400000000133400
0CF4001358ADFFF800
3FFFEFFFFFFFDA4000
2FFECA976531000000
0FE100000000000000
0FB000000000000000
1FA000000000000000
2FA000000000000000
4FA000000000000000
5FA000000000000000
4FA000000000000000
3FA000000000000100
0DE8545678ABDEFFC1
05FFFFFFFFFFFFFFA0
003ADFFFFFFFFD7200
0000000002FE600000
0000000007F6000000
0000000009F5000000
0000000005FE842110
00000000005BEFFF40
000000000000011100
ENDCHAR
STARTCHAR eogonek
ENCODING 281
SWIDTH 515 0
DWIDTH 19 0
BBX 18 24 0 -5
BITMAP
000000489720000000
00005EFFFFF7000000
0008FE8427FF600000
007FC200005FD00000
02EE1000000CF10000
08F600000009F30000
0DE00000000CF20000
2FC00000009FC00000
4FA000005DFE300000
5FA5978DFFD3000000
4FB7FFFFC600000000
2FD034310000000000
0DF200000000000000
08F800000000000000
01EF50000000000000
004FF9200000000000
0005EFFC8644456793
00002BFFFFFFFFFE60
00000038CEFFFA5000
0000000009FB200000
000000000ED0000000
000000000FD1000000
000000000AFD843300
00000000007BDFFC00
ENDCHAR
STARTCHAR Ecaron
ENCODING 282
SWIDTH 524 0
DWIDTH 19 0
BBX 18 27 0 0
BITMAP
00002B9300018C3000
000005CF916EFD1000
00000006FFFFA10000
000000008FE5000000
014432211620010000
0BFFFFFFFFFFFFF910
0CFFFEEDDCCBBBBE80
0CF300000000000120
0CF400000000000000
0CF400000000000000
0CF400000000000000
0CF400000000000000
0CF400000000133400
0CF4001358ADFFF800
3FFFEFFFFFFFDA4000
2FFECA976531000000
0FE100000000000000
0FB000000000000000
1FA000000000000000
2FA000000000000000
4FA000000000000000
5FA000000000000000
4FA000000000000000
3FA000000000000100
0DE8545678ABDEFFC1
05FFFFFFFFFFFFFFA0
003ADFFFFFEDB96200
ENDCHAR
STARTCHAR ecaron
ENCODING 283
SWIDTH 515 0
DWIDTH 19 0
BBX 18 25 0 0
BITMAP
00004B9200029C1000
000006DF817EFC0000
00000008FFFF900000
00000000AFD4000000
000000001510000000
000000000000000000
000000489720000000
00005EFFFFF7000000
0008FE8427FF600000
007FC200005FD00000
02EE1000000CF10000
08F600000009F30000
0DE00000000CF20000
2FC00000009FC00000
4FA000005DFE300000
5FA5978DFFD3000000
4FB7FFFFC600000000
2FD034310000000000
0DF200000000000000
08F800000000000000
01EF50000000000000
004FF9200000000000
0005EFFC8644456793
00002BFFFFFFFFFE60
00000038CEFEC95000
ENDCHAR
STARTCHAR Gcircumflex
ENCODING 284
SWIDTH 571 0
DWIDTH 21 0
BBX 20 32 1 -3
BITMAP
00000000000140000000
000000000008F8000000
00000000000CFF500000
00000000005FFFE30000
0000000002EFEFFE2000
000000003EFA1AFFA000
00000004EFB000AFF100
00000005E900000AF100
00000000000000000000
00000000000000000000
0000000000048BDB5000
0000000018DFFFFFF500
00000018FFD85346BB00
000004DFB40000000000
00008FE4000000000000
0009FB10000000000000
008FB000000000000000
05FC1000000000000000
0DF30000A72013454000
5FA00000EFFFFFFFF800
AF4000004AAAAAABFE00
CF00000000000000EE00
CE00000000000000EE00
AF10000000000002FE00
6F70000000000009FE00
1EF700000000019FFE00
05FFD7444567BFFFFE00
005EFFFFFFFEA868FE00
00017ABA96200003FE00
0000000000000001FF60
0000000000000000AFE1
00000000000000001630
ENDCHAR
STARTCHAR gcircumflex
ENCODING 285
SWIDTH 366 0
DWIDTH 13 0
BBX 19 45 -5 -18
BITMAP
00000000000420000000
00000000001FE1000000
00000000006FFB000000
0000000000DFFF900000
0000000009FEFFF70000
00000000AFE25EFF2000
0000001BFE4005FF7000
0000001DC300005E7000
00000000000000000000
00000000000000000000
00000000000000000000
00000000000000000000
000000000016AC600000
0000000004EFFFF60000
000000006FE845EE1000
00000004FD20006F7000
0000000DF200003FC000
0000006F8000002FF100
000000CF2000002FF300
000002FC0000002FF500
000004FB0000003FF700
000004FC0000007FF800
000002FF300002EFF900
000000BFD4126DFFFA00
0000002DFFFFFFFFFB00
00000001AFFFC51EFC00
000000000142000BFC00
0000000000000008FD00
0000000000000005FD00
0000000000000003FE00
0000000000000001FE00
0000000000000000FF00
0000000000000000EF10
0000000000000000CF20
0000000000000000CF30
6F20000000000000DF20
BF10000000000000FF00
9F30000000000002FD00
5FC1000000000005FB00
0BFD40000000000AF700
01CFFC500000002FF300
0019FFFE941001CFC000
00003BFFFFFDCEFF4000
00000028DFFFFFF70000
00000000015787200000
ENDCHAR
STARTCHAR Gbreve
ENCODING 286
SWIDTH 571 0
DWIDTH 21 0
BBX 20 26 1 -3
BITMAP
00000091000D80000000
000000C9115F60000000
0000004FFFFA00000000
00000002673000000000
0000000000048BDB5000
0000000018DFFFFFF500
00000018FFD85346BB00
000004DFB40000000000
00008FE4000000000000
0009FB10000000000000
008FB000000000000000
05FC1000000000000000
0DF30000A72013454000
5FA00000EFFFFFFFF800
AF4000004AAAAAABFE00
CF00000000000000EE00
CE00000000000000EE00
AF10000000000002FE00
6F70000000000009FE00
1EF700000000019FFE00
05FFD7444567BFFFFE00
005EFFFFFFFEA868FE00
00017ABA96200003FE00
0000000000000001FF60
0000000000000000AFE1
00000000000000001630
ENDCHAR
STARTCHAR gbreve
ENCODING 287
SWIDTH 366 0
DWIDTH 13 0
BBX 19 38 -5 -18
BITMAP
0000000073000AB00000
000000009B214E900000
000000002EFFFC100000
00000000016740000000
00000000000000000000
000000000016AC600000
0000000004EFFFF60000
000000006FE845EE1000
00000004FD20006F7000
0000000DF200003FC000
0000006F8000002FF100
000000CF2000002FF300
000002FC0000002FF500
000004FB0000003FF700
000004FC0000007FF800
000002FF300002EFF900
000000BFD4126DFFFA00
0000002DFFFFFFFFFB00
00000001AFFFC51EFC00
000000000142000BFC00
0000000000000008FD00
0000000000000005FD00
0000000000000003FE00
0000000000000001FE00
0000000000000000FF00
0000000000000000EF10
0000000000000000CF20
0000000000000000CF30
6F20000000000000DF20
BF10000000000000FF00
9F30000000000002FD00
5FC1000000000005FB00
0BFD40000000000AF700
01CFFC500000002FF300
0019FFFE941001CFC000
00003BFFFFFDCEFF4000
00000028DFFFFFF70000
00000000015787200000
ENDCHAR
STARTCHAR Gdotaccent
ENCODING 288
SWIDTH 571 0
DWIDTH 21 0
BBX 20 26 1 -3
BITMAP
00000000006A30000000
00000000009F90000000
00000000006FA0000000
00000000000520000000
0000000000048BDB5000
0000000018DFFFFFF500
00000018FFD85346BB00
000004DFB40000000000
00008FE4000000000000
0009FB10000000000000
008FB000000000000000
05FC1000000000000000
0DF30000A72013454000
5FA00000EFFFFFFFF800
AF4000004AAAAAABFE00
CF00000000000000EE00
CE00000000000000EE00
AF10000000000002FE00
6F70000000000009FE00
1EF700000000019FFE00
05FFD7444567BFFFFE00
005EFFFFFFFEA868FE00
00017ABA96200003FE00
0000000000000001FF60
0000000000000000AFE1
00000000000000001630
ENDCHAR
STARTCHAR gdotaccent
ENCODING 289
SWIDTH 366 0
DWIDTH 13 0
BBX 19 38 -5 -18
BITMAP
00000000007A20000000
0000000000BF70000000
00000000008F80000000
00000000000510000000
00000000000000000000
000000000016AC600000
0000000004EFFFF60000
000000006FE845EE1000
00000004FD20006F7000
0000000DF200003FC000
0000006F8000002FF100
000000CF2000002FF300
000002FC0000002FF500
000004FB0000003FF700
000004FC0000007FF800
000002FF300002EFF900
000000BFD4126DFFFA00
0000002DFFFFFFFFFB00
00000001AFFFC51EFC00
000000000142000BFC00
0000000000000008FD00
0000000000000005FD00
0000000000000003FE00
0000000000000001FE00
0000000000000000FF00
0000000000000000EF10
0000000000000000CF20
0000000000000000CF30
6F20000000000000DF20
BF10000000000000FF00
9F30000000000002FD00
5FC1000000000005FB00
0BFD40000000000AF700
01CFFC500000002FF300
0019FFFE941001CFC000
00003BFFFFFDCEFF4000
00000028DFFFFFF70000
00000000015787200000
ENDCHAR
STARTCHAR Gcommaaccent
ENCODING 290
SWIDTH 571 0
DWIDTH 21 0
BBX 20 31 1 -12
BITMAP
0000000000048BDB5000
0000000018DFFFFFF500
00000018FFD85346BB00
000004DFB40000000000
00008FE4000000000000
0009FB10000000000000
008FB000000000000000
05FC1000000000000000
0DF30000A72013454000
5FA00000EFFFFFFFF800
AF4000004AAAAAABFE00
CF00000000000000EE00
CE00000000000000EE00
AF10000000000002FE00
6F70000000000009FE00
1EF700000000019FFE00
05FFD7444567BFFFFE00
005EFFFFFFFEA868FE00
00017ABA96200003FE00
0000000000000001FF60
0000000000000000AFE1
00000000000000001630
00000000330000000000
00000001FF3000000000
00000002FF7000000000
000000008F8000000000
000000007F8000000000
00000000AF7000000000
00000003FF3000000000
00000004FB0000000000
00000000510000000000
ENDCHAR
STARTCHAR gcommaaccent
ENCODING 291
SWIDTH 366 0
DWIDTH 13 0
BBX 19 50 -5 -18
BITMAP
00000000000100000000
00000000007B00000000
00000000008F30000000
00000000008F60000000
00000000007F90000000
00000000006FB0000000
00000000004FC0000000
00000000002FC0000000
00000000000CC0000000
00000000000240000000
00000000000000000000
00000000000000000000
00000000000000000000
00000000000000000000
00000000000000000000
00000000000000000000
00000000000000000000
000000000016AC600000
0000000004EFFFF60000
000000006FE845EE1000
00000004FD20006F7000
0000000DF200003FC000
0000006F8000002FF100
000000CF2000002FF300
000002FC0000002FF500
000004FB0000003FF700
000004FC0000007FF800
000002FF300002EFF900
000000BFD4126DFFFA00
0000002DFFFFFFFFFB00
00000001AFFFC51EFC00
000000000142000BFC00
0000000000000008FD00
0000000000000005FD00
0000000000000003FE00
0000000000000001FE00
0000000000000000FF00
0000000000000000EF10
0000000000000000CF20
0000000000000000CF30
6F20000000000000DF20
BF10000000000000FF00
9F30000000000002FD00
5FC1000000000005FB00
0BFD40000000000AF700
01CFFC500000002FF300
0019FFFE941001CFC000
00003BFFFFFDCEFF4000
00000028DFFFFFF70000
00000000015787200000
ENDCHAR
STARTCHAR Hcircumflex
ENCODING 292
SWIDTH 524 0
DWIDTH 19 0
BBX 18 35 0 0
BITMAP
000000001500000000
000000006FA0000000
00000000BFF6000000
00000003FFFF400000
0000001DFEFFE20000
000002DFB09FFC0000
00003EFC1009FF2000
00004EA100009F2000
000000000000000000
000000000000000000
000000000000000130
023000000000000DC0
0AB000000000002F80
0AD000000000003F80
09E000000000003F80
09F100000000003F80
08F300000000004F80
07F500000000004F80
06F700000000004F90
04F800000000004F90
03FA0000000005DF90
02FC00000006DFFFA0
01FE000016DFFDAFA0
00FF1017EFFB404FB0
00FF9AFFFA30002FC0
04FFFFF92000001FC0
5FFFE8200000000FD0
13DFB0000000000EF0
007FB0000000000DF1
004FB0000000000CF3
002FB0000000000CF4
001FB0000000000BF6
000FC00000000009F8
000CC00000000005FB
0005500000000000D9
ENDCHAR
STARTCHAR hcircumflex
ENCODING 293
SWIDTH 427 0
DWIDTH 15 0
BBX 16 29 -1 0
BITMAP
0000000024000000
000000009F700000
00000000DFF40000
04000006FFFE2000
6F30003EFEFFD100
5F9004EF81BFF900
2FE05FFA001BFE00
0DF46E800001BE00
0AF9000000000000
06FD000000000000
02FF100000000000
00EF200000000000
00BF401442000000
009F79FFFFB20000
007FFFFFFFFE2000
005FFF9558DFC000
004FD200001BF600
002FB0000001ED00
000FC00000008F30
000ED00000004F70
000DF00000002FA0
000CF20000002FC0
000BF40000002FE0
000AF60000003FF1
000AF80000003FF1
0009FA0000004FF0
0007FB0000005FE0
0005FA0000006FB0
0002D60000004E40
ENDCHAR
STARTCHAR hbar
ENCODING 295
SWIDTH 427 0
DWIDTH 15 0
BBX 18 26 -3 0
BITMAP
000400000000000000
006F30000000000000
005F90000000000000
002FE0000000000000
000DF4000000000000
000AF9100000000000
2BEFFFFFB100000000
AFFFFFFFF600000000
8963EF224100000000
0000CF401442000000
0000AF79FFFFB20000
00007FFFFFFFFE2000
00005FFF9558DFC000
00004FD200001BF600
00002FB0000001ED00
00001FC00000008F30
00000ED00000004F70
00000DF00000002FA0
00000CF20000002FC0
00000BF40000002FE0
00000AF60000003FF1
00000AF80000003FF1
000009FA0000004FF0
000007FB0000005FE0
000005FA0000006FB0
000002D60000004E40
ENDCHAR
STARTCHAR Itilde
ENCODING 296
SWIDTH 167 0
DWIDTH 6 0
BBX 13 25 -3 0
BITMAP
01672000000520
2DFFF92001AF70
BF506EE88DF700
EB0002CFFF6000
B9000003630000
2506A000000000
0005F400000000
0003F900000000
0000FE00000000
0000BF30000000
00007F60000000
00003FA0000000
00000ED0000000
00000CF1000000
00000AF3000000
000008F6000000
000007F8000000
000005FB000000
000003FD000000
000002FF000000
000000FF200000
000000DF400000
000000CF500000
0000009F600000
0000002D400000
ENDCHAR
STARTCHAR itilde
ENCODING 297
SWIDTH 174 0
DWIDTH 6 0
BBX 13 24 -2 0
BITMAP
01784000000640
2DFEFC3001AF80
9F504DFB9DF700
CC00019FFF6000
9B000001420000
14000000000000
00000000000000
00000000000000
00009900000000
0000BE00000000
0000CE00000000
0000CF00000000
0000CF20000000
0000BF50000000
0000AF70000000
0000AFA0000000
00008FD0000000
00007FF1000000
00005FF3000000
00003FF6000000
00001FF8000000
00000DF9000000
000009F9000000
000003E4000000
ENDCHAR
STARTCHAR imacron
ENCODING 299
SWIDTH 174 0
DWIDTH 6 0
BBX 10 22 -2 0
BITMAP
03789AAA71
4FFFFFFFF9
8FDA7568A6
1000000000
0000000000
0000000000
0000990000
0000BE0000
0000CE0000
0000CF0000
0000CF2000
0000BF5000
0000AF7000
0000AFA000
00008FD000
00007FF100
00005FF300
00003FF600
00001FF800
00000DF900
000009F900
000003E400
ENDCHAR
STARTCHAR Ibreve
ENCODING 300
SWIDTH 167 0
DWIDTH 6 0
BBX 7 28 0 0
BITMAP
82000BA0
BA215E70
3EFFFB00
01674000
00000000
00000000
00000000
00000000
6A000000
5F400000
3F900000
0FE00000
0BF30000
07F60000
03FA0000
00ED0000
00CF1000
00AF3000
008F6000
007F8000
005FB000
003FD000
002FF000
000FF200
000DF400
000CF500
0009F600
0002D400
ENDCHAR
STARTCHAR ibreve
ENCODING 301
SWIDTH 174 0
DWIDTH 6 0
BBX 7 22 -1 0
BITMAP
330005A0
7C1009D0
1EECEF40
028B9300
00000000
00000000
00099000
000BE000
000CE000
000CF000
000CF200
000BF500
000AF700
000AFA00
0008FD00
0007FF10
0005FF30
0003FF60
0001FF80
0000DF90
00009F90
00003E40
ENDCHAR
STARTCHAR Iogonek
ENCODING 302
SWIDTH 167 0
DWIDTH 6 0
BBX 7 26 0 -6
BITMAP
6A000000
5F400000
3F900000
0FE00000
0BF30000
07F60000
03FA0000
00ED0000
00CF1000
00AF3000
008F6000
007F8000
005FB000
003FD000
002FF000
000FF200
000EF400
000CF500
002CF600
09FFE400
7FD30000
CE100000
FD000000
BFC63110
18DFFFD0
00001110
ENDCHAR
STARTCHAR iogonek
ENCODING 303
SWIDTH 174 0
DWIDTH 6 0
BBX 8 28 -1 -6
BITMAP
04810000
08F90000
02980000
00000000
00000000
00000000
00099000
000BE000
000CE000
000CF000
000CF200
000BF500
000AF700
000AFA00
0008FD00
0007FF10
0005FF30
0003FF60
0001FF80
0000DF90
0003DF90
02BFFE40
1DFA2000
5F900000
7F600000
4FE73000
06CFFFF6
00012330
ENDCHAR
STARTCHAR Idotaccent
ENCODING 304
SWIDTH 167 0
DWIDTH 6 0
BBX 7 27 -1 0
BITMAP
2B600000
4FE00000
1FF00000
03400000
00000000
00000000
00000000
06A00000
05F40000
03F90000
00FE0000
00BF3000
007F6000
003FA000
000ED000
000CF100
000AF300
0008F600
0007F800
0005FB00
0003FD00
0002FF00
0000FF20
0000DF40
0000CF50
00009F60
00002D40
ENDCHAR
STARTCHAR dotlessi
ENCODING 305
SWIDTH 174 0
DWIDTH 6 0
BBX 4 16 2 0
BITMAP
9900
BE00
CE00
CF00
CF20
BF50
AF70
AFA0
8FD0
7FF1
5FF3
3FF6
1FF8
0DF9
09F9
03E4
ENDCHAR
STARTCHAR Jcircumflex
ENCODING 308
SWIDTH 439 0
DWIDTH 16 0
BBX 17 35 0 0
BITMAP
000000000003300000
00000000000EF30000
00000000003FFD1000
0000000000BFFFB000
0000000007FEFFF900
000000007FF43DFF40
00000009FF6003EFA0
0000000BD500003E90
000000000000000000
000000000001100000
000000000009B00000
000000000009F20000
000000000007F60000
000000000005F90000
000000000003FC0000
000000000001FF0000
000000000000DF3000
000000000000BF5000
0000000000009F7000
0000000000007F9000
0000000000005FB000
0000000000003FD000
0670000000001FE000
2F80000000000DF100
2FA0000000000DF200
0EE1000000000CF300
06F8000000000CF300
00AF300000000CF200
001CD10000000DF100
0002EC1000000EF000
00003EC200001FD000
000004ED40005F9000
0000003EFA31BF4000
00000001BFFFFC0000
0000000005BFB20000
ENDCHAR
STARTCHAR jcircumflex
ENCODING 309
SWIDTH 200 0
DWIDTH 7 0
BBX 13 44 -4 -17
BITMAP
00000004100000
0000002FD10000
0000007FFB0000
000001DFFF9000
00000AFEFFF600
0000AFE25FFF20
001CFE3005FF70
001DC300005F60
00000000000000
00000000000000
00000000000000
00000000000000
00000002000000
0000001F500000
0000001FC00000
0000000EF20000
0000000DF60000
0000000BFA0000
00000008FE0000
00000006FF2000
00000003FF5000
00000000FF8000
00000000CFB000
000000009FD000
000000006FF100
000000003FF300
000000001FF500
000000000EF700
000000000BF900
0000000009FA00
0000000007FC00
D500000004FD00
ED10000002FE00
BF60000001FF00
7FD0000000FF00
2FF6000000EF10
09FD100000EF00
02EF800000EF00
005FF50000FE00
0008FF7104FC00
00008FFECFF900
000005EFFFF400
00000018DFA000
00000000020000
ENDCHAR
STARTCHAR Kcommaaccent
ENCODING 310
SWIDTH 468 0
DWIDTH 17 0
BBX 16 33 0 -12
BITMAP
3E10000001AF3000
4F5000003DF90000
3F800002EFA00000
2F90002DFB000000
0FB000CFC1000000
0DC009FD20000000
0BE06FE200000000
09F3EE3000000000
07FEF40000000000
06FF700000000000
04FF500000000000
04FFE30000000000
05FFFE2000000000
05FACFE400000000
04F91BFF60000000
04FA009FF9100000
03FC0004EFD40000
02FE00001AFF9100
00FF1000005EFD50
00CF20000001AFF8
006E1000000006DD
0000000000000000
0000000000000000
0000000000000000
0000000240000000
0000000DF5000000
0000000FF9000000
00000005FA000000
00000005FA000000
00000008F9000000
0000001FF5000000
0000002FD0000000
0000000510000000
ENDCHAR
STARTCHAR kcommaaccent
ENCODING 311
SWIDTH 403 0
DWIDTH 15 0
BBX 15 34 0 -12
BITMAP
E100000000000000
E700000000000000
CC00000000000000
AF10000000000000
7F50000000000000
5F90000000210000
2FC000001BF60000
0EF00000BFA00000
0CF30007FA000000
09F6002EA0000000
06F801CB00000000
04FC7DD100000000
02FFFF3000000000
01FFF80000000000
00EFF20000000000
00EFF20000000000
00EFFA0000000000
00EFFFB200000000
00EFCCFF94000000
01FF107FFFEB8610
03FD0002AFFFFF30
01D90000039BA600
0000000000000000
0000000000000000
0000000000000000
0000003300000000
000001FF20000000
000003FF60000000
0000009F70000000
0000008F70000000
000000BF60000000
000004FF20000000
000005FA00000000
0000005100000000
ENDCHAR
STARTCHAR Lacute
ENCODING 313
SWIDTH 346 0
DWIDTH 12 0
BBX 12 28 0 -1
BITMAP
000000000560
000000019F80
0000002DFB00
000002EFA000
00000AF80000
000008700000
000000000000
002100000000
00C900000000
02FB00000000
05FB00000000
08FA00000000
0AF800000000
0BF600000000
0DF400000000
0EF200000000
0FF000000000
1FE000000000
3FC000000000
3FB000000000
4FA000000000
5FA000000000
3FC000000000
1FF300000000
09FEA9765320
01BFFFFFFFFC
0005AEFFFFE8
000000011100
ENDCHAR
STARTCHAR lacute
ENCODING 314
SWIDTH 120 0
DWIDTH 4 0
BBX 6 29 -1 -1
BITMAP
000038
0008FB
01CFC1
1DFB10
8FA000
690000
000000
00D700
00FE00
00FF10
00FF20
00FF20
00FF30
00FF30
01FF40
01FF40
01FF40
01FF50
01FF50
01FF50
01FF50
00FF50
00FF50
00EF50
00DF40
00CF30
00AF10
009D00
000100
ENDCHAR
STARTCHAR Lcommaaccent
ENCODING 315
SWIDTH 346 0
DWIDTH 12 0
BBX 12 32 0 -12
BITMAP
002100000000
00C900000000
02FB00000000
05FB00000000
08FA00000000
0AF800000000
0BF600000000
0DF400000000
0EF200000000
0FF000000000
1FE000000000
3FC000000000
3FB000000000
4FA000000000
5FA000000000
3FC000000000
1FF300000000
09FEA9765320
01BFFFFFFFFC
0005AEFFFFE8
000000011100
000000000000
000000000000
000003300000
00001FF20000
00003FF70000
000008F80000
000008F70000
00000BF60000
00004FF20000
00004FA00000
000005100000
ENDCHAR
STARTCHAR lcommaaccent
ENCODING 316
SWIDTH 120 0
DWIDTH 4 0
BBX 4 33 0 -12
BITMAP
0D70
0FE0
0FF1
0FF2
0FF2
0FF3
0FF3
1FF4
1FF4
1FF4
1FF5
1FF5
1FF5
1FF5
0FF5
0FF5
0EF5
0DF4
0CF3
0AF1
09D0
0010
0000
0000
0330
2FF2
4FF6
09F7
09F7
0BF5
5FF2
5FA0
1500
ENDCHAR
STARTCHAR Lcaron
ENCODING 317
SWIDTH 346 0
DWIDTH 12 0
BBX 12 27 0 -1
BITMAP
000000100000
000000B70000
000000CE0000
000000CF2000
000000BF5000
000000AF7000
0021008F8000
00C9006F8000
02FB001F8000
05FB00043000
08FA00000000
0AF800000000
0BF600000000
0DF400000000
0EF200000000
0FF000000000
1FE000000000
3FC000000000
3FB000000000
4FA000000000
5FA000000000
3FC000000000
1FF300000000
09FEA9765320
01BFFFFFFFFC
0005AEFFFFE8
000000011100
ENDCHAR
STARTCHAR lcaron
ENCODING 318
SWIDTH 222 0
DWIDTH 8 0
BBX 8 28 0 -1
BITMAP
00000100
00000E50
00000FC0
00000EF0
00000EF3
00000DF4
0D700BF5
0FE008F6
0FF103F6
0FF20052
0FF20000
0FF30000
0FF30000
1FF40000
1FF40000
1FF40000
1FF50000
1FF50000
1FF50000
1FF50000
0FF50000
0FF50000
0EF50000
0DF40000
0CF30000
0AF10000
09D00000
00100000
ENDCHAR
STARTCHAR Ldot
ENCODING 319
SWIDTH 346 0
DWIDTH 12 0
BBX 12 21 0 -1
BITMAP
002100000000
00C900000000
02FB00000000
05FB00000000
08FA00000000
0AF800000000
0BF600000000
0DF400000000
0EF200000000
0FF004510000
1FE05FFD1000
3FC0DFFF5000
3FB0AFFE2000
4FA018820000
5FA000000000
3FC000000000
1FF300000000
09FEA9765320
01BFFFFFFFFC
0005AEFFFFE8
000000011100
ENDCHAR
STARTCHAR ldot
ENCODING 320
SWIDTH 333 0
DWIDTH 12 0
BBX 11 22 0 -1
BITMAP
0D7000000000
0FE000000000
0FF100000000
0FF200000000
0FF200000000
0FF300000000
0FF300000000
1FF400000000
1FF400000000
1FF400000000
1FF500045100
1FF5004FFD10
1FF500CFFF60
1FF5009FFE30
0FF500079200
0FF500000000
0EF500000000
0DF400000000
0CF300000000
0AF100000000
09D000000000
001000000000
ENDCHAR
STARTCHAR Lslash
ENCODING 321
SWIDTH 346 0
DWIDTH 12 0
BBX 14 20 0 0
BITMAP
00008100000000
0005F400000000
0009F500000000
000CF500000000
000EF300000000
001FF200000000
003FF000000000
004FD000000000
006FB000000000
007F9550000000
008FEFE1000000
01BFFF80000000
4DFFF600000000
6FFF5000000000
38CF5000000000
009F8000000000
005FE400000000
000CFFFDCB9862
0001BFFFFFFFF6
00000379ABBB81
ENDCHAR
STARTCHAR lslash
ENCODING 322
SWIDTH 120 0
DWIDTH 4 0
BBX 10 21 -3 0
BITMAP
00009C0000
0000AF4000
0000AF6000
0000AF6000
0000AF7000
0000AF7000
0000BF8000
0000BF9990
0000BFFFF2
0000CFFD82
002BFFB000
05EFEFA000
5FD4BFA000
2810BFA000
0000AFA000
0000AFA000
00009FA000
00007F9000
00006F7000
00004F4000
0000160000
ENDCHAR
STARTCHAR Nacute
ENCODING 323
SWIDTH 609 0
DWIDTH 22 0
BBX 20 25 1 0
BITMAP
00000000003800000000
0000000007FC00000000
00000001BFD200000000
0000001CFC2000000000
0000006FB10000000000
0300005A000000000000
9F400000000000000000
7F7000000000005C3000
6FB000000000007FD100
4FF100000000004FF800
4FF500000000000EFE10
4FFA000000000006FF60
5FFE100000000000DFC0
6FFF7000000000005FF2
7FFFD000000000000CF6
8FFFF5000000000006FA
9F44FC000000000002FD
BF10AF600000000001FE
CF102EE20000000002FE
DF2006FD1000000005FC
EF3000BFC20000000CF7
EF50001CFE710001AFE1
FF600002DFFECABFFF40
EF50000019FFFFFFD400
8D100000002699840000
ENDCHAR
STARTCHAR nacute
ENCODING 324
SWIDTH 459 0
DWIDTH 17 0
BBX 15 25 1 0
BITMAP
0000000380000000
0000008FB0000000
00001CFC10000000
0001DFB100000000
0008FA0000000000
0006900000000000
0000000000000000
0000000000000000
0000000000000000
000005BEE9200000
3005DFFFFFE30000
FACFE7324DFD1000
FFFC100001DF9000
FFF20000004FF200
EFA00000000BF800
EF7000000005FD00
DF7000000001FF30
BF8000000000CF60
AFA0000000009F90
8FD0000000007FC0
5FF1000000006FD0
2FF4000000005FD0
0CF8000000005FC0
05F9000000006F90
007A000000006E30
ENDCHAR
STARTCHAR Ncommaaccent
ENCODING 325
SWIDTH 609 0
DWIDTH 22 0
BBX 20 32 1 -12
BITMAP
03000000000000000000
9F400000000000000000
7F7000000000005C3000
6FB000000000007FD100
4FF100000000004FF800
4FF500000000000EFE10
4FFA000000000006FF60
5FFE100000000000DFC0
6FFF7000000000005FF2
7FFFD000000000000CF6
8FFFF5000000000006FA
9F44FC000000000002FD
BF10AF600000000001FE
CF102EE20000000002FE
DF2006FD1000000005FC
EF3000BFC20000000CF7
EF50001CFE710001AFE1
FF600002DFFECABFFF40
EF50000019FFFFFFD400
8D100000002699840000
00000000000000000000
00000000000000000000
00000000000000000000
00000000042000000000
000000005FD000000000
000000007FF300000000
000000000CF400000000
000000000CF400000000
000000001EF200000000
000000008FE000000000
000000008F6000000000
00000000250000000000
ENDCHAR
STARTCHAR ncommaaccent
ENCODING 326
SWIDTH 459 0
DWIDTH 17 0
BBX 15 28 1 -12
BITMAP
000005BEE9200000
3005DFFFFFE30000
FACFE7324DFD1000
FFFC100001DF9000
FFF20000004FF200
EFA00000000BF800
EF7000000005FD00
DF7000000001FF30
BF8000000000CF60
AFA0000000009F90
8FD0000000007FC0
5FF1000000006FD0
2FF4000000005FD0
0CF8000000005FC0
05F9000000006F90
007A000000006E30
0000000000000000
0000000000000000
0000000000000000
0000003300000000
000001FF20000000
000003FF70000000
0000008F80000000
0000008F80000000
000000BF60000000
000004FF30000000
000004FA00000000
0000005100000000
ENDCHAR
STARTCHAR Ncaron
ENCODING 327
SWIDTH 609 0
DWIDTH 22 0
BBX 20 27 1 0
BITMAP
000007B710004BA00000
0000018EE52AFF700000
00000002CFFFE5000000
000000001EFB10000000
00000000035000000000
00000000000000000000
00000000000000000000
03000000000000000000
9F400000000000000000
7F7000000000005C3000
6FB000000000007FD100
4FF100000000004FF800
4FF500000000000EFE10
4FFA000000000006FF60
5FFE100000000000DFC0
6FFF7000000000005FF2
7FFFD000000000000CF6
8FFFF5000000000006FA
9F44FC000000000002FD
BF10AF600000000001FE
CF102EE20000000002FE
DF2006FD1000000005FC
EF3000BFC20000000CF7
EF50001CFE710001AFE1
FF600002DFFECABFFF40
EF50000019FFFFFFD400
8D100000002699840000
ENDCHAR
STARTCHAR ncaron
ENCODING 328
SWIDTH 459 0
DWIDTH 17 0
BBX 15 22 1 0
BITMAP
004B8200029C1000
0006DF817EFB0000
000008FFFF800000
000000AFD3000000
0000001510000000
0000000000000000
000005BEE9200000
3005DFFFFFE30000
FACFE7324DFD1000
FFFC100001DF9000
FFF20000004FF200
EFA00000000BF800
EF7000000005FD00
DF7000000001FF30
BF8000000000CF60
AFA0000000009F90
8FD0000000007FC0
5FF1000000006FD0
2FF4000000005FD0
0CF8000000005FC0
05F9000000006F90
007A000000006E30
ENDCHAR
STARTCHAR napostrophe
ENCODING 329
SWIDTH 459 0
DWIDTH 17 0
BBX 15 25 1 0
BITMAP
0024000000000000
00CF600000000000
00EFB00000000000
004FC00000000000
004FC00000000000
007FA00000000000
00FF700000000000
00FD100000000000
0042000000000000
000005BEE9200000
3005DFFFFFE30000
FACFE7324DFD1000
FFFC100001DF9000
FFF20000004FF200
EFA00000000BF800
EF7000000005FD00
DF7000000001FF30
BF8000000000CF60
AFA0000000009F90
8FD0000000007FC0
5FF1000000006FD0
2FF4000000005FD0
0CF8000000005FC0
05F9000000006F90
007A000000006E30
ENDCHAR
STARTCHAR Omacron
ENCODING 332
SWIDTH 609 0
DWIDTH 22 0
BBX 21 25 0 0
BITMAP
0000000034566630000000
0000002EFFFFFFF6000000
0000008FFEB9ACE7000000
0000003420000000000000
0000000000000000000000
0000000000000000000000
0000000000000000000000
0000014630000000000000
0002AFFFFFB61000000000
003EFDABDFFFE820000000
01EF7000015BFFF7000000
08F7000000003AFFB10000
0ED000000000004EFC1000
3F80000000000002DFB000
5F600000000000002EF700
4F6000000000000005FE10
3F7000000000000000CF60
1FC0000000000000006FB0
0CF4000000000000002FD0
06FD100000000000003FD0
00DFC2000000000000BF80
003FFE50000000004CFD10
0005EFFB5100137CFFD200
00002BFFFFDDFFFFD70000
00000038CEFEC963000000
ENDCHAR
STARTCHAR omacron
ENCODING 333
SWIDTH 487 0
DWIDTH 18 0
BBX 17 20 0 0
BITMAP
000001345665200000
00005FFFFFFFE30000
0000CFFDA9ACE40000
000044100000000000
000000000000000000
0000016ADEFC500000
00018FFFFFFFFA0000
001CFE95228EFF9000
00CFA10000019FF400
08F90000000008FC00
0ED00000000000CF30
3F8000000000008F60
4F6000000000008F80
4F800000000000CF60
2FC00000000005FF30
0DF4000000004EFD00
06FE30000007FFF400
00AFF93116CFFF6000
0009FFFFFFFFD40000
000039DEFDA5000000
ENDCHAR
STARTCHAR Obreve
ENCODING 334
SWIDTH 609 0
DWIDTH 22 0
BBX 21 23 0 0
BITMAP
0000000370003F30000000
00000002F5129F10000000
000000009FFFE500000000
0000000004762000000000
0000000000000000000000
0000014630000000000000
0002AFFFFFB61000000000
003EFDABDFFFE820000000
01EF7000015BFFF7000000
08F7000000003AFFB10000
0ED000000000004EFC1000
3F80000000000002DFB000
5F600000000000002EF700
4F6000000000000005FE10
3F7000000000000000CF60
1FC0000000000000006FB0
0CF4000000000000002FD0
06FD100000000000003FD0
00DFC2000000000000BF80
003FFE50000000004CFD10
0005EFFB5100137CFFD200
00002BFFFFDDFFFFD70000
00000038CEFEC963000000
ENDCHAR
STARTCHAR obreve
ENCODING 335
SWIDTH 487 0
DWIDTH 18 0
BBX 17 21 0 0
BITMAP
0000630009C0000000
00008C313DA0000000
00001DFFFD10000000
000001675000000000
000000000000000000
000000000000000000
0000016ADEFC500000
00018FFFFFFFFA0000
001CFE95228EFF9000
00CFA10000019FF400
08F90000000008FC00
0ED00000000000CF30
3F8000000000008F60
4F6000000000008F80
4F800000000000CF60
2FC00000000005FF30
0DF4000000004EFD00
06FE30000007FFF400
00AFF93116CFFF6000
0009FFFFFFFFD40000
000039DEFDA5000000
ENDCHAR
STARTCHAR Ohungarumlaut
ENCODING 336
SWIDTH 609 0
DWIDTH 22 0
BBX 21 26 0 0
BITMAP
0000000002000000000000
000000008F701930000000
0000001CFD14EF60000000
0000008FD24FF800000000
000000AC10AF7000000000
0000001100660000000000
0000000000000000000000
0000000000000000000000
0000014630000000000000
0002AFFFFFB61000000000
003EFDABDFFFE820000000
01EF7000015BFFF7000000
08F7000000003AFFB10000
0ED000000000004EFC1000
3F80000000000002DFB000
5F600000000000002EF700
4F6000000000000005FE10
3F7000000000000000CF60
1FC0000000000000006FB0
0CF4000000000000002FD0
06FD100000000000003FD0
00DFC2000000000000BF80
003FFE50000000004CFD10
0005EFFB5100137CFFD200
00002BFFFFDDFFFFD70000
00000038CEFEC963000000
ENDCHAR
STARTCHAR ohungarumlaut
ENCODING 337
SWIDTH 487 0
DWIDTH 18 0
BBX 17 21 0 0
BITMAP
000000030000000000
000001AF4029100000
00002DFC06EF400000
0000BFB16FF6000000
0000DB00CF50000000
000020008400000000
0000016ADEFC500000
00018FFFFFFFFA0000
001CFE95228EFF9000
00CFA10000019FF400
08F90000000008FC00
0ED00000000000CF30
3F8000000000008F60
4F6000000000008F80
4F800000000000CF60
2FC00000000005FF30
0DF4000000004EFD00
06FE30000007FFF400
00AFF93116CFFF6000
0009FFFFFFFFD40000
000039DEFDA5000000
ENDCHAR
STARTCHAR OE
ENCODING 338
SWIDTH 848 0
DWIDTH 31 0
BBX 30 18 0 0
BITMAP
000002685100000000000000000000
0002BFFFFFB301DFFEEEDDDDDDDC60
004EFD99BFFF63FEAAA999888778C4
02EF600002BFF7FD00000000000000
09F60000001BFFFD00000000000000
0FD000000002EFFD00000000000000
3F80000000008FFD00000000000000
5F60000000003FFD00012468ACDE60
4F60000000000DFFEEEFFFFECA7200
3F80000000000AFD75433210000000
1FD00000000008F800000000000000
0BF50000000009F600000000000000
06FE200000000BF500000000000000
00CFD20000000EF500000000000000
002EFE6000006FF500000000000000
0003EFFD7205EFF700000001345562
000019FFFFFFFDDFDCCDDEFFFFFFFB
00000027BCDC8117BDEFFEEDDB9730
ENDCHAR
STARTCHAR oe
ENCODING 339
SWIDTH 875 0
DWIDTH 32 0
BBX 31 20 0 -2
BITMAP
00000000000000000000345100000000
0000000000000000006DFFFF80000000
00000000000000001CFE968EFA000000
00000059BDDA4000CF910002EF300000
00006EFFFFFFF808F90000007F800000
001BFFA6449EFF8EE10000003FA00000
00CFB2000002BFFF800000003F900000
07F90000000009FF40000002CF600000
0DD00000000000EF3000005EFC000000
3F800000000000DF75437DFFB1000000
4F600000000000DFAFFFFFD600000000
4F700000000000DF6488630000000000
2FC00000000005FF6000000000000000
0DF4000000003EFFC000000000000000
06FE30000006FFFDF700000000000000
00BFE83015CFFF62EF91000000000000
0019FFFFFFFFE5003EFEA63100123440
000039DFFEB6100002BFFFFFFFFFFD30
00000000000000000004AEFFFFEB6000
00000000000000000000002332000000
ENDCHAR
STARTCHAR Racute
ENCODING 340
SWIDTH 579 0
DWIDTH 21 0
BBX 21 31 -1 -2
BITMAP
0000000000000290000000
0000000000006ED0000000
00000000000AFE30000000
0000000000BFD200000000
0000000005FC1000000000
0000000004A10000000000
0000035677653000000000
006DFFFFFFFFFFB5000000
09FFDA9999ABEFFFD40000
3FE400000000016DFF7000
4F50000000000001AFF300
0C1003500000000009FA00
000009F10000000002FD00
000009F1000000001BFC00
000009F400000016DFF600
000008F700147BFFFF7000
000007FEBDFFFFFE820000
000004FFFFFEC840000000
000002FFD7300000000000
000000FFE2000000000000
000000CFFC000000000000
000000AFBFA00000000000
0000007F3BF90000000000
0000003F61BF9000000000
0000000F900AFA10000000
0000000BD000AFC2000000
00000007F10008FE500000
00000003F200006FFA2000
0000000080000003DFE700
000000000000000019FFB0
0000000000000000002740
ENDCHAR
STARTCHAR racute
ENCODING 341
SWIDTH 346 0
DWIDTH 12 0
BBX 13 24 0 0
BITMAP
00000000740000
0000002BF60000
000004EF900000
00004FF7000000
0000DF50000000
0000A500000000
00000000000000
00000013200000
00028DFFFEA100
3BAFFCCEFFFC00
6FFC300026AC10
5FF20000000000
4FD00000000000
2FD00000000000
0FF00000000000
0CF20000000000
09F60000000000
06FB0000000000
02FF1000000000
00DF6000000000
009FA000000000
003FE000000000
000CF100000000
0005B000000000
ENDCHAR
STARTCHAR Rcommaaccent
ENCODING 342
SWIDTH 579 0
DWIDTH 21 0
BBX 21 35 -1 -12
BITMAP
0000035677653000000000
006DFFFFFFFFFFB5000000
09FFDA9999ABEFFFD40000
3FE400000000016DFF7000
4F50000000000001AFF300
0C1003500000000009FA00
000009F10000000002FD00
000009F1000000001BFC00
000009F400000016DFF600
000008F700147BFFFF7000
000007FEBDFFFFFE820000
000004FFFFFEC840000000
000002FFD7300000000000
000000FFE2000000000000
000000CFFC000000000000
000000AFBFA00000000000
0000007F3BF90000000000
0000003F61BF9000000000
0000000F900AFA10000000
0000000BD000AFC2000000
00000007F10008FE500000
00000003F200006FFA2000
0000000080000003DFE700
000000000000000019FFB0
0000000000000000002740
0000000000000000000000
0000000000140000000000
0000000000BF7000000000
0000000000DFC000000000
00000000003FD000000000
00000000002FD000000000
00000000005FB000000000
0000000000EF8000000000
0000000000EE2000000000
0000000000420000000000
ENDCHAR
STARTCHAR rcommaaccent
ENCODING 343
SWIDTH 346 0
DWIDTH 12 0
BBX 13 29 0 -12
BITMAP
00000013200000
00028DFFFEA100
3BAFFCCEFFFC00
6FFC300026AC10
5FF20000000000
4FD00000000000
2FD00000000000
0FF00000000000
0CF20000000000
09F60000000000
06FB0000000000
02FF1000000000
00DF6000000000
009FA000000000
003FE000000000
000CF100000000
0005B000000000
00000000000000
00000000000000
00000000000000
00000330000000
00001FF2000000
00003FF7000000
000008F8000000
000008F7000000
00000BF6000000
00004FF2000000
00004FA0000000
00000510000000
ENDCHAR
STARTCHAR Rcaron
ENCODING 344
SWIDTH 579 0
DWIDTH 21 0
BBX 21 32 -1 -2
BITMAP
0000003B9200029C100000
00000005DF817EFC000000
0000000008FFFF91000000
00000000009FD400000000
0000000000151000000000
0000000000000000000000
0000000000000000000000
0000035677653000000000
006DFFFFFFFFFFB5000000
09FFDA9999ABEFFFD40000
3FE400000000016DFF7000
4F50000000000001AFF300
0C1003500000000009FA00
000009F10000000002FD00
000009F1000000001BFC00
000009F400000016DFF600
000008F700147BFFFF7000
000007FEBDFFFFFE820000
000004FFFFFEC840000000
000002FFD7300000000000
000000FFE2000000000000
000000CFFC000000000000
000000AFBFA00000000000
0000007F3BF90000000000
0000003F61BF9000000000
0000000F900AFA10000000
0000000BD000AFC2000000
00000007F10008FE500000
00000003F200006FFA2000
0000000080000003DFE700
000000000000000019FFB0
0000000000000000002740
ENDCHAR
STARTCHAR rcaron
ENCODING 345
SWIDTH 346 0
DWIDTH 12 0
BBX 13 22 0 0
BITMAP
03B9200029C100
005DF817EFC000
00008FFFF91000
000009FE400000
00000151000000
00000013200000
00028DFFFEA100
3BAFFCCEFFFC00
6FFC300026AC10
5FF20000000000
4FD00000000000
2FD00000000000
0FF00000000000
0CF20000000000
09F60000000000
06FB0000000000
02FF1000000000
00DF6000000000
009FA000000000
003FE000000000
000CF100000000
0005B000000000
ENDCHAR
STARTCHAR Sacute
ENCODING 346
SWIDTH 627 0
DWIDTH 23 0
BBX 22 30 0 -1
BITMAP
0000000000003800000000
000000000007FB00000000
0000000001CFD100000000
000000001DFC1000000000
000000007FA00000000000
0000000069000000000000
0000000000000000000000
0000000026799751000000
0000004CFFFFFFFFC50000
000006FE8531116DFFA000
00001ED1000000007EF600
00003F7000000000016300
00003F8000000000000000
00000DE200000000000000
000006FE40000000000000
0000007FF9100000000000
00000003CFE92000000000
0000000005DFFA30000000
000000000006EFFA300000
00000000000018EFFA2000
0250000000000019FFE400
0DA00000000000002AFF50
3FC0000000000000005FE2
1EF3000000000000000BF8
07FC000000000000000AF9
009FC20000000000000DF7
0006EFA52000000003BFD1
000029FFFFDCBBCDFFFD30
00000016ADFFFFFFFB6000
0000000000134432000000
ENDCHAR
STARTCHAR sacute
ENCODING 347
SWIDTH 514 0
DWIDTH 19 0
BBX 18 25 0 0
BITMAP
000000000005600000
00000000019F800000
000000003DFB000000
00000003EF90000000
0000000AF800000000
000000086000000000
000000000000000000
000000000000000000
000003565100000000
0018EFFFFFB2000000
01CFFC988CFD100000
08FC2000005F600000
0AF50000001F800000
08F70000003F400000
02FE40000001000000
005FFC864310000000
00029EFFFFFEC95000
00000014689CEFFC20
00000000000004DFD0
000000000000002FF5
283000000000000EF7
1EF810000000002FF6
04EFE931000126DFE1
002CFFFFFFFFFFFE30
000038ADEFFFEB7100
ENDCHAR
STARTCHAR Scircumflex
ENCODING 348
SWIDTH 627 0
DWIDTH 23 0
BBX 22 33 0 -1
BITMAP
0000000000150000000000
00000000006FA000000000
0000000000BFF600000000
0000000003FFFF40000000
000000001DFEFFE2000000
00000002DFB09FFC000000
0000003EFC1009FF200000
0000004EA100009F200000
0000000000000000000000
0000000000000000000000
0000000026799751000000
0000004CFFFFFFFFC50000
000006FE8531116DFFA000
00001ED1000000007EF600
00003F7000000000016300
00003F8000000000000000
00000DE200000000000000
000006FE40000000000000
0000007FF9100000000000
00000003CFE92000000000
0000000005DFFA30000000
000000000006EFFA300000
00000000000018EFFA2000
0250000000000019FFE400
0DA00000000000002AFF50
3FC0000000000000005FE2
1EF3000000000000000BF8
07FC000000000000000AF9
009FC20000000000000DF7
0006EFA52000000003BFD1
000029FFFFDCBBCDFFFD30
00000016ADFFFFFFFB6000
0000000000134432000000
ENDCHAR
STARTCHAR scircumflex
ENCODING 349
SWIDTH 514 0
DWIDTH 19 0
BBX 18 27 0 0
BITMAP
000000001400000000
000000007F90000000
00000000CFF5000000
00000004FFFF300000
0000002DFEFFE20000
000003DFA19FFB0000
00004EFB100AFF1000
00004E910000AF1000
000000000000000000
000000000000000000
000003565100000000
0018EFFFFFB2000000
01CFFC988CFD100000
08FC2000005F600000
0AF50000001F800000
08F70000003F400000
02FE40000001000000
005FFC864310000000
00029EFFFFFEC95000
00000014689CEFFC20
00000000000004DFD0
000000000000002FF5
283000000000000EF7
1EF810000000002FF6
04EFE931000126DFE1
002CFFFFFFFFFFFE30
000038ADEFFFEB7100
ENDCHAR
STARTCHAR Scedilla
ENCODING 350
SWIDTH 627 0
DWIDTH 23 0
BBX 22 33 0 -11
BITMAP
0000000026799751000000
0000004CFFFFFFFFC50000
000006FE8531116DFFA000
00001ED1000000007EF600
00003F7000000000016300
00003F8000000000000000
00000DE200000000000000
000006FE40000000000000
0000007FF9100000000000
00000003CFE92000000000
0000000005DFFA30000000
000000000006EFFA300000
00000000000018EFFA2000
0250000000000019FFE400
0DA00000000000002AFF50
3FC0000000000000005FE2
1EF3000000000000000BF8
07FC000000000000000AF9
009FC20000000000000DF7
0006EFA52000000003BFD1
000029EFFFDCBBCDFFFD30
0000001CDCEFFFFFFB6000
0000000DC0023432000000
0000000CC0000000000000
00000009E2000000000000
00000002EF953000000000
0000000029EFFE70000000
0000000000026DF7000000
00000000000002FD000000
0000002A500000EF000000
0000000AFA1001FD000000
00000001CFD99CE4000000
0000000019EFE930000000
ENDCHAR
STARTCHAR scedilla
ENCODING 351
SWIDTH 514 0
DWIDTH 19 0
BBX 18 28 0 -11
BITMAP
000003565100000000
0018EFFFFFB2000000
01CFFC988CFD100000
08FC2000005F600000
0AF50000001F800000
08F70000003F400000
02FE40000001000000
005FFC864310000000
00029EFFFFFEC95000
00000014689CEFFC20
00000000000004DFD0
000000000000002FF5
283000000000000EF7
1EF810000000002FF6
04EFE931000126DFE1
002CFFFFFFFFFFFE30
00003DDDEFFFEB7100
00000CB00000000000
00000CC00000000000
000009E20000000000
000002EF9530000000
00000029DFFE700000
00000000026DF70000
000000000002FD0000
00002A500000EF0000
00000BFA1001FD0000
000001CFD99CE40000
00000019EFE9200000
ENDCHAR
STARTCHAR Scaron
ENCODING 352
SWIDTH 627 0
DWIDTH 23 0
BBX 22 28 0 -1
BITMAP
0000004B9200029C100000
00000006DF817EFC000000
0000000008FFFF90000000
0000000000AFD400000000
0000000000151000000000
0000000026799751000000
0000004CFFFFFFFFC50000
000006FE8531116DFFA000
00001ED1000000007EF600
00003F7000000000016300
00003F8000000000000000
00000DE200000000000000
000006FE40000000000000
0000007FF9100000000000
00000003CFE92000000000
0000000005DFFA30000000
000000000006EFFA300000
00000000000018EFFA2000
0250000000000019FFE400
0DA00000000000002AFF50
3FC0000000000000005FE2
1EF3000000000000000BF8
07FC000000000000000AF9
009FC20000000000000DF7
0006EFA52000000003BFD1
000029FFFFDCBBCDFFFD30
00000016ADFFFFFFFB6000
0000000000134432000000
ENDCHAR
STARTCHAR scaron
ENCODING 353
SWIDTH 514 0
DWIDTH 19 0
BBX 18 22 0 0
BITMAP
00004B9200029C1000
000006DF817EFC0000
00000008FFFF900000
00000000AFD4000000
000000001510000000
000003565100000000
0018EFFFFFB2000000
01CFFC988CFD100000
08FC2000005F600000
0AF50000001F800000
08F70000003F400000
02FE40000001000000
005FFC864310000000
00029EFFFFFEC95000
00000014689CEFFC20
00000000000004DFD0
000000000000002FF5
283000000000000EF7
1EF810000000002FF6
04EFE931000126DFE1
002CFFFFFFFFFFFE30
000038ADEFFFEB7100
ENDCHAR
STARTCHAR Tcommaaccent
ENCODING 354
SWIDTH 581 0
DWIDTH 21 0
BBX 24 34 0 -11
BITMAP
777777665543220000000000
9FFFFFFFFFFFFFFEDBA85200
002479BCDEFFFFEEFFFFFFC5
00000000000DF1001369DFFE
00000000000CF00000000133
00000000000BF10000000000
00000000000AF20000000000
000000000009F30000000000
000000000008F50000000000
000000000006F70000000000
000000000005F90000000000
000000000004FB0000000000
000000000002FD0000000000
000000000001FF0000000000
000000000000EF2000000000
000000000000DF5000000000
000000000000BF7000000000
0000000000009FA000000000
0000000000007FC000000000
0000000000005FF200000000
0000000000002FF900000000
0000000000000DFF10000000
00000000000005EE20000000
000000000000000000000000
000000000000000000000000
000000000000033000000000
0000000000001FF200000000
0000000000003FF600000000
00000000000009F700000000
00000000000008F700000000
0000000000000BF600000000
0000000000004FF200000000
0000000000005FA000000000
000000000000051000000000
ENDCHAR
STARTCHAR tcommaaccent
ENCODING 355
SWIDTH 328 0
DWIDTH 12 0
BBX 12 34 0 -12
BITMAP
00006E400000
00008FA00000
00007FB00000
00007FC00000
00006FC00000
00006FD00000
00007FE00000
00009FE00000
6BDEFFFFEEC4
5EFFFFFFFFF6
00357FF31100
00004FF00000
00005FF00000
00005FF10000
00005FF10000
00005FF20000
00004FF20000
00003FF30000
00002FF30000
00000FF40000
00000CF40000
000007F40000
000001A30000
000000000000
000000000000
000004100000
00006FC00000
00008FF10000
00000DF20000
00000DF20000
00002EF10000
00009FC00000
0000AF500000
000024000000
ENDCHAR
STARTCHAR Tcaron
ENCODING 356
SWIDTH 581 0
DWIDTH 21 0
BBX 24 27 0 0
BITMAP
000002B9300018C300000000
0000004CFA16EFD100000000
000000006FFFFA1000000000
0000000007FE500000000000
777777665595220000000000
9FFFFFFFFFFFFFFEDBA85200
002479BCDEFFFFEEFFFFFFC5
00000000000DF1001369DFFE
00000000000CF00000000133
00000000000BF10000000000
00000000000AF20000000000
000000000009F30000000000
000000000008F50000000000
000000000006F70000000000
000000000005F90000000000
000000000004FB0000000000
000000000002FD0000000000
000000000001FF0000000000
000000000000EF2000000000
000000000000DF5000000000
000000000000BF7000000000
0000000000009FA000000000
0000000000007FC000000000
0000000000005FF200000000
0000000000002FF900000000
0000000000000DFF10000000
00000000000005EE20000000
ENDCHAR
STARTCHAR tcaron
ENCODING 357
SWIDTH 431 0
DWIDTH 16 0
BBX 15 28 0 -1
BITMAP
0000000000000100
0000000000006D00
0000000000007F40
0000000000007F80
0000000000006FA0
00006E4000005FC0
00008FA000003FD0
00007FB000001FE0
00007FC000000BE0
00006FC000000250
00006FD000000000
00007FE000000000
00009FE000000000
6BDEFFFFEEC40000
5EFFFFFFFFF60000
00357FF311000000
00004FF000000000
00005FF000000000
00005FF100000000
00005FF100000000
00005FF200000000
00004FF200000000
00003FF300000000
00002FF300000000
00000FF400000000
00000CF400000000
000007F400000000
000001A300000000
ENDCHAR
STARTCHAR Utilde
ENCODING 360
SWIDTH 571 0
DWIDTH 21 0
BBX 19 25 1 0
BITMAP
00000573000000430000
0001BFFFB30007FA0000
0008F704DF97BF900000
000BD0001AFFF9000000
0009C000002640000000
04716000000000200000
3FF20000000001F30000
9F500000000005F80000
CC000000000007FB0000
EB000000000008FD0000
FA000000000007FE0000
FA000000000004FE0000
FB000000000002FF0000
EC000000000000DF1000
CE0000000000009F4000
9F1000000000006F9000
7F5000000000003FE000
3F9000000000003FF400
0EE100000000008FF900
0AF60000000003EFFE10
04FE100000004EFFFF60
00BFC1000018FF95EFB0
003EFE967AFFC3007FE0
0004EFFFFFF800000BD0
00002AEFD82000000000
ENDCHAR
STARTCHAR utilde
ENCODING 361
SWIDTH 501 0
DWIDTH 18 0
BBX 18 25 0 -1
BITMAP
000004740000003500
00009FFFC40006FC00
0006F913CFB7AFB100
0009F10008FFFB0000
0006E0000026510000
000060000000000000
000000000000000000
065000000000000000
2FB000000000000000
6F90000000001C6000
7F70000000003FD000
6F60000000003FF100
5F70000000003FF300
4FA0000000003FF400
2FD0000000003FF500
0DF2000000003FF600
09F7000000007FF600
04FD10000001EFF800
00DF7000000AFFFD00
004FF400009FE6EF30
000AFF722AFD207F80
0001BFFFFFD2002FE0
000006CEE910000DF4
0000000000000009F7
000000000000000020
ENDCHAR
STARTCHAR Umacron
ENCODING 362
SWIDTH 571 0
DWIDTH 21 0
BBX 19 25 1 0
BITMAP
00000024566640000000
00000BFFFFFFFA000000
00003FFECA9BDC000000
00001430000000000000
00000000000000000000
04700000000000200000
3FF20000000001F30000
9F500000000005F80000
CC000000000007FB0000
EB000000000008FD0000
FA000000000007FE0000
FA000000000004FE0000
FB000000000002FF0000
EC000000000000DF1000
CE0000000000009F4000
9F1000000000006F9000
7F5000000000003FE000
3F9000000000003FF400
0EE100000000008FF900
0AF60000000003EFFE10
04FE100000004EFFFF60
00BFC1000018FF95EFB0
003EFE967AFFC3007FE0
0004EFFFFFF800000BD0
00002AEFD82000000000
ENDCHAR
STARTCHAR umacron
ENCODING 363
SWIDTH 501 0
DWIDTH 18 0
BBX 18 23 0 -1
BITMAP
000003456663000000
0001CFFFFFFF800000
0005FFEB9ACEA00000
000242000000000000
000000000000000000
065000000000000000
2FB000000000000000
6F90000000001C6000
7F70000000003FD000
6F60000000003FF100
5F70000000003FF300
4FA0000000003FF400
2FD0000000003FF500
0DF2000000003FF600
09F7000000007FF600
04FD10000001EFF800
00DF7000000AFFFD00
004FF400009FE6EF30
000AFF722AFD207F80
0001BFFFFFD2002FE0
000006CEE910000DF4
0000000000000009F7
000000000000000020
ENDCHAR
STARTCHAR Ubreve
ENCODING 364
SWIDTH 571 0
DWIDTH 21 0
BBX 19 23 1 0
BITMAP
00000091000D80000000
000000C9115F60000000
0000004FFFFA00000000
04700002673000200000
3FF20000000001F30000
9F500000000005F80000
CC000000000007FB0000
EB000000000008FD0000
FA000000000007FE0000
FA000000000004FE0000
FB000000000002FF0000
EC000000000000DF1000
CE0000000000009F4000
9F1000000000006F9000
7F5000000000003FE000
3F9000000000003FF400
0EE100000000008FF900
0AF60000000003EFFE10
04FE100000004EFFFF60
00BFC1000018FF95EFB0
003EFE967AFFC3007FE0
0004EFFFFFF800000BD0
00002AEFD82000000000
ENDCHAR
STARTCHAR ubreve
ENCODING 365
SWIDTH 501 0
DWIDTH 18 0
BBX 18 23 0 -1
BITMAP
0000370003F3000000
00002F5129F1000000
000009FFFF50000000
000000476200000000
000000000000000000
065000000000000000
2FB000000000000000
6F90000000001C6000
7F70000000003FD000
6F60000000003FF100
5F70000000003FF300
4FA0000000003FF400
2FD0000000003FF500
0DF2000000003FF600
09F7000000007FF600
04FD10000001EFF800
00DF7000000AFFFD00
004FF400009FE6EF30
000AFF722AFD207F80
0001BFFFFFD2002FE0
000006CEE910000DF4
0000000000000009F7
000000000000000020
ENDCHAR
STARTCHAR Uring
ENCODING 366
SWIDTH 571 0
DWIDTH 21 0
BBX 19 26 1 0
BITMAP
00000001574000000000
0000005ECDF500000000
000002E3008E00000000
000005B0001F20000000
000003E1008E00000000
0000009DACE400000000
04700004761000200000
3FF20000000001F30000
9F500000000005F80000
CC000000000007FB0000
EB000000000008FD0000
FA000000000007FE0000
FA000000000004FE0000
FB000000000002FF0000
EC000000000000DF1000
CE0000000000009F4000
9F1000000000006F9000
7F5000000000003FE000
3F9000000000003FF400
0EE100000000008FF900
0AF60000000003EFFE10
04FE100000004EFFFF60
00BFC1000018FF95EFB0
003EFE967AFFC3007FE0
0004EFFFFFF800000BD0
00002AEFD82000000000
ENDCHAR
STARTCHAR uring
ENCODING 367
SWIDTH 501 0
DWIDTH 18 0
BBX 18 22 0 -1
BITMAP
000000026720000000
0000008ECEE2000000
000006D101BA000000
00000970005D000000
065007A001CA000000
2FB001DCAED1000000
6F90000575001C6000
7F70000000003FD000
6F60000000003FF100
5F70000000003FF300
4FA0000000003FF400
2FD0000000003FF500
0DF2000000003FF600
09F7000000007FF600
04FD10000001EFF800
00DF7000000AFFFD00
004FF400009FE6EF30
000AFF722AFD207F80
0001BFFFFFD2002FE0
000006CEE910000DF4
0000000000000009F7
000000000000000020
ENDCHAR
STARTCHAR Uhungarumlaut
ENCODING 368
SWIDTH 571 0
DWIDTH 21 0
BBX 19 26 1 0
BITMAP
00000001100000000000
0000005EC00760000000
000008FF52BFB0000000
00003FF51DFC10000000
00005F405FB100000000
00000200391000000000
04700000000000200000
3FF20000000001F30000
9F500000000005F80000
CC000000000007FB0000
EB000000000008FD0000
FA000000000007FE0000
FA000000000004FE0000
FB000000000002FF0000
EC000000000000DF1000
CE0000000000009F4000
9F1000000000006F9000
7F5000000000003FE000
3F9000000000003FF400
0EE100000000008FF900
0AF60000000003EFFE10
04FE100000004EFFFF60
00BFC1000018FF95EFB0
003EFE967AFFC3007FE0
0004EFFFFFF800000BD0
00002AEFD82000000000
ENDCHAR
STARTCHAR uhungarumlaut
ENCODING 369
SWIDTH 501 0
DWIDTH 18 0
BBX 18 26 0 -1
BITMAP
000000001100000000
00000004EC00660000
0000007FF51BFC0000
000002FF50CFC10000
000004F504FC100000
000000200291000000
000000000000000000
000000000000000000
065000000000000000
2FB000000000000000
6F90000000001C6000
7F70000000003FD000
6F60000000003FF100
5F70000000003FF300
4FA0000000003FF400
2FD0000000003FF500
0DF2000000003FF600
09F7000000007FF600
04FD10000001EFF800
00DF7000000AFFFD00
004FF400009FE6EF30
000AFF722AFD207F80
0001BFFFFFD2002FE0
000006CEE910000DF4
0000000000000009F7
000000000000000020
ENDCHAR
STARTCHAR Uogonek
ENCODING 370
SWIDTH 571 0
DWIDTH 21 0
BBX 21 24 1 -6
BITMAP
04E7000000000054000000
0EF50000000000CB000000
4F600000000000FF100000
7F300000000001FF300000
8F200000000001FF500000
9F100000000000FF500000
9F200000000000CF600000
8F3000000000009F700000
7F4000000000005F900000
4F6000000000001FC00000
2F9000000000000DF20000
0ED000000000000BF70000
0AF200000000000DFC0000
06F900000000005FFF3000
01FE1000000003EFFF9000
009FB00000005EFDFFE000
002EFB30004BFE605FF400
0005FFFDCEFFB2029FF600
00005EFFFFD5006FFA7200
00000179840002FE400000
00000000000006F6000000
00000000000007FA000000
00000000000002DFD96630
0000000000000016ABCC40
ENDCHAR
STARTCHAR uogonek
ENCODING 371
SWIDTH 501 0
DWIDTH 18 0
BBX 19 22 0 -5
BITMAP
0A900000000000000000
4FB00000000002100000
7F80000000002F900000
7F60000000003FE00000
6F60000000003FF20000
5F80000000003FF30000
3FB0000000003FF40000
1FE0000000003FF50000
0CF4000000004FF60000
08F9000000009FF70000
02FF20000004FFF90000
00AFA000001DFFFE0000
002EF80001DFA2CF5000
0006FFC77EFA005FA000
00006FFFFF80001FF100
00000279940004BFF600
0000000000007FFAC500
000000000001FD300000
000000000005F6000000
000000000005FC100000
000000000000BFFB9850
00000000000003799A30
ENDCHAR
STARTCHAR Wcircumflex
ENCODING 372
SWIDTH 703 0
DWIDTH 25 0
BBX 25 32 0 0
BITMAP
00000000000042000000000000
000000000001FE100000000000
000000000006FFB00000000000
00000000000DFFF90000000000
00000000009FEFFF7000000000
0000000009FE24EFF200000000
00000001BFE4004FF700000000
00000000DC300005E700000000
00000000000000000000000000
00000000000000000000000000
00000000000000000000000000
00000000000000000000000000
00000000000000000000000000
00000000000000000000000000
1C100000000000000000410000
6F300000000000000001FC0000
9F400000000000000000FF6000
AF600000000000000000CFD000
AF7000000000000000007FF300
9F8000000000000000002FF800
8F9000000021000000000BFC00
7FB0000000CA0000000005FF10
5FC0000000CE0000000000EF40
3FE0000000CF3000000000AF70
0FF1000000DF80000000007F90
0CF4000000FFE0000000006F90
08F8000006FFF7000000008F70
04FD00004FFFFE30000002EF30
00CF7005EFC18FE300002CFA00
004FFCCFFA1008FFA669FFD100
0007FFFF7000007FFFFFFB1000
000039A300000003BEEB500000
ENDCHAR
STARTCHAR wcircumflex
ENCODING 373
SWIDTH 656 0
DWIDTH 24 0
BBX 23 27 0 0
BITMAP
000000000003300000000000
00000000000EF30000000000
00000000003FFD1000000000
0000000000BFFFB000000000
0000000007FEFFF900000000
000000007FF43DFF40000000
00000009FF6003EFA0000000
0000000BD500003E90000000
000000000000000000000000
000000000000000000000000
000000000000000000000000
001000000000000000000000
03E100000000000000000000
0BF100000000000000000000
2FE0000000000000004B2000
6FA0000000034000001EC000
9F700000000DD0000007F700
AF500000000EF1000001FE00
9F600000000FF3000000BF40
7F800000000FF50000009F70
4FB00000001FF70000007F90
0EF10000004FFB0000008FA0
08F8000001CFFF200000DF80
01EF30003DFFDFC10019FF40
005FE75AFFF72DFEBBEFFC00
0006FFFFFF7002DFFFFFD200
00003AED9300000466651000
ENDCHAR
STARTCHAR Ycircumflex
ENCODING 374
SWIDTH 403 0
DWIDTH 15 0
BBX 14 33 0 -1
BITMAP
00000014000000
0000007F900000
000000BFF60000
000004FFFF4000
00002DFEFFE200
0002DFB09FFB00
003EFC100AFF20
004E910000AF10
01000000000000
5E100000000000
5F70000000009A
2FE100000000FC
0BFA00000002FB
04FF60000007F9
009FF500000DF5
000AFF50005FF1
00009FFA30CFB0
000005EFFFFF60
00000019FFFF10
000000002EF900
000000000EF300
000000004FD000
000000009F7000
00000000DF2000
00000003FB0000
00000006F70000
00000009F40000
0000000BF20000
0000000DF00000
0000000DF00000
0000000DF00000
0000000DF10000
00000004600000
ENDCHAR
STARTCHAR ycircumflex
ENCODING 375
SWIDTH 487 0
DWIDTH 18 0
BBX 17 45 0 -18
BITMAP
000000003200000000
00000000EE20000000
00000004FFD1000000
0000000BFFFB000000
0000007FEFFF900000
000008FF43EFF40000
0000AFF5003EF90000
0000BD400004E90000
000000000000000000
000000000000000000
000000000000000000
06000000000000A000
3F000000000001F200
6F200000000001F600
5F500000000001F900
4F700000000001FC00
3FA00000000000FF00
1FD00000000000EF20
0CF30000000000EF40
08F80000000000DF60
02FD0000000000DF80
009F7000000006FF90
002EE20000007FFFA0
0006FD40002AFFFFC0
00006FFDBCFFC42EC0
000004CFFFD5000BC0
000000024300000AD0
000000000000000AD0
000000000000000AE0
000000000000000BE0
000000000000000CD0
000000000000000ED0
000000000000000FC0
000000000000002FB0
000000000000004F90
000000000000006F70
001000000000009F50
05E20000000000CF20
04FD2000000001FD00
00DFD200000006F900
004FFD4000001DF300
0004EFF91001AFB000
00002BFFFCBEFE2000
0000005CFFFFE40000
000000002687100000
ENDCHAR
STARTCHAR Ydieresis
ENCODING 376
SWIDTH 403 0
DWIDTH 15 0
BBX 14 29 0 -1
BITMAP
0005D80009C400
001EFF506FFE00
001EFF305FFD00
00028300057100
01000000000000
5E100000000000
5F70000000009A
2FE100000000FC
0BFA00000002FB
04FF60000007F9
009FF500000DF5
000AFF50005FF1
00009FFA30CFB0
000005EFFFFF60
00000019FFFF10
000000002EF900
000000000EF300
000000004FD000
000000009F7000
00000000DF2000
00000003FB0000
00000006F70000
00000009F40000
0000000BF20000
0000000DF00000
0000000DF00000
0000000DF00000
0000000DF10000
00000004600000
ENDCHAR
STARTCHAR Zacute
ENCODING 377
SWIDTH 571 0
DWIDTH 21 0
BBX 20 31 0 0
BITMAP
00000000000191000000
00000000004EE1000000
0000000008FE40000000
000000009FE300000000
00000003FD2000000000
00000002B10000000000
00000000000000000000
00000000000000000000
00014443100000000000
05CFFFFFFD9200000000
3FFFB868AEFF60000000
4A610000006EF5000000
000000000003EE000000
0000000000008F400000
0000000000004F600000
0000000000005F700000
0000000000008F400000
000000000000DE000000
00000000001AFE310000
000000468BEFFFFFEC40
00009FFFFFFFFFFEFB30
0001ECB98EFFC4012000
0000000009FB10000000
000000001DD100000000
000000009F5000000000
00000006FA0000000000
0000003FF20000000000
000000BF8000000269A9
000000EF70136AEFFFFD
000000BFFFFFFFFFFC82
0000003DFFFEDB952000
ENDCHAR
STARTCHAR zacute
ENCODING 378
SWIDTH 459 0
DWIDTH 17 0
BBX 16 26 0 0
BITMAP
0000000008200000
00000003CF300000
0000006FF6000000
000006FF50000000
00000FE400000000
00001B3000000000
0000000000000000
0002579984000000
04CFFFFFFFC10000
3FFD77777CFA0000
2FC1000001FF1000
0110000000DF2000
0000000000EF1000
0000000002FC0000
000000000AF70000
000000005FF52100
0378ACDFFFFFFC00
0AFFFFFFFCA87200
024456EFC0000000
000009FD20000000
00006FF300000000
0002FF7000000000
000AFF30000027D4
000EFFC7579DFFF6
0009FFFFFFFFFD60
00005BEFECA73000
ENDCHAR
STARTCHAR Zdotaccent
ENCODING 379
SWIDTH 571 0
DWIDTH 21 0
BBX 20 28 0 0
BITMAP
00000007A20000000000
0000000BF70000000000
00000008F80000000000
00000000510000000000
00000000000000000000
00014443100000000000
05CFFFFFFD9200000000
3FFFB868AEFF60000000
4A610000006EF5000000
000000000003EE000000
0000000000008F400000
0000000000004F600000
0000000000005F700000
0000000000008F400000
000000000000DE000000
00000000001AFE310000
000000468BEFFFFFEC40
00009FFFFFFFFFFEFB30
0001ECB98EFFC4012000
0000000009FB10000000
000000001DD100000000
000000009F5000000000
00000006FA0000000000
0000003FF20000000000
000000BF8000000269A9
000000EF70136AEFFFFD
000000BFFFFFFFFFFC82
0000003DFFFEDB952000
ENDCHAR
STARTCHAR zdotaccent
ENCODING 380
SWIDTH 459 0
DWIDTH 17 0
BBX 16 24 0 0
BITMAP
00000006A3000000
00000009F9000000
00000006FA000000
0000000052000000
0000000000000000
0002579984000000
04CFFFFFFFC10000
3FFD77777CFA0000
2FC1000001FF1000
0110000000DF2000
0000000000EF1000
0000000002FC0000
000000000AF70000
000000005FF52100
0378ACDFFFFFFC00
0AFFFFFFFCA87200
024456EFC0000000
000009FD20000000
00006FF300000000
0002FF7000000000
000AFF30000027D4
000EFFC7579DFFF6
0009FFFFFFFFFD60
00005BEFECA73000
ENDCHAR
STARTCHAR Zcaron
ENCODING 381
SWIDTH 571 0
DWIDTH 21 0
BBX 20 28 0 0
BITMAP
00008B600004B9000000
000018FD42AFF6000000
0000002CFFFE50000000
00000001EFA100000000
00000000340000000000
00014443100000000000
05CFFFFFFD9200000000
3FFFB868AEFF60000000
4A610000006EF5000000
000000000003EE000000
0000000000008F400000
0000000000004F600000
0000000000005F700000
0000000000008F400000
000000000000DE000000
00000000001AFE310000
000000468BEFFFFFEC40
00009FFFFFFFFFFEFB30
0001ECB98EFFC4012000
0000000009FB10000000
000000001DD100000000
000000009F5000000000
00000006FA0000000000
0000003FF20000000000
000000BF8000000269A9
000000EF70136AEFFFFD
000000BFFFFFFFFFFC82
0000003DFFFEDB952000
ENDCHAR
STARTCHAR zcaron
ENCODING 382
SWIDTH 459 0
DWIDTH 17 0
BBX 16 25 0 0
BITMAP
009B500006C70000
0029FC33BFF50000
00003DFFFD400000
000002FF91000000
0000004400000000
0000000000000000
0002579984000000
04CFFFFFFFC10000
3FFD77777CFA0000
2FC1000001FF1000
0110000000DF2000
0000000000EF1000
0000000002FC0000
000000000AF70000
000000005FF52100
0378ACDFFFFFFC00
0AFFFFFFFCA87200
024456EFC0000000
000009FD20000000
00006FF300000000
0002FF7000000000
000AFF30000027D4
000EFFC7579DFFF6
0009FFFFFFFFFD60
00005BEFECA73000
ENDCHAR
STARTCHAR florin
ENCODING 402
SWIDTH 376 0
DWIDTH 14 0
BBX 21 36 -4 -10
BITMAP
0000000000002441000000
00000000002BFFFFA20000
0000000003EFFCAEFE5000
000000000DFC2001BFF400
000000006FD100000AFE10
00000000BF60000000AF40
00000001FE100000000100
00000003FB000000000000
00000006FA000000000000
00000008F9000000000000
00000009FA000000000000
0000000AFA000000000000
0000000AFB000000000000
00000009FB000000000000
0000046BFEA87543000000
0002DFFFFFFFFFFF800000
0003CA74EF657997200000
00000000CF400000000000
00000000CF300000000000
00000000CF300000000000
00000000DF300000000000
00000000DF300000000000
00000000EF200000000000
00000000FF200000000000
00000000FF100000000000
00000001FF000000000000
00000002FF000000000000
00000003FE000000000000
04000004FD000000000000
4F900005FC000000000000
1DF60005FB000000000000
03FF6005FA000000000000
003EF818F9000000000000
0002CFFFF9000000000000
000006EFF7000000000000
0000000450000000000000
ENDCHAR
STARTCHAR AEacute
ENCODING 508
SWIDTH 960 0
DWIDTH 35 0
BBX 34 31 0 0
BITMAP
0000000000000000000056000000000000
00000000000000000019F8000000000000
000000000000000003DFB0000000000000
00000001454100003EF900000000000000
000002AFFFFE9100AF8000000000000000
00003EF9669EFC10860000000000000000
0001DE300002BFC0000000000000000000
0008F40000001CF7000000000000000000
000EB000000002EE104554433222222100
003F50000000007F72FFFFFFFFFFFFFE60
007F10000000001FD3FEDDCCBBBAA99BF2
00AD00000000000AF6FC00000000000010
00CA000000000004FBFC00000000000000
00E8000000000001FFFC00000000000000
00F7000000000000CFFC00000000000000
01F60000000000009FFC00000000000000
02F50000000000007FFC00000000134630
03F50000000000006FFD112368ADFFFE20
04F62100000000008FFFFFFFFFFFDA6100
1BFFFFFEDCBBA987DFFFB9765420000000
2EFFB98889ACEFFFFFF800000000000000
05FB0000000000212FF500000000000000
00FA0000000000000EF400000000000000
00FB0000000000000CF400000000000000
00FD0000000000000CF400000000000000
00FF0000000000000CF400000000000000
00DF3000000000000DF400000000000000
00BF6000000000001FF400000000001220
009F8000000000004FFD866789ACEFFFF9
004FA000000000006FFFFFFFFFFFFFFFD4
000B9000000000006E64ADEEEEDCB97300
ENDCHAR
STARTCHAR aeacute
ENCODING 509
SWIDTH 881 0
DWIDTH 32 0
BBX 32 27 0 -1
BITMAP
00000000000000000074000000000000
00000000000000002BF5000000000000
0000000000000004EF80000000000000
000000000000005FF700000000000000
00000000000000DF5000000000000000
00000000000000A40000000000000000
00000000000000000000000000000000
00000000000000000000000000000000
0000019ED920000000038AB930000000
00000AFFFFF8000001AFFFFFF7000000
00000A8249FFB0001DFB4006FF500000
00000000003DFA00CF8000006FB00000
000000000002EF66FA0000000EE00000
0000000000006FEDF20000000CF10000
0000000110000EFFB00000002EE00000
00017CFFFEB83CFF80000003DF800000
004EFFFECBEFFFFF7000039FFC100000
04FFD6200016DFFF99CACFFF91000000
0DF7000000001BFFC8FFFD8200000000
3FA00000000000BFE011000000000000
4F6000000000002FF000000000000000
2FA0000000000009F700000000000000
0BFA200000000003FF50000000000000
02DFFC96678ACEFFFFFA400000000000
001AFFFFFFFFFFFA45EFFEB87678ABA1
000027ACDEEC8410002AFFFFFFFFFA20
0000000000000000000026ABCB962000
ENDCHAR
STARTCHAR Oslashacute
ENCODING 510
SWIDTH 609 0
DWIDTH 22 0
BBX 21 30 0 -4
BITMAP
0000000000001000000000
000000000008E000000000
0000000003CF8000000000
000000004EF90000000000
00000002FF700000000000
00000007F5000000000000
0000000240000000000000
0000000000000360000000
0000014630000BC0000000
0002AFFFFFB61F90000000
003EFDABDFFFFF60000000
01EF7000016BFFE6000000
08F700000000DEFFB10000
0ED000000003F85EFC1000
3F8000000009F202DFB000
5F600000001EC0002EF700
4F600000006F700005FE10
3F70000000CF200000CF60
1FC0000003FB0000006FB0
0CF4000009F60000002FD0
06FD10001EE10000003FD0
00DFC2006F90000000BF80
003FFE50CF3000004CFD10
0004EFFCFC00137CFFD200
00002BFFFFDDFFFFD70000
0000006FFEFEC963000000
000000AF70000000000000
000001EE10000000000000
000001F700000000000000
0000002000000000000000
ENDCHAR
STARTCHAR oslashacute
ENCODING 511
SWIDTH 487 0
DWIDTH 18 0
BBX 17 22 0 0
BITMAP
000000000036000000
0000000008FA000000
00000002CFC1000000
0000002DFA10000000
0000009F9000000000
000000880000000000
000000000000001000
00000059BDDB46F500
00006EFFFFFFFFF300
001BFFA6449FFFC000
00CFB2000004FFF300
07F90000001CFDFC00
0DD00000009FC1DF20
3F80000006FF308F60
4F6000002EF7008F80
4F700001CFB000CF60
2FC00009FE2005FF40
0DF4005FF4003EFD00
06FE33EF8006FFF400
00AFEEFA15CFFF7000
001AFFFFFFFFE50000
0003EBDFFEB6100000
ENDCHAR
STARTCHAR Scommaaccent
ENCODING 536
SWIDTH 627 0
DWIDTH 23 0
BBX 22 34 0 -12
BITMAP
0000000026799751000000
0000004CFFFFFFFFC50000
000006FE8531116DFFA000
00001ED1000000007EF600
00003F7000000000016300
00003F8000000000000000
00000DE200000000000000
000006FE40000000000000
0000007FF9100000000000
00000003CFE92000000000
0000000005DFFA30000000
000000000006EFFA300000
00000000000018EFFA2000
0250000000000019FFE400
0DA00000000000002AFF50
3FC0000000000000005FE2
1EF3000000000000000BF8
07FC000000000000000AF9
009FC20000000000000DF7
0006EFA52000000003BFD1
000029FFFFDCBBCDFFFD30
00000016ADFFFFFFFB6000
0000000000134432000000
0000000000000000000000
0000000000000000000000
0000000001400000000000
000000000BF70000000000
000000000DFC0000000000
0000000003FD0000000000
0000000002FD0000000000
0000000005FB0000000000
000000000EF80000000000
000000000EE20000000000
0000000004200000000000
ENDCHAR
STARTCHAR scommaaccent
ENCODING 537
SWIDTH 514 0
DWIDTH 19 0
BBX 18 29 0 -12
BITMAP
000003565100000000
0018EFFFFFB2000000
01CFFC988CFD100000
08FC2000005F600000
0AF50000001F800000
08F70000003F400000
02FE40000001000000
005FFC864310000000
00029EFFFFFEC95000
00000014689CEFFC20
00000000000004DFD0
000000000000002FF5
283000000000000EF7
1EF810000000002FF6
04EFE931000126DFE1
002CFFFFFFFFFFFE30
000038ADEFFFEB7100
000000000000000000
000000000000000000
000000000000000000
000000003300000000
00000001FF30000000
00000002FF70000000
000000008F80000000
000000007F80000000
00000000AF60000000
00000004FF30000000
00000004FB00000000
000000005100000000
ENDCHAR
STARTCHAR circumflex
ENCODING 710
SWIDTH 375 0
DWIDTH 14 0
BBX 11 8 1 19
BITMAP
000004200000
00001FE10000
00006FFB0000
0000DFFF9000
0009FEFFF700
00AFE25EFF20
1BFE4005FF70
1DC300005E70
ENDCHAR
STARTCHAR caron
ENCODING 711
SWIDTH 375 0
DWIDTH 14 0
BBX 10 5 2 17
BITMAP
AA500006C6
3AFC24CFE3
004EFFFC30
0004FF8000
0000530000
ENDCHAR
STARTCHAR breve
ENCODING 728
SWIDTH 224 0
DWIDTH 8 0
BBX 8 4 0 14
BITMAP
280001F5
1F7117F3
07FFFF70
00376200
ENDCHAR
STARTCHAR dotaccent
ENCODING 729
SWIDTH 152 0
DWIDTH 5 0
BBX 4 4 1 16
BITMAP
2B60
4FE0
1EF1
0340
ENDCHAR
STARTCHAR ring
ENCODING 730
SWIDTH 333 0
DWIDTH 12 0
BBX 7 7 3 14
BITMAP
00267200
09ECEE20
6C101CA0
A70006D0
8A001CA0
1DCAEC10
01575000
ENDCHAR
STARTCHAR ogonek
ENCODING 731
SWIDTH 254 0
DWIDTH 9 0
BBX 7 8 1 -6
BITMAP
00054000
05DFD000
5FE60000
BF300000
ED000000
CFA30000
2BFFFDC0
00134530
ENDCHAR
STARTCHAR tilde
ENCODING 732
SWIDTH 402 0
DWIDTH 14 0
BBX 14 6 0 14
BITMAP
00276100000161
04EFFE70002CF3
1ED219FD78EE40
3F70004DFFE300
1F500000562000
04200000000000
ENDCHAR
STARTCHAR hungarumlaut
ENCODING 733
SWIDTH 264 0
DWIDTH 10 0
BBX 9 6 1 15
BITMAP
0002000000
02CF204900
3EF908FE20
DF908FE400
F900FE3000
2000A30000
ENDCHAR
STARTCHAR Wgrave
ENCODING 7808
SWIDTH 703 0
DWIDTH 25 0
BBX 25 25 0 0
BITMAP
00000000003D81000000000000
00000000000BFC200000000000
000000000001BFD20000000000
0000000000000AF80000000000
00000000000000310000000000
00000000000000000000000000
00000000000000000000000000
1C100000000000000000410000
6F300000000000000001FC0000
9F400000000000000000FF6000
AF600000000000000000CFD000
AF7000000000000000007FF300
9F8000000000000000002FF800
8F9000000021000000000BFC00
7FB0000000CA0000000005FF10
5FC0000000CE0000000000EF40
3FE0000000CF3000000000AF70
0FF1000000DF80000000007F90
0CF4000000FFE0000000006F90
08F8000006FFF7000000008F70
04FD00004FFFFE30000002EF30
00CF7005EFC18FE300002CFA00
004FFCCFFA1008FFA669FFD100
0007FFFF7000007FFFFFFB1000
000039A300000003BEEB500000
ENDCHAR
STARTCHAR wgrave
ENCODING 7809
SWIDTH 656 0
DWIDTH 24 0
BBX 23 20 0 0
BITMAP
0000000001E9200000000000
00000000009FE30000000000
00000000000AFE4000000000
0000000000008FA000000000
001000000000031000000000
03E100000000000000000000
0BF100000000000000000000
2FE0000000000000004B2000
6FA0000000034000001EC000
9F700000000DD0000007F700
AF500000000EF1000001FE00
9F600000000FF3000000BF40
7F800000000FF50000009F70
4FB00000001FF70000007F90
0EF10000004FFB0000008FA0
08F8000001CFFF200000DF80
01EF30003DFFDFC10019FF40
005FE75AFFF72DFEBBEFFC00
0006FFFFFF7002DFFFFFD200
00003AED9300000466651000
ENDCHAR
STARTCHAR Wacute
ENCODING 7810
SWIDTH 703 0
DWIDTH 25 0
BBX 25 25 0 0
BITMAP
00000000000005600000000000
0000000000019F800000000000
00000000003DFB000000000000
0000000003EF90000000000000
000000000AF800000000000000
00000000086000000000000000
00000000000000000000000000
1C100000000000000000410000
6F300000000000000001FC0000
9F400000000000000000FF6000
AF600000000000000000CFD000
AF7000000000000000007FF300
9F8000000000000000002FF800
8F9000000021000000000BFC00
7FB0000000CA0000000005FF10
5FC0000000CE0000000000EF40
3FE0000000CF3000000000AF70
0FF1000000DF80000000007F90
0CF4000000FFE0000000006F90
08F8000006FFF7000000008F70
04FD00004FFFFE30000002EF30
00CF7005EFC18FE300002CFA00
004FFCCFFA1008FFA669FFD100
0007FFFF7000007FFFFFFB1000
000039A300000003BEEB500000
ENDCHAR
STARTCHAR wacute
ENCODING 7811
SWIDTH 656 0
DWIDTH 24 0
BBX 23 23 0 0
BITMAP
000000000000065000000000
000000000001AF7000000000
00000000003EF90000000000
0000000004EF800000000000
000000000CF6000000000000
000000000A50000000000000
000000000000000000000000
001000000000000000000000
03E100000000000000000000
0BF100000000000000000000
2FE0000000000000004B2000
6FA0000000034000001EC000
9F700000000DD0000007F700
AF500000000EF1000001FE00
9F600000000FF3000000BF40
7F800000000FF50000009F70
4FB00000001FF70000007F90
0EF10000004FFB0000008FA0
08F8000001CFFF200000DF80
01EF30003DFFDFC10019FF40
005FE75AFFF72DFEBBEFFC00
0006FFFFFF7002DFFFFFD200
00003AED9300000466651000
ENDCHAR
STARTCHAR Wdieresis
ENCODING 7812
SWIDTH 703 0
DWIDTH 25 0
BBX 25 24 0 0
BITMAP
000000002CA1007D6000000000
00000000CFF803FFF200000000
00000000BFF602FFE200000000
00000000175000472000000000
00000000000000000000000000
00000000000000000000000000
1C100000000000000000410000
6F300000000000000001FC0000
9F400000000000000000FF6000
AF600000000000000000CFD000
AF7000000000000000007FF300
9F8000000000000000002FF800
8F9000000021000000000BFC00
7FB0000000CA0000000005FF10
5FC0000000CE0000000000EF40
3FE0000000CF3000000000AF70
0FF1000000DF80000000007F90
0CF4000000FFE0000000006F90
08F8000006FFF7000000008F70
04FD00004FFFFE30000002EF30
00CF7005EFC18FE300002CFA00
004FFCCFFA1008FFA669FFD100
0007FFFF7000007FFFFFFB1000
000039A300000003BEEB500000
ENDCHAR
STARTCHAR wdieresis
ENCODING 7813
SWIDTH 656 0
DWIDTH 24 0
BBX 23 19 0 0
BITMAP
00000001CB2005D800000000
0000000AFFA01EFF40000000
00000009FF901EFF30000000
001000007600038300000000
03E100000000000000000000
0BF100000000000000000000
2FE0000000000000004B2000
6FA0000000034000001EC000
9F700000000DD0000007F700
AF500000000EF1000001FE00
9F600000000FF3000000BF40
7F800000000FF50000009F70
4FB00000001FF70000007F90
0EF10000004FFB0000008FA0
08F8000001CFFF200000DF80
01EF30003DFFDFC10019FF40
005FE75AFFF72DFEBBEFFC00
0006FFFFFF7002DFFFFFD200
00003AED9300000466651000
ENDCHAR
STARTCHAR Ygrave
ENCODING 7922
SWIDTH 403 0
DWIDTH 15 0
BBX 14 30 0 -1
BITMAP
00002E91000000
00000AFD200000
000000AFE30000
00000009F90000
00000000310000
01000000000000
5E100000000000
5F70000000009A
2FE100000000FC
0BFA00000002FB
04FF60000007F9
009FF500000DF5
000AFF50005FF1
00009FFA30CFB0
000005EFFFFF60
00000019FFFF10
000000002EF900
000000000EF300
000000004FD000
000000009F7000
00000000DF2000
00000003FB0000
00000006F70000
00000009F40000
0000000BF20000
0000000DF00000
0000000DF00000
0000000DF00000
0000000DF10000
00000004600000
ENDCHAR
STARTCHAR ygrave
ENCODING 7923
SWIDTH 487 0
DWIDTH 18 0
BBX 17 38 0 -18
BITMAP
0000002E9100000000
0000000AFD20000000
00000000AFE3000000
0000000009F9000000
06000000003100A000
3F000000000001F200
6F200000000001F600
5F500000000001F900
4F700000000001FC00
3FA00000000000FF00
1FD00000000000EF20
0CF30000000000EF40
08F80000000000DF60
02FD0000000000DF80
009F7000000006FF90
002EE20000007FFFA0
0006FD40002AFFFFC0
00006FFDBCFFC42EC0
000004CFFFD5000BC0
000000024300000AD0
000000000000000AD0
000000000000000AE0
000000000000000BE0
000000000000000CD0
000000000000000ED0
000000000000000FC0
000000000000002FB0
000000000000004F90
000000000000006F70
001000000000009F50
05E20000000000CF20
04FD2000000001FD00
00DFD200000006F900
004FFD4000001DF300
0004EFF91001AFB000
00002BFFFCBEFE2000
0000005CFFFFE40000
000000002687100000
ENDCHAR
STARTCHAR endash
ENCODING 8211
SWIDTH 287 0
DWIDTH 10 0
BBX 10 4 0 8
BITMAP
0034567640
1CFFFFFFF9
6FFEB99BEB
2420000000
ENDCHAR
STARTCHAR emdash
ENCODING 8212
SWIDTH 512 0
DWIDTH 18 0
BBX 18 4 0 8
BITMAP
000001234455566510
028CEFFFFFFFFFFFE1
3EFFFFFEDCBAA9BDE2
244321000000000000
ENDCHAR
STARTCHAR quoteleft
ENCODING 8216
SWIDTH 102 0
DWIDTH 4 0
BBX 4 10 0 17
BITMAP
0100
3E10
4F70
4FA0
4FD0
2FE0
1FF0
0DF1
08F1
0160
ENDCHAR
STARTCHAR quoteright
ENCODING 8217
SWIDTH 102 0
DWIDTH 4 0
BBX 4 10 0 17
BITMAP
0100
3E10
4F70
4FA0
4FD0
2FE0
1FF0
0DF1
08F1
0160
ENDCHAR
STARTCHAR quotesinglbase
ENCODING 8218
SWIDTH 102 0
DWIDTH 4 0
BBX 4 10 0 -2
BITMAP
0700
2F50
2FB0
2FE0
1FF1
0FF2
0CF3
09F4
04F3
0010
ENDCHAR
STARTCHAR quotedblleft
ENCODING 8220
SWIDTH 234 0
DWIDTH 8 0
BBX 8 12 0 17
BITMAP
00000920
66000E90
9E100ED0
7F500DF0
6F900DF2
4FC00DF4
1FF10CF5
0DF40BF6
09F80AF7
03FD09F7
007904F6
00000051
ENDCHAR
STARTCHAR quotedblright
ENCODING 8221
SWIDTH 234 0
DWIDTH 8 0
BBX 8 12 0 17
BITMAP
00000920
66000E90
9E100ED0
7F500DF0
6F900DF2
4FC00DF4
1FF10CF5
0DF40BF6
09F80AF7
03FD09F7
007904F6
00000051
ENDCHAR
STARTCHAR quotedblbase
ENCODING 8222
SWIDTH 341 0
DWIDTH 12 0
BBX 8 12 2 -5
BITMAP
00000530
37000AC0
5F300AF1
3F800AF4
2FC009F6
0EF108F8
0CF408F9
09F807FA
05FB06FB
01EF15FB
005C21EB
00000053
ENDCHAR
STARTCHAR dagger
ENCODING 8224
SWIDTH 375 0
DWIDTH 14 0
BBX 13 24 0 0
BITMAP
00001200000000
00004D00000000
00004F30000000
00002F70000000
00000EC0000000
00000AF1000000
000006F4000000
000003F7000000
001467FC887400
07FFFFFFFFFF50
1FFFECEF78AC50
032100AF000000
000000AF200000
0000009F300000
0000009F400000
0000009F600000
0000009F600000
0000009F700000
0000008F700000
0000008F700000
0000007F700000
0000006F700000
0000005FB00000
0000003E700000
ENDCHAR
STARTCHAR daggerdbl
ENCODING 8225
SWIDTH 375 0
DWIDTH 14 0
BBX 18 27 -2 0
BITMAP
0000004C4000000000
0000007F8000000000
0000006FC000000000
0000004FE000000000
0000001FF200000000
0000000BF400000000
00000008F500000000
00000004F700000000
00000001F900000000
00123444EB44443100
7DFFFFFFFFFFFFFF80
ADEFFFFEFFB987BFF2
000000008F10000460
000000007F20000000
001234449F75664100
7FFFFFFFFFFFFFFE30
3ABBBBBBCFCBBBB920
000000005F40000000
000000005F50000000
000000005F50000000
000000005F60000000
000000005F60000000
000000005F60000000
000000005F70000000
000000004F70000000
000000004FB0000000
000000003E70000000
ENDCHAR
STARTCHAR bullet
ENCODING 8226
SWIDTH 341 0
DWIDTH 12 0
BBX 7 8 3 5
BITMAP
003A8100
02EFFD20
0BFFFFA0
2FFFFFE0
1FFFFFE0
09FFFF50
01BFE500
00010000
ENDCHAR
STARTCHAR ellipsis
ENCODING 8230
SWIDTH 612 0
DWIDTH 22 0
BBX 20 7 1 0
BITMAP
01A8000007A200003B50
08FF90003FFD1000DFF5
1EFFF100BFFF6005FFFB
6FFFF400FFFF900AFFFE
4FFFF300EFFF8009FFFE
0DFFB0008FFF2003FFF7
04EB10001CD400008E80
ENDCHAR
STARTCHAR guilsinglleft
ENCODING 8249
SWIDTH 487 0
DWIDTH 18 0
BBX 17 15 0 0
BITMAP
000000000000005A10
0000000000004CFD30
000000000019FF9100
0000000003DFE40000
000000008FFA100000
0000002CFE50000000
000006EFA100000000
0001BFD40000000000
004EFA100000000000
04EF80000000000000
4EFE51000000000000
CFFFFFDB8641000000
16BEFFFFFFFFD81000
000014689BDFFFE100
0000000000016CE200
ENDCHAR
STARTCHAR guilsinglright
ENCODING 8250
SWIDTH 403 0
DWIDTH 15 0
BBX 14 17 1 0
BITMAP
77100000000000
EFD20000000000
3EFE8200000000
01AFFFB6100000
0003AFFFFC8520
0000017BFFFFF2
0000000002CFF4
0000000000DFE1
000000000AFF50
00000001BFE400
0000004EFD3000
000019FFA10000
0003DFE6000000
007FFC20000000
1BFF8000000000
CFE40000000000
DA100000000000
ENDCHAR
STARTCHAR fraction
ENCODING 8260
SWIDTH 309 0
DWIDTH 11 0
BBX 11 27 0 0
BITMAP
000000000B50
000000003F70
000000007F50
00000000AF20
00000000DE00
00000002FA00
00000008F600
0000000DF100
0000004FC000
0000009F7000
000000EF2000
000005FD0000
00000AF80000
00001FF20000
00006FC00000
0000CF700000
0002FF200000
0008FB000000
000DF6000000
003FF1000000
009FA0000000
02FF40000000
09FD00000000
1EF700000000
6FE100000000
9F7000000000
5C1000000000
ENDCHAR
STARTCHAR Euro
ENCODING 8364
SWIDTH 741 0
DWIDTH 27 0
BBX 26 25 0 0
BITMAP
0000000000000000028DFE8000
00000000000000007EFFDCF400
000000000000001BFE9300B500
00000000000002DE8100001100
0000000000004ED20000000000
000000000007FFB62000000000
0000223346BFFFFFFE81000000
19EFFFFFFFFFFFFFFFFD000000
CFFFFDCCFFF932365254000000
76420000AF5000000000000000
00000001FA0000000000000000
00000006F40000000000000000
0000000BF20002567871000000
0000002FFDCDFFFFFFE4000000
2679ACFFFFFDB9743210000000
AFFFFEFF920000000000000000
332100BF300000000000000000
0000008F300000000000000000
0000005F400000000000000000
0000002F700000000000000000
0000000DC00000000000000000
00000007F80000000000368AB6
00000001DFA4101358CEFFFFF6
000000002DFFFFFFFFFFFEB610
00000000017CEFFECA85200000
ENDCHAR
STARTCHAR trademark
ENCODING 8482
SWIDTH 1116 0
DWIDTH 40 0
BBX 40 23 0 -1
BITMAP
CFFFFEEDDCBBA986542004E9000000000001D800
379BEFFFFFFFFFFFFFFFDCFF900000000008FC00
00000134567EF8668ADFFFFFF3000000000EFC00
00000000000CF000000258BFFB000000005FFB00
00000000000BF0000000000DFF50000000CFF900
00000000000AF1000000000AFFE3000008FFF800
000000000009F3000000000BFEFE6324BFFFF700
000000000008F5000000000BF3BFFFFFFFEFF600
000000000007F6000000000CF208EFFFB60AF700
000000000006F8000000000DF20013200006F800
000000000004FA000000000EF20000000004FA00
000000000003FC000000000EF20000000003FC00
000000000001FF000000000FF20000000002FF00
000000000000FF200000000FF20000000001FF20
000000000000DF400000001FF20000000000EF50
000000000000BF700000001FF20000000000CF70
0000000000009F900000001FF20000000000BFA0
0000000000007FC00000001FF200000000009FD0
0000000000005FF10000001FF200000000008FF0
0000000000003FF80000001FF200000000006FF1
0000000000000DFF1000000BD100000000005FF2
00000000000005FE200000000000000000002EF2
0000000000000000000000000000000000000010
ENDCHAR
STARTCHAR minus
ENCODING 8722
SWIDTH 287 0
DWIDTH 10 0
BBX 10 4 0 8
BITMAP
0034567640
1CFFFFFFF9
6FFEB99BEB
2420000000
ENDCHAR
STARTCHAR commaaccent
ENCODING 63171
SWIDTH 375 0
DWIDTH 14 0
BBX 3 9 4 -12
BITMAP
1400
AF80
CFD0
2FE0
2FD0
5FC0
DF90
DE20
4300
ENDCHAR
STARTCHAR fi
ENCODING 64257
SWIDTH 551 0
DWIDTH 20 0
BBX 18 27 -1 -1
BITMAP
000000000244100000
00000002BFFFFA2000
0000003EFFCAEFE500
000000DFA2001BFF40
000006FA000000AFE1
00000BE1000AB10AF4
00001F80000AF80010
00003F400001530000
00006F200000000000
00008F300000000000
00009F500000020000
0000AF7000000F9000
0000AF8000000FB000
00009FA000001FB000
0046BFEA87544FC000
2DFFFFFFFFFFFFE000
3CA74EFFACDDBFF100
000007FF10000EF400
000001EF50000DF700
0000008FC0000CFA00
0000001EF6000AFD00
00000008FE1008FF10
00000001FFB006FF30
000000009FF504FF50
000000001EFB01FF60
0000000003DC00CF50
000000000000003910
ENDCHAR
STARTCHAR fl
ENCODING 64258
SWIDTH 723 0
DWIDTH 26 0
BBX 18 27 -1 -1
BITMAP
000000000244100000
00000002BFFFFA2000
0000003EFFCAEFE500
000000DFA2001BFF40
000006FA000000AFE1
00000BE10000120AF4
00001F8000008E2010
00003F4000008F7000
00006F2000008F8000
00008F3000008F9000
00009F5000009F9000
0000AF7000009FA000
0000AF8000009FA000
00009FA00000AFB000
0046BFEA8754BFB000
2DFFFFFFFFFFFFC000
3CA74EFFACDCEFC000
000007FF1000AFC000
000001EF5000AFC000
0000008FC0009FC000
0000001EF6009FC000
00000008FE108FC000
00000001FFB07FB000
000000009FF55FA000
000000001EFB4F8000
0000000003DC2F5000
000000000000020000
ENDCHAR
STARTCHAR .notdef
ENCODING -1
SWIDTH 375 0
DWIDTH 14 0
BBX 1 1 0 0
BITMAP
00
ENDCHAR
STARTCHAR .null
ENCODING -1
SWIDTH 0 0
DWIDTH 0 0
BBX 1 1 0 0
BITMAP
00
ENDCHAR
STARTCHAR nonmarkingreturn
ENCODING -1
SWIDTH 375 0
DWIDTH 14 0
BBX 1 1 0 0
BITMAP
00
ENDCHAR
ENDFONT
